<?xml version="1.0" standalone="no"?>
<!DOCTYPE svg PUBLIC "-//W3C//DTD SVG 20010904//EN"
 "http://www.w3.org/TR/2001/REC-SVG-20010904/DTD/svg10.dtd">
<svg version="1.0" xmlns="http://www.w3.org/2000/svg"
 width="1200.000000pt" height="1200.000000pt" viewBox="0 0 1200.000000 1200.000000"
 preserveAspectRatio="xMidYMid meet">
<metadata>
Created by potrace 1.14, written by Peter Selinger 2001-2017
</metadata>
<g transform="translate(0.000000,1200.000000) scale(0.100000,-0.100000)"
fill="#000000" stroke="none">
<path d="M1158 9293 l-697 -698 0 -2039 0 -2039 -210 -211 -211 -211 0 -1053
0 -1052 842 0 843 0 217 217 216 216 3754 0 3753 -1 868 866 867 867 0 2917 0
2918 -2922 0 -2923 0 1 -63 c1 -34 2 -67 3 -74 1 -9 660 -12 2819 -12 1549 0
2829 0 2845 -1 l27 0 0 -2812 0 -2813 -822 -822 -823 -823 -4497 0 -4498 0 0
2983 0 2982 653 653 654 654 564 1 564 2 0 73 1 72 -596 0 -595 0 -697 -697z"/>
<path d="M8315 9440 c-3 -5 -1 -10 4 -10 6 0 11 5 11 10 0 6 -2 10 -4 10 -3 0
-8 -4 -11 -10z"/>
<path d="M9395 9440 c-3 -5 -1 -10 4 -10 6 0 11 5 11 10 0 6 -2 10 -4 10 -3 0
-8 -4 -11 -10z"/>
<path d="M9635 9440 c-3 -5 -1 -10 4 -10 6 0 11 5 11 10 0 6 -2 10 -4 10 -3 0
-8 -4 -11 -10z"/>
<path d="M2795 9401 c-3 -5 -2 -12 3 -15 5 -3 9 1 9 9 0 17 -3 19 -12 6z"/>
<path d="M4633 9395 c0 -8 4 -12 9 -9 5 3 6 10 3 15 -9 13 -12 11 -12 -6z"/>
<path d="M5316 9358 c3 -5 10 -6 15 -3 13 9 11 12 -6 12 -8 0 -12 -4 -9 -9z"/>
<path d="M6596 9358 c3 -5 10 -6 15 -3 13 9 11 12 -6 12 -8 0 -12 -4 -9 -9z"/>
<path d="M9587 9279 c7 -7 15 -10 18 -7 3 3 -2 9 -12 12 -14 6 -15 5 -6 -5z"/>
<path d="M6475 9241 c-3 -5 -2 -12 3 -15 5 -3 9 1 9 9 0 17 -3 19 -12 6z"/>
<path d="M7675 9241 c-3 -5 -2 -12 3 -15 5 -3 9 1 9 9 0 17 -3 19 -12 6z"/>
<path d="M9546 9198 c3 -5 10 -6 15 -3 13 9 11 12 -6 12 -8 0 -12 -4 -9 -9z"/>
<path d="M11647 9183 c-2 -5 -4 -104 -4 -220 l0 -213 73 0 72 0 6 35 c9 47 44
85 97 104 l44 17 0 65 0 66 -47 17 c-52 18 -98 72 -98 113 0 22 -4 23 -69 23
-39 0 -72 -3 -74 -7z"/>
<path d="M3913 9165 c0 -8 4 -12 9 -9 5 3 6 10 3 15 -9 13 -12 11 -12 -6z"/>
<path d="M9113 9165 c0 -8 4 -12 9 -9 5 3 6 10 3 15 -9 13 -12 11 -12 -6z"/>
<path d="M4475 9161 c-3 -5 -2 -12 3 -15 5 -3 9 1 9 9 0 17 -3 19 -12 6z"/>
<path d="M2075 9120 c-3 -5 -1 -10 4 -10 6 0 11 5 11 10 0 6 -2 10 -4 10 -3 0
-8 -4 -11 -10z"/>
<path d="M2716 9113 c-6 -14 -5 -15 5 -6 7 7 10 15 7 18 -3 3 -9 -2 -12 -12z"/>
<path d="M9310 9120 c0 -5 5 -10 11 -10 5 0 7 5 4 10 -3 6 -8 10 -11 10 -2 0
-4 -4 -4 -10z"/>
<path d="M9915 9080 c3 -5 8 -10 11 -10 2 0 4 5 4 10 0 6 -5 10 -11 10 -5 0
-7 -4 -4 -10z"/>
<path d="M9595 9049 c-4 -6 -5 -12 -2 -15 2 -3 7 2 10 11 7 17 1 20 -8 4z"/>
<path d="M4106 9042 c-3 -5 1 -9 9 -9 8 0 12 4 9 9 -3 4 -7 8 -9 8 -2 0 -6 -4
-9 -8z"/>
<path d="M5636 9042 c-3 -5 1 -9 9 -9 8 0 12 4 9 9 -3 4 -7 8 -9 8 -2 0 -6 -4
-9 -8z"/>
<path d="M1593 8965 c0 -8 4 -12 9 -9 5 3 6 10 3 15 -9 13 -12 11 -12 -6z"/>
<path d="M4145 8960 c-3 -6 1 -7 9 -4 18 7 21 14 7 14 -6 0 -13 -4 -16 -10z"/>
<path d="M4476 8927 c3 -10 9 -15 12 -12 3 3 0 11 -7 18 -10 9 -11 8 -5 -6z"/>
<path d="M8235 8921 c-3 -5 -2 -12 3 -15 5 -3 9 1 9 9 0 17 -3 19 -12 6z"/>
<path d="M1910 8881 c0 -6 4 -13 10 -16 6 -3 7 1 4 9 -7 18 -14 21 -14 7z"/>
<path d="M9546 8882 c-3 -5 1 -9 9 -9 8 0 12 4 9 9 -3 4 -7 8 -9 8 -2 0 -6 -4
-9 -8z"/>
<path d="M3626 8722 c-3 -5 1 -9 9 -9 8 0 12 4 9 9 -3 4 -7 8 -9 8 -2 0 -6 -4
-9 -8z"/>
<path d="M4516 8718 c3 -5 10 -6 15 -3 13 9 11 12 -6 12 -8 0 -12 -4 -9 -9z"/>
<path d="M7435 8691 c-3 -5 -2 -12 3 -15 5 -3 9 1 9 9 0 17 -3 19 -12 6z"/>
<path d="M9590 8681 c0 -6 4 -13 10 -16 6 -3 7 1 4 9 -7 18 -14 21 -14 7z"/>
<path d="M9915 8640 c-3 -5 -1 -10 4 -10 6 0 11 5 11 10 0 6 -2 10 -4 10 -3 0
-8 -4 -11 -10z"/>
<path d="M8713 8595 c0 -8 4 -12 9 -9 5 3 6 10 3 15 -9 13 -12 11 -12 -6z"/>
<path d="M11669 8600 l-26 -5 -1 -195 c0 -107 1 -204 3 -215 4 -19 12 -21 71
-20 l66 0 13 39 c17 50 51 84 101 101 l39 13 0 59 c1 69 -3 83 -21 83 -49 0
-124 75 -124 124 0 10 -9 16 -22 17 -13 0 -34 1 -48 2 -14 1 -37 0 -51 -3z"/>
<path d="M1916 8553 c-6 -14 -5 -15 5 -6 7 7 10 15 7 18 -3 3 -9 -2 -12 -12z"/>
<path d="M4476 8553 c-6 -14 -5 -15 5 -6 7 7 10 15 7 18 -3 3 -9 -2 -12 -12z"/>
<path d="M2473 8525 c0 -8 4 -12 9 -9 5 3 6 10 3 15 -9 13 -12 11 -12 -6z"/>
<path d="M2195 8480 c3 -5 8 -10 11 -10 2 0 4 5 4 10 0 6 -5 10 -11 10 -5 0
-7 -4 -4 -10z"/>
<path d="M4755 8480 c3 -5 8 -10 11 -10 2 0 4 5 4 10 0 6 -5 10 -11 10 -5 0
-7 -4 -4 -10z"/>
<path d="M7666 8478 c3 -5 10 -6 15 -3 13 9 11 12 -6 12 -8 0 -12 -4 -9 -9z"/>
<path d="M9590 8439 c0 -5 5 -7 10 -4 6 3 10 8 10 11 0 2 -4 4 -10 4 -5 0 -10
-5 -10 -11z"/>
<path d="M10155 8441 c-3 -5 -2 -12 3 -15 5 -3 9 1 9 9 0 17 -3 19 -12 6z"/>
<path d="M5833 8365 c0 -8 4 -12 9 -9 5 3 6 10 3 15 -9 13 -12 11 -12 -6z"/>
<path d="M1915 8320 c3 -5 8 -10 11 -10 2 0 4 5 4 10 0 6 -5 10 -11 10 -5 0
-7 -4 -4 -10z"/>
<path d="M4475 8320 c3 -5 8 -10 11 -10 2 0 4 5 4 10 0 6 -5 10 -11 10 -5 0
-7 -4 -4 -10z"/>
<path d="M5489 8248 c0 -2 -2 -14 -5 -27 -2 -13 -24 -94 -48 -180 -24 -86 -47
-171 -51 -189 -4 -18 -11 -30 -16 -27 -5 4 -6 0 -3 -8 3 -8 -2 -39 -11 -68 -9
-30 -19 -65 -21 -79 -3 -13 -9 -29 -15 -36 -5 -6 -7 -13 -4 -16 3 -2 -5 -36
-16 -74 -11 -38 -22 -80 -25 -94 -3 -14 -9 -29 -14 -34 -5 -5 -6 -15 -3 -24 4
-9 2 -13 -4 -9 -5 3 -9 -3 -8 -16 1 -12 -1 -26 -6 -32 -4 -5 -7 -13 -7 -18 2
-25 -26 -127 -35 -127 -6 0 -8 -2 -5 -6 5 -4 2 -22 -17 -94 -2 -8 -4 -19 -4
-23 -1 -5 -4 -6 -8 -4 -5 3 -8 -9 -9 -26 -1 -40 -64 -271 -76 -275 -4 -2 -6
-8 -3 -12 3 -5 0 -29 -7 -55 -9 -34 -16 -44 -28 -40 -12 5 -13 4 -2 -6 14 -15
16 -43 2 -34 -6 3 -7 -1 -4 -9 3 -9 1 -29 -4 -45 -10 -28 -9 -30 16 -33 15 -2
155 -1 312 2 242 4 285 7 285 20 0 12 -38 14 -272 13 -150 0 -273 0 -273 2 0
1 21 10 48 20 26 9 75 30 110 46 34 16 66 29 71 29 5 0 22 6 38 14 15 8 58 28
96 45 40 18 67 37 67 46 0 8 3 15 8 15 4 0 8 14 8 32 1 18 6 34 12 36 6 2 9 9
6 16 -10 26 12 59 39 60 15 1 27 -2 27 -7 0 -5 7 -4 15 3 12 10 16 9 21 -5 4
-9 2 -21 -4 -27 -6 -6 -8 -17 -5 -25 3 -7 -3 -23 -13 -35 -11 -12 -14 -18 -7
-15 6 4 13 2 15 -3 6 -18 83 22 86 45 11 62 55 210 63 213 5 2 7 8 3 13 -3 5
0 24 6 43 6 18 13 44 16 57 3 13 7 29 8 34 2 6 7 25 11 42 4 18 11 30 15 28 5
-3 6 3 4 12 -3 10 2 37 10 60 8 22 12 44 9 47 -4 3 -2 6 4 6 5 0 10 6 10 13 1
20 10 58 32 137 50 176 83 296 87 315 2 11 13 52 25 90 24 81 27 95 28 113 1
7 5 10 11 7 5 -3 7 0 4 9 -3 8 1 39 10 70 9 30 16 56 16 58 0 3 -36 4 -81 3
-44 0 -83 3 -85 7 -3 5 -11 5 -17 1 -19 -11 -237 -10 -237 2 0 7 -3 6 -8 0 -4
-6 -43 -10 -87 -9 -105 2 -107 2 -100 14 3 6 4 10 1 10 -3 0 -6 -1 -7 -2z"/>
<path d="M6395 8209 c-49 -3 -87 -6 -83 -7 4 -1 -2 -32 -13 -69 -10 -38 -19
-71 -19 -75 0 -5 146 -8 324 -8 353 0 332 -3 343 55 2 11 8 37 14 59 6 21 8
40 6 42 -7 7 -473 10 -572 3z"/>
<path d="M9675 8211 c-3 -5 -2 -12 3 -15 5 -3 9 1 9 9 0 17 -3 19 -12 6z"/>
<path d="M9755 8169 c-4 -6 -5 -12 -2 -15 2 -3 7 2 10 11 7 17 1 20 -8 4z"/>
<path d="M1870 8166 c0 -2 7 -7 16 -10 8 -3 12 -2 9 4 -6 10 -25 14 -25 6z"/>
<path d="M2390 8161 c0 -6 4 -13 10 -16 6 -3 7 1 4 9 -7 18 -14 21 -14 7z"/>
<path d="M9276 8162 c-3 -5 1 -9 9 -9 8 0 12 4 9 9 -3 4 -7 8 -9 8 -2 0 -6 -4
-9 -8z"/>
<path d="M9510 8160 c0 -5 5 -10 10 -10 6 0 10 5 10 10 0 6 -4 10 -10 10 -5 0
-10 -4 -10 -10z"/>
<path d="M9593 8115 c0 -8 4 -12 9 -9 5 3 6 10 3 15 -9 13 -12 11 -12 -6z"/>
<path d="M1513 8045 c0 -8 4 -12 9 -9 5 3 6 10 3 15 -9 13 -12 11 -12 -6z"/>
<path d="M6945 8040 c-3 -6 1 -7 9 -4 18 7 21 14 7 14 -6 0 -13 -4 -16 -10z"/>
<path d="M7673 8005 c0 -8 4 -12 9 -9 5 3 6 10 3 15 -9 13 -12 11 -12 -6z"/>
<path d="M11646 8011 c-2 -3 -3 -102 -3 -218 l0 -213 73 0 c61 0 74 3 74 16 0
53 66 124 116 124 25 0 30 15 29 89 0 54 0 54 -39 68 -61 21 -106 72 -106 121
0 17 -8 19 -70 19 -39 0 -72 -2 -74 -6z"/>
<path d="M2476 8002 c-3 -5 1 -9 9 -9 8 0 12 4 9 9 -3 4 -7 8 -9 8 -2 0 -6 -4
-9 -8z"/>
<path d="M7033 7955 c0 -8 4 -12 9 -9 5 3 6 10 3 15 -9 13 -12 11 -12 -6z"/>
<path d="M6850 7943 c0 -9 -64 -12 -262 -12 -145 0 -275 0 -289 0 -20 -1 -28
-7 -33 -26 -3 -13 -11 -37 -17 -52 -7 -15 -13 -40 -15 -55 l-4 -28 205 0 c178
0 204 -2 199 -15 -5 -12 -29 -15 -133 -14 -259 2 -281 0 -281 -17 0 -9 -5 -12
-12 -8 -6 4 -8 3 -5 -3 6 -9 -23 -143 -40 -183 -9 -23 -12 -32 -18 -69 -4 -19
-12 -46 -17 -60 -13 -30 -14 -37 -16 -69 -1 -13 -5 -21 -9 -19 -5 3 -9 -11
-10 -31 -1 -20 -7 -38 -13 -40 -5 -2 -8 -7 -5 -11 2 -4 0 -25 -6 -46 -6 -20
-12 -45 -14 -54 -3 -13 -25 -90 -38 -136 -2 -5 -9 -36 -17 -67 -7 -32 -16 -55
-20 -53 -14 9 -3 -35 13 -53 9 -10 14 -22 10 -27 -5 -4 -3 -5 3 -2 14 8 57
-36 47 -48 -5 -4 -3 -6 2 -2 13 7 158 -137 148 -147 -4 -4 0 -4 10 0 12 4 17
1 17 -11 0 -9 5 -13 10 -10 9 5 14 -6 12 -26 -2 -15 57 0 96 25 23 15 48 24
54 20 6 -4 8 -3 5 3 -8 13 121 85 137 76 6 -3 8 -2 3 2 -7 9 73 65 93 65 5 0
10 4 10 9 0 8 37 24 53 22 4 -1 7 3 7 7 0 8 46 35 62 36 23 3 16 16 -8 16 -17
0 -35 5 -41 11 -8 8 -13 8 -17 0 -4 -6 -16 -11 -27 -11 -13 0 -18 4 -13 12 5
8 3 8 -7 2 -20 -13 -189 -12 -189 1 0 7 -3 7 -8 0 -4 -6 -34 -10 -67 -10 -59
0 -59 -1 -69 -33 -7 -26 -14 -32 -28 -29 -10 3 -18 1 -18 -3 0 -4 -9 -6 -20
-3 -20 5 -28 23 -10 23 5 0 7 7 4 15 -8 21 6 41 17 24 6 -10 9 -11 9 -1 0 6 7
12 15 12 8 0 15 -5 15 -11 0 -6 7 -4 15 5 8 8 15 19 15 25 0 6 3 11 8 12 4 0
15 2 24 4 10 2 20 -1 24 -6 3 -5 11 -6 17 -2 19 12 111 11 119 -1 6 -8 8 -8 8
0 0 6 12 10 27 8 38 -4 50 9 64 71 7 32 16 52 22 48 6 -3 7 -1 3 5 -3 6 1 37
10 69 8 32 17 69 20 82 3 14 8 29 12 35 3 6 8 20 10 31 1 11 8 38 14 60 6 22
12 43 14 48 1 4 2 8 3 10 2 1 4 12 7 23 2 12 20 80 39 150 20 71 38 137 40
147 2 9 6 21 9 25 3 5 8 24 11 42 3 19 10 39 15 46 6 6 8 13 5 16 -3 2 0 20 6
39 25 83 28 115 10 111 -8 -2 -18 3 -22 10 -6 9 -9 10 -9 1z"/>
<path d="M4755 7888 c-77 -26 -147 -45 -155 -42 -8 3 -11 2 -7 -2 6 -7 -364
-136 -371 -129 -1 1 2 15 9 31 6 16 13 40 15 53 3 14 8 29 11 34 3 6 7 23 8
39 2 15 8 35 15 43 11 13 7 15 -28 15 -41 0 -52 -11 -57 -55 -4 -42 -17 -95
-24 -95 -3 0 -7 -13 -8 -30 -3 -44 -19 -67 -50 -73 -15 -3 -36 -9 -45 -12 -15
-6 -16 -3 -2 47 8 29 22 80 30 113 8 33 19 68 25 77 5 10 9 20 9 24 0 10 -60
-3 -165 -36 -55 -18 -112 -36 -127 -40 -16 -5 -28 -6 -28 -2 0 4 -4 2 -8 -5
-4 -6 -21 -13 -37 -15 -17 -2 -32 -5 -35 -8 -3 -3 -31 -14 -62 -23 -42 -13
-58 -23 -58 -36 0 -10 -3 -21 -7 -25 -4 -3 -8 -12 -9 -19 -1 -7 -4 -23 -7 -37
-8 -36 -107 -392 -114 -410 -3 -8 -7 -19 -8 -25 -1 -5 -3 -12 -4 -15 -2 -3 -4
-13 -6 -24 -12 -60 -28 -115 -33 -112 -4 2 -8 -10 -9 -28 -1 -17 -18 -89 -38
-161 -20 -71 -38 -139 -41 -151 -2 -12 -10 -40 -18 -63 -9 -22 -13 -41 -11
-41 2 0 -5 -27 -15 -61 -17 -56 -17 -60 -2 -54 9 4 22 8 29 8 7 0 10 4 7 9 -3
4 1 8 8 8 7 0 64 22 127 50 63 27 118 47 123 44 4 -3 8 -2 8 3 0 9 12 14 130
63 41 17 91 39 112 49 27 14 39 16 48 7 10 -8 11 -8 6 1 -5 9 8 19 36 30 24
10 46 17 50 15 4 -1 10 10 14 26 6 26 49 184 79 287 20 72 38 138 41 155 2 8
7 16 12 18 5 1 7 14 4 27 -2 14 0 25 6 25 5 0 9 6 9 13 -2 23 15 97 21 93 4
-2 8 12 9 32 2 24 11 44 25 56 19 16 19 18 4 13 -14 -6 -17 -4 -12 9 3 8 6 22
6 30 0 9 4 13 9 10 5 -3 8 2 7 11 -1 14 10 17 66 18 l68 2 -6 -31 c-9 -54 -27
-120 -36 -140 -7 -13 -7 -16 1 -12 6 4 11 1 11 -6 0 -8 9 -20 20 -28 11 -8 20
-18 20 -23 0 -4 9 -17 20 -29 22 -24 26 -48 9 -48 -5 0 -8 -4 -5 -9 8 -12 -5
-72 -14 -66 -4 2 -5 -6 -3 -19 3 -13 -2 -30 -11 -39 -9 -9 -12 -18 -7 -21 5
-4 1 -28 -9 -56 -10 -28 -16 -50 -13 -50 3 0 -2 -12 -12 -26 -9 -15 -13 -24
-8 -21 6 4 6 -9 -1 -33 -5 -22 -13 -40 -16 -40 -4 0 -6 -10 -5 -22 1 -13 -1
-27 -6 -33 -4 -5 -8 -14 -8 -20 -3 -37 -15 -75 -23 -75 -5 0 -7 -4 -4 -8 7
-13 -24 -126 -37 -134 -9 -6 -8 -8 1 -8 10 0 10 -5 2 -20 -6 -11 -9 -20 -6
-20 3 0 -1 -15 -9 -34 -17 -39 -9 -53 16 -30 10 9 27 14 39 11 11 -3 18 -2 15
3 -3 4 8 13 25 20 19 8 31 22 35 41 4 17 11 26 17 23 7 -4 8 -2 4 4 -6 10 5
73 21 112 3 8 7 22 9 30 3 18 7 31 23 90 7 25 15 53 17 64 7 40 27 91 38 98 8
5 7 8 -2 8 -10 0 -10 5 -2 20 6 11 8 20 4 20 -3 0 -1 7 6 15 7 8 10 15 7 15
-4 0 0 18 8 40 8 22 13 40 11 40 -2 0 2 17 9 38 7 20 18 37 23 37 6 0 14 4 19
8 4 5 1 7 -7 5 -8 -1 -15 3 -14 10 3 37 5 43 12 39 4 -3 7 11 8 30 0 19 7 39
15 44 9 6 10 9 2 9 -9 0 -10 7 -4 23 26 64 25 61 35 119 4 28 14 52 24 58 14
8 14 9 2 10 -25 1 11 20 38 20 19 0 22 -4 16 -27 -4 -16 -11 -30 -16 -31 -4
-2 -6 -8 -3 -13 3 -5 0 -28 -6 -51 -7 -24 -14 -52 -16 -63 -2 -11 -6 -27 -10
-35 -3 -8 -8 -24 -10 -35 -2 -10 -7 -22 -11 -25 -4 -3 -7 -14 -6 -25 0 -11 -5
-36 -12 -55 -7 -19 -23 -76 -35 -127 -13 -50 -27 -89 -33 -86 -5 3 -6 1 -2 -5
4 -7 2 -29 -4 -49 -6 -21 -14 -51 -16 -68 -3 -16 -12 -41 -21 -54 -8 -13 -10
-20 -4 -16 8 4 7 -6 -3 -28 -8 -19 -19 -60 -26 -91 -6 -31 -14 -56 -18 -56 -4
0 -8 -16 -9 -36 -1 -19 -7 -42 -14 -50 -8 -10 1 -8 27 6 21 11 102 47 178 80
116 50 142 58 155 48 14 -11 14 -11 3 3 -11 14 -9 18 10 24 13 4 25 8 28 9 3
1 25 11 50 22 48 22 48 22 85 157 2 4 3 16 4 28 1 12 5 17 13 13 6 -4 8 -3 5
3 -5 8 7 78 21 113 3 8 6 17 6 20 18 77 51 188 56 185 4 -3 5 7 2 22 -4 19 -2
24 8 18 9 -5 11 -4 6 4 -11 17 3 73 16 65 7 -5 8 -2 4 5 -9 14 24 152 34 146
3 -2 5 11 4 28 -3 44 -2 41 -24 67 -11 12 -17 27 -13 33 3 5 2 8 -3 4 -5 -3
-30 24 -54 59 -25 36 -58 84 -75 107 l-30 42 -140 -47z"/>
<path d="M7536 7914 c-38 -13 -72 -21 -77 -19 -4 3 -9 0 -11 -6 -2 -7 -18 -12
-36 -13 -18 0 -32 -5 -32 -10 0 -4 -11 -6 -25 -4 -13 3 -22 1 -19 -3 2 -4 -15
-13 -38 -19 -24 -7 -71 -21 -105 -32 -34 -11 -68 -16 -74 -12 -8 5 -9 3 -4 -6
6 -9 4 -12 -6 -8 -10 4 -14 -3 -15 -22 -1 -15 -5 -36 -9 -46 -4 -11 -10 -28
-12 -39 -2 -10 -7 -22 -11 -25 -4 -3 -7 -14 -7 -25 -1 -25 -24 -121 -38 -155
-6 -14 -12 -32 -13 -42 -2 -9 -18 -67 -35 -130 -17 -62 -33 -124 -35 -138 -3
-14 -9 -26 -14 -28 -4 -2 -6 -12 -3 -22 3 -12 0 -20 -6 -20 -7 0 -9 -5 -6 -10
4 -6 -3 -40 -14 -75 -12 -35 -21 -71 -21 -80 0 -10 -5 -13 -12 -9 -6 4 -8 3
-4 -4 8 -14 -23 -142 -36 -142 -5 0 -6 -5 -3 -10 4 -6 -3 -43 -15 -83 -12 -40
-24 -83 -27 -96 -2 -14 -6 -28 -8 -32 -3 -4 2 -9 10 -13 8 -3 15 -1 15 4 0 6
5 10 12 10 6 0 31 9 55 21 37 18 46 19 61 8 14 -11 15 -11 5 1 -10 11 -5 17
30 33 23 11 47 21 52 23 32 9 81 30 86 38 4 5 11 6 17 2 6 -3 12 -3 14 1 1 5
39 23 83 42 44 18 94 39 110 47 17 7 58 26 92 41 52 22 63 32 69 56 5 23 8 26
16 16 7 -10 8 -8 3 8 -7 24 14 115 24 108 4 -2 7 4 7 13 0 47 5 73 12 68 4 -2
14 0 22 6 12 8 12 9 -2 4 -23 -7 -23 10 -2 60 9 22 16 41 15 44 0 3 2 19 5 37
4 24 10 30 22 26 14 -4 14 -3 3 5 -9 6 -11 16 -6 28 4 11 9 26 10 34 1 8 10
42 19 75 9 33 18 67 20 75 3 8 14 50 25 92 12 43 21 79 21 80 0 2 32 3 71 4
l71 0 -6 -29 c-3 -16 -6 -34 -6 -39 0 -5 -4 -7 -9 -4 -5 4 -7 -4 -3 -16 3 -11
1 -19 -4 -16 -5 4 -10 -12 -11 -34 -1 -33 6 -50 43 -100 40 -55 56 -86 37 -75
-5 3 -9 -7 -10 -21 -3 -52 -15 -92 -26 -85 -6 3 -7 1 -3 -6 12 -18 -2 -63 -17
-55 -9 5 -9 4 -1 -5 8 -8 9 -22 3 -39 -25 -79 -39 -132 -39 -146 0 -9 -8 -16
-17 -16 -14 0 -15 -2 -5 -9 13 -8 8 -55 -9 -76 -8 -11 -9 -15 -9 -46 0 -11 -3
-18 -7 -16 -5 3 -9 -7 -9 -21 -3 -44 -26 -126 -38 -134 -7 -5 -7 -8 3 -8 9 0
10 -4 4 -12 -6 -7 -13 -30 -17 -50 -4 -21 -12 -38 -19 -38 -9 0 -8 -3 1 -9 8
-5 31 1 59 16 26 12 52 23 59 23 16 0 24 13 36 59 5 20 11 45 14 56 25 104 71
255 76 250 3 -3 3 6 0 21 -3 18 -1 25 6 20 6 -3 14 -1 18 5 5 8 3 9 -6 4 -10
-6 -12 -2 -6 16 4 13 9 34 12 46 2 12 9 34 14 48 5 14 7 25 4 25 -2 0 0 8 5
19 6 10 13 32 16 49 3 16 14 59 25 94 11 34 20 71 20 81 0 11 4 15 12 11 7 -5
8 -3 3 6 -6 10 11 92 33 150 8 22 9 28 11 46 0 8 5 13 9 10 5 -3 7 8 4 23 -3
22 0 28 15 28 10 0 24 -5 32 -11 11 -8 13 -8 7 2 -4 7 -2 12 4 12 7 0 10 -6 7
-14 -3 -8 -9 -31 -13 -50 -3 -20 -10 -39 -15 -42 -5 -3 -7 -10 -4 -15 4 -5 1
-9 -5 -9 -6 0 -9 -4 -6 -8 5 -9 -49 -226 -62 -246 -3 -6 -5 -19 -3 -30 1 -10
-1 -16 -6 -13 -4 3 -9 -5 -9 -16 -2 -29 -14 -78 -21 -91 -4 -6 -8 -19 -9 -31
-1 -11 -19 -78 -39 -150 -20 -71 -38 -137 -40 -145 -9 -42 -28 -106 -33 -115
-18 -29 0 -60 22 -37 4 4 11 7 14 8 4 0 21 6 37 14 17 7 44 18 60 25 17 7 52
23 78 35 27 12 55 19 63 16 8 -3 13 -1 11 5 -2 12 110 62 122 54 5 -3 11 1 14
9 3 8 18 17 34 20 26 6 30 14 51 94 13 48 27 103 33 122 5 19 12 42 14 50 2 8
4 16 5 18 4 4 7 22 9 43 1 12 5 17 13 13 7 -4 8 -3 4 4 -6 10 6 75 21 112 9
22 10 28 12 51 0 11 4 18 9 16 4 -3 7 5 8 16 1 29 10 66 24 102 6 17 11 31 10
33 -4 7 24 112 30 112 15 0 6 37 -17 68 -13 17 -21 37 -18 42 3 6 0 10 -7 10
-14 1 -85 99 -81 112 2 4 -1 8 -6 8 -4 0 -21 18 -36 40 -28 40 -42 44 -85 27
-8 -3 -31 -10 -50 -16 -19 -5 -54 -17 -78 -26 -24 -8 -49 -12 -55 -9 -7 4 -9
4 -5 -1 10 -10 -130 -57 -144 -49 -7 5 -8 2 -3 -6 6 -10 1 -12 -18 -8 -15 3
-24 2 -22 -2 6 -9 -55 -33 -63 -25 -3 2 -17 -2 -31 -10 -24 -13 -58 -25 -123
-45 -22 -7 -26 -5 -23 8 3 18 40 151 50 183 5 16 1 19 -28 19 -33 0 -34 -2
-52 -62 -54 -194 -48 -180 -93 -193 -22 -7 -43 -10 -46 -8 -2 3 2 22 9 44 15
41 15 42 15 60 0 5 3 8 8 6 4 -3 8 15 9 40 1 25 7 51 14 59 6 8 8 14 5 14 -4
0 -2 9 4 19 15 29 2 30 -74 5z"/>
<path d="M9073 7932 c-29 -2 -53 -8 -53 -13 0 -6 -3 -8 -7 -6 -5 3 -9 -5 -9
-16 -3 -32 -14 -87 -25 -114 -12 -33 -11 -39 3 -25 15 15 31 16 22 0 -5 -7 -3
-8 7 -2 22 13 129 14 129 1 0 -8 3 -9 8 -2 10 16 124 14 118 -1 -3 -7 -8 -29
-12 -48 -3 -20 -9 -34 -13 -31 -4 2 -7 -6 -7 -18 1 -22 1 -22 -229 -25 l-231
-2 -13 -58 c-30 -133 -66 -248 -80 -259 -11 -10 -11 -13 -2 -13 9 0 11 -6 6
-17 -4 -10 -9 -29 -11 -43 -3 -14 -9 -27 -15 -28 -5 -2 -7 -7 -5 -11 3 -4 -4
-41 -15 -82 -11 -40 -23 -85 -25 -99 -3 -14 -9 -26 -14 -28 -5 -2 -7 -9 -4
-16 3 -7 -1 -26 -7 -42 -7 -16 -12 -32 -11 -35 0 -3 -3 -21 -7 -41 -8 -32 -7
-35 12 -30 13 3 18 1 13 -6 -4 -8 -2 -10 7 -6 8 3 18 0 22 -5 3 -6 11 -9 16
-6 5 4 9 1 9 -5 0 -6 4 -9 8 -6 5 3 19 -1 33 -7 13 -7 74 -32 136 -56 62 -24
110 -48 107 -52 -3 -5 1 -6 9 -4 15 6 100 -29 92 -37 -3 -3 6 -5 20 -5 15 0
36 -5 48 -11 36 -17 89 -39 137 -58 25 -10 48 -22 51 -26 5 -8 363 168 397
194 6 6 12 7 12 4 0 -4 13 2 29 13 15 11 31 18 35 14 3 -3 6 -1 6 5 0 10 25
23 44 21 5 0 12 3 15 9 3 5 14 13 23 18 16 9 16 11 -3 22 -12 8 -18 9 -14 3 4
-7 -5 -11 -25 -11 -22 0 -29 4 -24 13 6 9 4 9 -7 1 -16 -13 -147 -13 -168 0
-9 6 -12 5 -8 0 3 -6 -42 -10 -114 -9 -65 0 -119 4 -119 8 0 4 -8 4 -17 -1
-15 -6 -63 -7 -118 -1 -5 1 -17 0 -25 -2 -11 -3 -14 3 -12 26 2 16 7 32 10 35
4 3 8 14 9 25 1 11 7 44 14 73 l12 52 46 0 c556 4 676 6 676 15 1 10 5 28 26
107 l10 37 62 3 62 3 9 43 c5 23 13 42 18 42 5 0 6 4 3 10 -3 5 2 35 11 67 10
32 19 65 20 73 2 8 7 16 12 18 5 1 7 14 4 27 -2 14 0 25 4 25 5 0 10 14 11 31
1 17 9 43 17 59 17 35 13 40 -35 40 -29 0 -40 6 -55 28 -10 15 -52 69 -93 121
-42 51 -83 104 -92 117 -9 13 -18 22 -21 19 -4 -5 -45 -6 -168 -4 -8 0 -76 0
-150 -1 -74 0 -139 0 -145 1 -5 1 -13 1 -17 0 -14 -2 -233 -1 -283 2 -27 1
-74 1 -102 -1z m445 -474 c19 -28 30 -53 26 -60 -4 -7 -9 -24 -11 -39 -1 -16
-9 -47 -18 -71 -8 -24 -15 -50 -15 -58 0 -13 -18 -16 -105 -16 -58 0 -105 2
-105 6 0 3 5 11 12 18 7 7 9 12 6 12 -4 0 0 24 9 53 17 56 16 54 28 110 4 20
11 37 15 37 4 0 8 6 7 13 -1 39 4 58 15 51 7 -4 8 -3 4 4 -4 6 -2 30 4 52 l11
41 42 -53 c23 -29 57 -74 75 -100z"/>
<path d="M1386 7922 c-3 -5 1 -9 9 -9 8 0 12 4 9 9 -3 4 -7 8 -9 8 -2 0 -6 -4
-9 -8z"/>
<path d="M2457 7917 c2 -4 -8 -12 -24 -17 -15 -6 -35 -13 -43 -17 -8 -3 -17
-7 -20 -8 -14 -5 -70 -27 -103 -42 -21 -9 -44 -16 -52 -16 -8 0 -15 -5 -15
-10 0 -5 -12 -6 -27 -3 -21 5 -24 4 -13 -4 10 -7 11 -10 3 -11 -23 -3 -28 -4
-40 -12 -21 -13 -147 -59 -165 -60 -9 -1 -14 -5 -12 -9 4 -6 -21 -16 -56 -23
-3 -1 -23 -10 -45 -20 -22 -10 -44 -17 -48 -16 -5 1 -6 -3 -3 -8 3 -5 -4 -40
-16 -78 -23 -71 -24 -77 -26 -106 -1 -10 -6 -15 -12 -12 -5 3 -7 0 -4 -8 3 -8
0 -35 -7 -58 -7 -24 -14 -53 -16 -64 -2 -11 -8 -22 -13 -23 -6 -2 -8 -7 -5
-11 2 -5 0 -23 -6 -42 -6 -19 -13 -47 -16 -64 -3 -16 -10 -36 -15 -42 -6 -7
-8 -13 -5 -13 3 0 1 -15 -4 -32 -15 -48 -16 -54 -40 -150 -12 -48 -26 -85 -30
-82 -5 3 -6 -1 -3 -9 2 -7 30 -22 61 -31 41 -13 52 -20 42 -27 -9 -7 -4 -7 15
-3 20 5 27 4 22 -4 -4 -8 -2 -10 8 -6 8 3 24 0 36 -6 12 -6 29 -13 38 -15 9
-2 49 -16 87 -30 39 -15 78 -29 87 -32 10 -3 16 -8 14 -12 -2 -3 8 -7 22 -7
15 -1 45 -10 67 -20 22 -10 45 -18 50 -20 6 -1 48 -16 95 -34 47 -17 102 -38
123 -46 42 -16 78 -18 93 -6 21 19 274 113 285 106 7 -4 9 -3 6 3 -8 12 201
95 216 86 6 -3 7 -1 3 5 -7 11 7 16 41 15 7 -1 10 3 7 8 -3 5 1 9 9 9 8 0 28
7 46 16 26 13 35 14 49 3 14 -11 15 -11 5 1 -7 8 -9 19 -4 29 5 9 9 21 10 26
2 30 26 105 33 105 5 0 7 4 3 9 -9 15 27 131 38 124 6 -3 7 -1 3 6 -9 14 14
121 26 121 5 0 7 4 3 9 -7 12 17 101 26 95 4 -2 5 6 1 18 -4 16 -2 19 8 13 9
-5 11 -4 6 3 -10 17 4 83 17 75 6 -3 7 -1 3 6 -4 6 -2 19 6 28 11 14 11 16 0
9 -11 -7 -12 -4 -4 10 5 11 13 38 17 62 4 23 10 40 13 38 4 -2 7 7 7 20 0 21
-9 27 -67 45 -40 13 -65 26 -61 32 3 5 2 7 -4 4 -15 -9 -134 34 -126 46 3 6 1
7 -6 3 -10 -7 -45 4 -146 44 -132 52 -174 63 -160 40 3 -5 2 -10 -3 -10 -5 0
-9 -7 -9 -15 0 -25 -26 -125 -32 -125 -4 0 -7 -8 -7 -17 0 -23 -46 -196 -53
-203 -3 -3 -7 -18 -8 -35 -1 -16 -7 -31 -12 -33 -5 -2 -6 -12 -3 -24 3 -12 1
-19 -4 -15 -6 3 -10 -4 -10 -16 1 -28 -26 -127 -33 -127 -3 0 -7 -14 -7 -32
-1 -18 -6 -34 -12 -36 -5 -1 -7 -12 -4 -24 4 -16 2 -19 -8 -13 -8 5 -11 4 -7
-2 8 -13 -3 -74 -12 -69 -3 2 -6 -6 -7 -17 -1 -24 -5 -39 -23 -107 -20 -76
-21 -77 -31 -60 -6 8 -10 10 -10 4 0 -12 -149 -12 -169 0 -6 4 -11 2 -11 -4 0
-6 -5 -8 -12 -3 -7 4 -21 6 -31 5 -18 -3 -18 7 -2 63 4 14 -1 24 -15 33 -11 7
-20 8 -20 4 0 -4 -27 -8 -60 -8 l-60 1 4 31 c11 66 9 65 121 63 57 -1 108 2
113 5 6 3 13 2 17 -4 10 -16 42 6 49 35 5 20 12 25 40 25 26 0 35 6 45 26 13
28 11 34 -11 38 -7 1 -19 6 -27 10 -10 6 -12 5 -7 -2 4 -7 1 -12 -8 -12 -8 0
-17 -13 -21 -30 -6 -29 -9 -30 -53 -27 -47 3 -47 4 -44 37 1 19 6 37 10 40 4
3 7 11 8 18 1 6 2 21 3 33 0 12 5 17 13 13 7 -4 8 -3 4 4 -7 11 41 212 53 222
3 3 7 16 9 30 1 13 8 28 15 32 8 5 9 8 0 8 -6 0 -9 9 -6 20 5 17 8 18 22 8 14
-11 14 -11 3 4 -8 10 -10 26 -6 43 l7 27 111 -4 111 -4 1 30 c1 17 9 56 18 86
9 30 18 63 21 73 2 10 7 26 10 36 3 11 -1 17 -13 18 -29 1 -122 39 -115 47 4
4 0 4 -10 0 -9 -3 -17 -2 -17 3 0 4 -20 8 -44 8 -24 0 -42 -3 -39 -8z"/>
<path d="M7146 7918 c3 -5 10 -6 15 -3 13 9 11 12 -6 12 -8 0 -12 -4 -9 -9z"/>
<path d="M7675 7921 c-3 -5 -2 -12 3 -15 5 -3 9 1 9 9 0 17 -3 19 -12 6z"/>
<path d="M4275 7881 c-3 -5 -2 -12 3 -15 5 -3 9 1 9 9 0 17 -3 19 -12 6z"/>
<path d="M3065 7840 c-3 -6 1 -7 9 -4 18 7 21 14 7 14 -6 0 -13 -4 -16 -10z"/>
<path d="M4276 7795 c-9 -26 -7 -32 5 -12 6 10 9 21 6 23 -2 3 -7 -2 -11 -11z"/>
<path d="M6030 7800 c0 -5 5 -10 11 -10 5 0 7 5 4 10 -3 6 -8 10 -11 10 -2 0
-4 -4 -4 -10z"/>
<path d="M4116 7767 c3 -10 9 -15 12 -12 3 3 0 11 -7 18 -10 9 -11 8 -5 -6z"/>
<path d="M7590 7720 c0 -5 5 -10 11 -10 5 0 7 5 4 10 -3 6 -8 10 -11 10 -2 0
-4 -4 -4 -10z"/>
<path d="M7036 7693 c-6 -14 -5 -15 5 -6 7 7 10 15 7 18 -3 3 -9 -2 -12 -12z"/>
<path d="M5275 7691 c-3 -5 -2 -12 3 -15 5 -3 9 1 9 9 0 17 -3 19 -12 6z"/>
<path d="M8950 7680 c0 -5 5 -10 11 -10 5 0 7 5 4 10 -3 6 -8 10 -11 10 -2 0
-4 -4 -4 -10z"/>
<path d="M5115 7640 c3 -5 8 -10 11 -10 2 0 4 5 4 10 0 6 -5 10 -11 10 -5 0
-7 -4 -4 -10z"/>
<path d="M1513 7565 c0 -8 4 -12 9 -9 5 3 6 10 3 15 -9 13 -12 11 -12 -6z"/>
<path d="M5085 7560 c-3 -6 1 -7 9 -4 18 7 21 14 7 14 -6 0 -13 -4 -16 -10z"/>
<path d="M1436 7527 c3 -10 9 -15 12 -12 3 3 0 11 -7 18 -10 9 -11 8 -5 -6z"/>
<path d="M990 7519 c0 -5 5 -7 10 -4 6 3 10 8 10 11 0 2 -4 4 -10 4 -5 0 -10
-5 -10 -11z"/>
<path d="M1675 7520 c3 -5 8 -10 11 -10 2 0 4 5 4 10 0 6 -5 10 -11 10 -5 0
-7 -4 -4 -10z"/>
<path d="M6995 7520 c3 -5 8 -10 11 -10 2 0 4 5 4 10 0 6 -5 10 -11 10 -5 0
-7 -4 -4 -10z"/>
<path d="M4190 7486 c0 -2 7 -7 16 -10 8 -3 12 -2 9 4 -6 10 -25 14 -25 6z"/>
<path d="M7666 7462 c-3 -5 1 -9 9 -9 8 0 12 4 9 9 -3 4 -7 8 -9 8 -2 0 -6 -4
-9 -8z"/>
<path d="M11644 7213 l1 -218 73 -2 c66 -2 72 0 72 18 0 50 45 101 105 122
l40 14 -2 59 c-1 32 -2 64 -2 69 -1 6 -10 11 -22 12 -50 4 -119 77 -119 127 0
13 -13 16 -74 16 l-74 0 2 -217z"/>
<path d="M7676 7327 c3 -10 9 -15 12 -12 3 3 0 11 -7 18 -10 9 -11 8 -5 -6z"/>
<path d="M990 7200 c0 -5 5 -10 11 -10 5 0 7 5 4 10 -3 6 -8 10 -11 10 -2 0
-4 -4 -4 -10z"/>
<path d="M4270 7206 c0 -2 7 -7 16 -10 8 -3 12 -2 9 4 -6 10 -25 14 -25 6z"/>
<path d="M5066 7202 c-3 -5 1 -9 9 -9 8 0 12 4 9 9 -3 4 -7 8 -9 8 -2 0 -6 -4
-9 -8z"/>
<path d="M4995 7161 c-3 -5 -2 -12 3 -15 5 -3 9 1 9 9 0 17 -3 19 -12 6z"/>
<path d="M7716 7042 c-3 -5 1 -9 9 -9 8 0 12 4 9 9 -3 4 -7 8 -9 8 -2 0 -6 -4
-9 -8z"/>
<path d="M3196 6993 c-6 -14 -5 -15 5 -6 7 7 10 15 7 18 -3 3 -9 -2 -12 -12z"/>
<path d="M4106 6962 c-3 -5 1 -9 9 -9 8 0 12 4 9 9 -3 4 -7 8 -9 8 -2 0 -6 -4
-9 -8z"/>
<path d="M11645 6836 c-2 -6 -3 -103 -2 -216 l2 -205 73 -3 c59 -2 72 0 72 12
0 51 70 126 118 126 12 0 22 3 23 8 0 4 1 36 2 71 l2 64 -41 14 c-50 17 -81
48 -99 100 l-13 38 -67 1 c-40 0 -68 -3 -70 -10z"/>
<path d="M5707 6799 c7 -7 15 -10 18 -7 3 3 -2 9 -12 12 -14 6 -15 5 -6 -5z"/>
<path d="M9746 6718 c3 -5 10 -6 15 -3 13 9 11 12 -6 12 -8 0 -12 -4 -9 -9z"/>
<path d="M9910 6680 c0 -5 5 -10 11 -10 5 0 7 5 4 10 -3 6 -8 10 -11 10 -2 0
-4 -4 -4 -10z"/>
<path d="M6595 6640 c3 -5 8 -10 11 -10 2 0 4 5 4 10 0 6 -5 10 -11 10 -5 0
-7 -4 -4 -10z"/>
<path d="M2635 6611 c-3 -5 -2 -12 3 -15 5 -3 9 1 9 9 0 17 -3 19 -12 6z"/>
<path d="M3595 6611 c-3 -5 -2 -12 3 -15 5 -3 9 1 9 9 0 17 -3 19 -12 6z"/>
<path d="M6436 6607 c3 -10 9 -15 12 -12 3 3 0 11 -7 18 -10 9 -11 8 -5 -6z"/>
<path d="M8630 6601 c0 -6 4 -13 10 -16 6 -3 7 1 4 9 -7 18 -14 21 -14 7z"/>
<path d="M9590 6600 c0 -5 5 -10 11 -10 5 0 7 5 4 10 -3 6 -8 10 -11 10 -2 0
-4 -4 -4 -10z"/>
<path d="M5340 6580 c-9 -6 -10 -10 -3 -10 6 0 15 5 18 10 8 12 4 12 -15 0z"/>
<path d="M4105 6560 c-3 -6 1 -7 9 -4 18 7 21 14 7 14 -6 0 -13 -4 -16 -10z"/>
<path d="M6230 6521 c0 -6 4 -13 10 -16 6 -3 7 1 4 9 -7 18 -14 21 -14 7z"/>
<path d="M1156 6482 c-3 -5 1 -9 9 -9 8 0 12 4 9 9 -3 4 -7 8 -9 8 -2 0 -6 -4
-9 -8z"/>
<path d="M1866 6482 c-3 -5 1 -9 9 -9 8 0 12 4 9 9 -3 4 -7 8 -9 8 -2 0 -6 -4
-9 -8z"/>
<path d="M2596 6482 c-3 -5 1 -9 9 -9 8 0 12 4 9 9 -3 4 -7 8 -9 8 -2 0 -6 -4
-9 -8z"/>
<path d="M5066 6482 c-3 -5 1 -9 9 -9 8 0 12 4 9 9 -3 4 -7 8 -9 8 -2 0 -6 -4
-9 -8z"/>
<path d="M6986 6478 c3 -5 10 -6 15 -3 13 9 11 12 -6 12 -8 0 -12 -4 -9 -9z"/>
<path d="M5796 6402 c-3 -5 1 -9 9 -9 8 0 12 4 9 9 -3 4 -7 8 -9 8 -2 0 -6 -4
-9 -8z"/>
<path d="M8956 6367 c3 -10 9 -15 12 -12 3 3 0 11 -7 18 -10 9 -11 8 -5 -6z"/>
<path d="M1033 6355 c0 -8 4 -12 9 -9 5 3 6 10 3 15 -9 13 -12 11 -12 -6z"/>
<path d="M9590 6360 c0 -5 5 -10 11 -10 5 0 7 5 4 10 -3 6 -8 10 -11 10 -2 0
-4 -4 -4 -10z"/>
<path d="M9675 6361 c-3 -5 -2 -12 3 -15 5 -3 9 1 9 9 0 17 -3 19 -12 6z"/>
<path d="M5156 6322 c-3 -5 1 -9 9 -9 8 0 12 4 9 9 -3 4 -7 8 -9 8 -2 0 -6 -4
-9 -8z"/>
<path d="M5476 6322 c-3 -5 1 -9 9 -9 8 0 12 4 9 9 -3 4 -7 8 -9 8 -2 0 -6 -4
-9 -8z"/>
<path d="M7030 6320 c0 -5 5 -10 11 -10 5 0 7 5 4 10 -3 6 -8 10 -11 10 -2 0
-4 -4 -4 -10z"/>
<path d="M7146 6322 c-3 -5 1 -9 9 -9 8 0 12 4 9 9 -3 4 -7 8 -9 8 -2 0 -6 -4
-9 -8z"/>
<path d="M8586 6318 c3 -5 10 -6 15 -3 13 9 11 12 -6 12 -8 0 -12 -4 -9 -9z"/>
<path d="M11644 6043 l1 -218 71 -2 70 -2 12 44 c12 47 55 88 105 100 15 4 27
10 28 14 1 3 2 34 3 67 l2 62 -40 12 c-49 15 -93 60 -102 106 l-6 34 -73 0
-72 0 1 -217z"/>
<path d="M1710 6239 c0 -5 5 -7 10 -4 6 3 10 8 10 11 0 2 -4 4 -10 4 -5 0 -10
-5 -10 -11z"/>
<path d="M2390 6241 c0 -6 4 -13 10 -16 6 -3 7 1 4 9 -7 18 -14 21 -14 7z"/>
<path d="M4670 6239 c0 -5 5 -7 10 -4 6 3 10 8 10 11 0 2 -4 4 -10 4 -5 0 -10
-5 -10 -11z"/>
<path d="M7950 6246 c0 -2 7 -7 16 -10 8 -3 12 -2 9 4 -6 10 -25 14 -25 6z"/>
<path d="M8195 6240 c3 -5 8 -10 11 -10 2 0 4 5 4 10 0 6 -5 10 -11 10 -5 0
-7 -4 -4 -10z"/>
<path d="M2315 6201 c-3 -5 -2 -12 3 -15 5 -3 9 1 9 9 0 17 -3 19 -12 6z"/>
<path d="M7626 6082 c-3 -5 1 -9 9 -9 8 0 12 4 9 9 -3 4 -7 8 -9 8 -2 0 -6 -4
-9 -8z"/>
<path d="M5753 5995 c0 -8 4 -12 9 -9 5 3 6 10 3 15 -9 13 -12 11 -12 -6z"/>
<path d="M7670 6001 c0 -6 4 -13 10 -16 6 -3 7 1 4 9 -7 18 -14 21 -14 7z"/>
<path d="M4635 5971 c-3 -5 -2 -12 3 -15 5 -3 9 1 9 9 0 17 -3 19 -12 6z"/>
<path d="M6315 5971 c-3 -5 -2 -12 3 -15 5 -3 9 1 9 9 0 17 -3 19 -12 6z"/>
<path d="M2230 5960 c0 -5 5 -10 11 -10 5 0 7 5 4 10 -3 6 -8 10 -11 10 -2 0
-4 -4 -4 -10z"/>
<path d="M5270 5919 c0 -5 5 -7 10 -4 6 3 10 8 10 11 0 2 -4 4 -10 4 -5 0 -10
-5 -10 -11z"/>
<path d="M8666 5922 c-3 -5 1 -9 9 -9 8 0 12 4 9 9 -3 4 -7 8 -9 8 -2 0 -6 -4
-9 -8z"/>
<path d="M9236 5918 c3 -5 10 -6 15 -3 13 9 11 12 -6 12 -8 0 -12 -4 -9 -9z"/>
<path d="M4594 5892 c6 -9 1 -11 -17 -8 -21 4 -26 0 -30 -22 -3 -15 -12 -52
-21 -82 -19 -62 -25 -84 -32 -119 -3 -14 -8 -29 -12 -35 -3 -6 -8 -22 -10 -36
-5 -39 -35 -139 -42 -135 -3 1 -6 -14 -6 -35 -1 -20 -8 -48 -15 -61 -7 -13
-12 -28 -11 -32 5 -16 -30 -127 -38 -122 -5 3 -6 -4 -3 -15 3 -11 0 -34 -7
-52 -6 -18 -14 -46 -17 -63 -3 -16 -8 -32 -11 -35 -4 -3 -8 -12 -8 -20 -4 -37
-16 -85 -42 -160 -3 -8 -6 -19 -7 -25 -6 -44 -18 -84 -25 -80 -4 2 -5 -7 -2
-20 2 -14 0 -25 -6 -25 -6 0 -8 -10 -4 -22 4 -16 2 -19 -8 -13 -8 5 -11 4 -7
-2 3 -5 2 -25 -3 -44 -33 -129 -58 -218 -66 -230 -4 -8 -9 -21 -9 -29 -1 -8
-2 -25 -3 -38 -1 -13 -5 -21 -9 -19 -5 3 -9 -7 -9 -21 -2 -25 -10 -67 -14 -67
-1 0 -3 -9 -4 -20 -2 -19 3 -20 136 -19 77 1 141 3 143 6 3 2 30 1 60 -2 31
-3 58 -4 60 -1 1 3 53 4 113 1 61 -3 109 -3 106 -1 -2 2 1 10 7 18 6 7 8 13 3
14 -5 0 -133 0 -284 0 l-275 0 48 20 c27 11 53 16 59 13 6 -4 8 -2 4 4 -3 6
13 17 41 28 27 10 54 22 61 27 7 5 15 7 18 4 4 -3 13 1 21 9 9 8 22 13 30 10
8 -3 11 -1 8 4 -5 9 8 12 31 9 4 0 10 4 14 11 4 6 13 12 21 13 8 2 20 6 27 10
6 5 12 6 12 3 0 -3 9 2 20 11 11 10 20 25 20 35 0 9 7 23 15 31 8 8 12 17 9
20 -3 2 0 26 7 52 10 38 15 46 30 42 11 -3 19 -2 19 2 0 4 14 5 31 3 26 -4 30
-8 25 -26 -3 -11 -6 -27 -6 -34 0 -7 -3 -11 -7 -9 -5 3 -9 -11 -10 -30 -1 -25
1 -32 10 -25 7 6 21 12 32 14 22 3 48 25 52 42 1 6 5 24 8 40 3 16 8 33 11 38
3 4 7 16 9 25 3 10 9 36 15 58 6 22 12 45 13 50 30 119 61 223 67 220 4 -2 5
7 2 22 -3 18 -1 24 6 19 8 -4 10 -2 6 7 -3 8 9 64 26 123 18 60 34 120 37 133
2 14 6 28 9 33 3 5 7 21 10 36 3 15 11 47 19 72 8 25 19 64 25 88 7 28 15 40
23 36 9 -5 9 -4 1 5 -12 13 44 234 58 225 4 -3 5 2 2 10 -3 8 2 35 10 60 9 26
16 52 16 59 0 9 -66 12 -282 11 -186 0 -288 3 -297 10 -11 8 -13 8 -7 -2z"/>
<path d="M7701 5895 c-1 -7 -103 -10 -297 -10 -287 0 -306 -1 -310 -30 -8 -51
-38 -154 -44 -150 -5 3 -6 -4 -3 -15 5 -19 0 -20 -106 -20 -88 0 -109 -3 -105
-13 3 -8 0 -26 -5 -40 l-11 -27 196 0 c183 0 195 -1 190 -18 -8 -24 -36 -132
-36 -137 0 -12 -187 -4 -200 8 -12 10 -12 9 -3 -3 12 -16 6 -70 -7 -70 -4 0
-8 -10 -8 -22 1 -24 -39 -174 -50 -192 -8 -15 -10 -46 -2 -46 4 0 5 -13 2 -30
-2 -17 -9 -27 -15 -23 -5 3 -7 1 -4 -4 9 -14 -3 -74 -13 -68 -5 3 -6 -5 -2
-17 5 -21 4 -22 -14 -8 -17 14 -18 14 -6 -2 14 -17 7 -88 -8 -88 -5 0 -6 -10
-2 -22 4 -16 2 -19 -8 -13 -8 5 -11 4 -7 -2 9 -14 -3 -74 -13 -68 -5 3 -6 -5
-2 -17 3 -13 1 -19 -5 -15 -6 4 -8 -3 -5 -18 2 -14 0 -25 -7 -25 -5 0 -8 -6
-6 -12 5 -15 -29 -141 -36 -134 -2 3 -4 -11 -4 -30 0 -31 6 -40 55 -74 30 -21
54 -43 53 -49 -2 -5 3 -8 10 -5 7 2 22 -5 34 -16 12 -11 27 -20 32 -20 6 0 14
-7 19 -16 5 -9 11 -15 13 -13 9 6 118 -74 113 -83 -3 -4 -2 -8 3 -7 25 4 45
-2 40 -14 -12 -31 56 -7 163 57 63 39 118 74 121 79 4 5 12 6 19 2 9 -5 11 -4
6 3 -4 7 -1 12 7 12 8 0 22 9 32 20 10 11 23 20 28 20 6 0 25 11 44 26 18 14
33 22 33 19 0 -3 6 -1 13 5 6 6 21 18 32 26 11 9 14 13 8 9 -7 -3 -13 -1 -13
6 0 10 -3 10 -12 1 -9 -9 -15 -9 -27 1 -9 8 -12 8 -8 1 9 -15 -65 -14 -75 1
-5 6 -8 6 -8 -1 0 -7 -21 -11 -55 -11 -47 1 -55 4 -55 20 0 10 3 16 8 14 4 -3
7 9 8 27 0 18 4 41 9 52 10 24 12 30 14 50 0 8 5 12 11 9 5 -3 7 0 4 9 -3 8
-1 30 5 49 7 19 14 43 16 53 2 10 21 80 41 154 20 74 38 153 39 175 1 22 11
72 23 110 11 39 26 93 33 122 7 29 16 50 19 48 4 -3 5 6 3 19 -5 23 -4 23 107
25 61 0 116 3 121 7 5 3 9 15 9 28 0 12 5 27 12 34 7 7 9 12 5 12 -3 0 0 18 8
40 l14 40 -115 0 c-105 0 -115 2 -110 18 3 9 8 29 12 44 3 16 11 25 17 21 6
-3 7 -1 3 5 -5 9 -1 34 19 112 2 8 4 19 4 23 1 5 4 6 9 4 4 -3 7 12 7 33 1 21
-2 37 -6 34 -4 -2 -10 2 -12 8 -3 7 -6 8 -6 3z"/>
<path d="M2875 5880 c3 -5 8 -10 11 -10 2 0 4 5 4 10 0 6 -5 10 -11 10 -5 0
-7 -4 -4 -10z"/>
<path d="M6116 5842 c-3 -5 1 -9 9 -9 8 0 12 4 9 9 -3 4 -7 8 -9 8 -2 0 -6 -4
-9 -8z"/>
<path d="M7030 5801 c0 -6 4 -13 10 -16 6 -3 7 1 4 9 -7 18 -14 21 -14 7z"/>
<path d="M6715 5769 c-4 -6 -5 -12 -2 -15 2 -3 7 2 10 11 7 17 1 20 -8 4z"/>
<path d="M6070 5766 c0 -2 7 -7 16 -10 8 -3 12 -2 9 4 -6 10 -25 14 -25 6z"/>
<path d="M8906 5758 c3 -5 10 -6 15 -3 13 9 11 12 -6 12 -8 0 -12 -4 -9 -9z"/>
<path d="M1513 5715 c0 -8 4 -12 9 -9 5 3 6 10 3 15 -9 13 -12 11 -12 -6z"/>
<path d="M7786 5682 c-3 -5 1 -9 9 -9 8 0 12 4 9 9 -3 4 -7 8 -9 8 -2 0 -6 -4
-9 -8z"/>
<path d="M1753 5595 c0 -8 4 -12 9 -9 5 3 6 10 3 15 -9 13 -12 11 -12 -6z"/>
<path d="M1990 5600 c0 -5 5 -10 11 -10 5 0 7 5 4 10 -3 6 -8 10 -11 10 -2 0
-4 -4 -4 -10z"/>
<path d="M2999 5593 c-13 -16 -12 -17 4 -4 9 7 17 15 17 17 0 8 -8 3 -21 -13z"/>
<path d="M6025 5600 c-3 -6 1 -7 9 -4 18 7 21 14 7 14 -6 0 -13 -4 -16 -10z"/>
<path d="M6270 5606 c0 -2 7 -7 16 -10 8 -3 12 -2 9 4 -6 10 -25 14 -25 6z"/>
<path d="M6426 5602 c-3 -5 1 -9 9 -9 8 0 12 4 9 9 -3 4 -7 8 -9 8 -2 0 -6 -4
-9 -8z"/>
<path d="M9760 5600 c-9 -6 -10 -10 -3 -10 6 0 15 5 18 10 8 12 4 12 -15 0z"/>
<path d="M10000 5600 c-9 -6 -10 -10 -3 -10 6 0 15 5 18 10 8 12 4 12 -15 0z"/>
<path d="M10225 5600 c-3 -6 1 -7 9 -4 18 7 21 14 7 14 -6 0 -13 -4 -16 -10z"/>
<path d="M3267 5583 c-2 -2 -15 -6 -28 -9 -33 -7 -41 -9 -64 -17 -52 -16 -159
-35 -169 -30 -5 4 -6 1 -3 -4 8 -12 -68 -27 -86 -17 -7 4 -8 3 -4 -1 8 -10
-212 -67 -225 -59 -5 3 -8 1 -8 -4 0 -5 -13 -12 -28 -15 -16 -3 -29 -12 -29
-19 0 -19 -55 -212 -62 -218 -3 -3 -6 -13 -7 -22 -2 -47 -5 -59 -11 -55 -5 3
-9 -16 -10 -42 l-2 -46 64 -40 c36 -22 65 -43 65 -47 0 -5 6 -8 14 -8 8 0 16
-3 18 -7 2 -5 29 -26 60 -47 50 -34 56 -41 45 -55 -11 -14 -10 -15 7 -1 15 11
20 12 23 3 3 -7 11 -13 19 -13 8 0 14 -4 14 -8 0 -5 12 -15 28 -23 15 -8 34
-21 42 -29 16 -16 36 -29 83 -56 22 -12 32 -13 42 -4 8 7 19 9 25 5 6 -4 9 -1
8 6 -2 7 5 15 16 17 13 3 16 0 11 -9 -5 -8 -4 -10 4 -5 6 4 9 12 6 17 -4 5 2
12 12 16 10 4 20 10 23 14 3 4 12 9 20 11 8 2 19 8 25 14 5 6 30 22 55 35 25
13 47 26 50 29 16 16 52 30 62 24 6 -4 8 -3 5 3 -6 10 32 43 49 43 8 0 -1 -45
-17 -85 -6 -16 -13 -43 -15 -58 -2 -16 -9 -37 -14 -48 -6 -10 -8 -19 -4 -19 3
0 1 -7 -6 -15 -7 -8 -9 -15 -5 -15 4 0 2 -7 -5 -15 -7 -8 -10 -15 -7 -15 3 0
0 -20 -7 -45 -15 -50 -18 -48 53 -46 24 0 51 -5 59 -12 10 -7 13 -8 9 -1 -5 9
20 12 88 12 57 1 95 -3 95 -9 0 -6 -4 -8 -9 -5 -5 4 -7 -2 -4 -13 5 -18 -11
-19 -511 -19 l-515 -1 8 22 c8 21 15 22 115 24 105 1 145 7 132 20 -3 3 1 17
10 31 9 13 12 22 6 18 -6 -4 -8 2 -5 14 3 11 10 17 17 13 7 -4 6 -1 -1 7 -8 9
-33 13 -73 11 -54 -2 -59 -1 -54 16 5 17 5 17 -6 1 -14 -22 -127 -27 -114 -5
6 9 5 9 -7 0 -8 -7 -54 -12 -113 -12 -105 -1 -116 -5 -116 -48 0 -13 -3 -23
-7 -23 -5 0 -9 -14 -9 -32 -1 -18 -6 -34 -12 -36 -13 -4 -3 -43 17 -63 29 -28
198 -213 219 -239 18 -22 26 -24 81 -22 48 2 60 -1 55 -10 -6 -10 -4 -10 7 -2
8 5 29 11 48 13 26 2 31 0 25 -11 -6 -10 -5 -11 7 -2 21 16 402 17 392 1 -3
-7 3 -3 15 7 12 11 22 16 22 12 0 -3 11 1 25 10 14 9 25 12 25 8 0 -5 4 -4 8
2 8 12 143 70 154 67 5 -2 8 2 8 7 0 6 6 10 13 10 8 0 41 14 75 30 34 17 64
30 66 30 3 0 26 10 53 22 26 12 50 22 53 23 12 4 63 26 105 45 25 12 51 18 57
14 7 -4 8 -3 4 4 -4 7 -1 12 8 12 17 0 32 24 40 61 14 70 19 89 25 89 3 0 7
11 8 25 4 46 6 55 15 55 5 0 7 4 4 8 -3 5 4 38 14 73 11 35 22 76 25 92 3 15
12 48 21 73 8 25 12 49 9 52 -7 7 -42 8 -375 13 -128 1 -198 6 -202 13 -5 8
-8 7 -8 -1 0 -7 -7 -13 -16 -13 -9 0 -12 5 -8 13 6 9 4 9 -7 1 -16 -12 -167
-13 -186 -1 -7 5 -13 5 -13 0 0 -7 -86 -9 -100 -3 -3 1 -9 2 -14 1 -5 -1 -6 5
-2 14 3 9 6 23 6 31 0 9 4 13 9 10 5 -3 8 0 8 7 -3 26 15 97 24 97 6 0 7 5 4
11 -4 5 -2 22 4 37 10 26 19 63 20 90 1 7 5 10 11 7 6 -3 7 1 4 9 -3 9 -3 24
1 34 5 9 9 22 10 28 4 15 35 125 41 142 5 15 5 15 139 -133 44 -48 79 -92 77
-97 -1 -5 2 -7 7 -4 5 4 14 -2 20 -11 9 -17 34 -18 320 -19 171 0 311 3 311 6
0 4 -9 15 -20 25 -12 10 -18 25 -15 32 2 8 1 12 -4 9 -8 -5 -102 88 -110 109
-2 6 -12 16 -23 23 -10 7 -15 18 -12 24 4 6 2 8 -3 5 -14 -9 -37 19 -27 34 4
7 3 9 -4 5 -6 -3 -17 0 -24 7 -11 11 -77 14 -335 14 -177 0 -324 -1 -326 -4z"/>
<path d="M5850 5545 c-58 -24 -112 -42 -120 -39 -8 3 -11 2 -7 -2 4 -4 -37
-25 -90 -46 -54 -21 -107 -42 -118 -47 -11 -5 -51 -21 -90 -36 -38 -15 -89
-36 -112 -46 -24 -11 -46 -19 -51 -19 -5 0 -21 -51 -37 -114 -16 -63 -32 -113
-35 -111 -3 2 -6 -6 -6 -18 0 -24 -2 -30 -44 -182 -15 -55 -35 -130 -45 -167
-9 -37 -20 -66 -24 -64 -3 2 -7 -14 -8 -35 0 -22 -6 -45 -12 -53 -6 -7 -8 -16
-4 -19 3 -4 2 -7 -3 -7 -5 0 -9 -11 -9 -24 0 -13 2 -24 5 -23 3 0 23 -7 45
-17 22 -9 52 -20 67 -23 16 -3 25 -10 21 -16 -3 -6 -1 -7 5 -3 6 4 28 -1 49
-10 21 -9 60 -22 86 -30 26 -8 45 -19 42 -24 -3 -4 4 -6 15 -3 11 3 20 1 20
-4 0 -5 7 -10 15 -10 30 0 94 -26 88 -36 -3 -6 -1 -7 5 -3 6 3 41 -5 79 -20
37 -14 78 -28 91 -31 12 -3 22 -13 22 -22 0 -13 2 -13 9 -3 6 10 14 11 27 4
27 -14 64 -29 101 -40 24 -8 36 -7 52 4 12 9 25 13 30 10 5 -4 11 -2 13 2 3 8
196 87 228 94 8 2 17 6 20 9 5 6 188 80 205 83 6 1 20 8 33 14 12 7 22 9 22 5
0 -4 5 -1 10 7 8 12 13 13 30 2 16 -10 20 -10 18 0 -2 7 11 20 29 28 21 10 34
25 38 43 6 24 9 26 23 15 14 -10 15 -10 5 2 -15 17 -17 54 -3 45 5 -3 7 0 4 9
-3 8 8 63 25 122 17 59 31 113 31 121 0 8 4 12 9 9 5 -4 7 3 4 14 -3 11 0 27
7 35 7 8 10 15 7 15 -4 0 0 18 8 40 8 22 12 40 10 40 -3 0 0 12 6 28 6 15 13
38 15 51 3 14 8 29 12 35 3 6 7 17 8 26 6 39 16 76 24 84 5 5 6 15 3 22 -3 8
-1 14 3 14 5 0 9 13 10 29 1 28 -4 33 -46 45 -63 18 -378 141 -375 147 3 4 -3
5 -14 2 -10 -3 -22 0 -25 6 -4 6 -18 11 -32 11 -13 0 -24 5 -24 10 0 6 -13 10
-29 10 -17 0 -29 -5 -28 -12 1 -34 -4 -52 -11 -41 -4 6 -7 -9 -8 -34 -1 -25
-5 -48 -10 -51 -5 -4 -10 -14 -11 -22 -2 -20 -7 -39 -33 -135 -12 -44 -28
-105 -36 -135 -8 -30 -17 -62 -21 -70 -9 -21 -10 -27 -12 -51 0 -11 -4 -18 -9
-16 -4 3 -8 -7 -9 -21 -1 -34 -9 -66 -21 -89 -5 -10 -7 -24 -4 -32 3 -9 0 -11
-8 -6 -8 5 -11 4 -6 -3 8 -14 -25 -142 -37 -142 -4 0 -6 -4 -3 -8 3 -5 0 -26
-6 -48 -15 -49 -15 -51 -17 -67 -1 -14 -141 -18 -141 -4 0 5 -6 5 -12 0 -20
-12 -38 -12 -64 -3 -13 5 -24 5 -26 0 -7 -21 -26 7 -21 32 3 15 8 26 12 24 4
-3 7 4 7 15 0 22 2 21 -91 23 -40 0 -70 5 -69 11 0 6 4 27 8 48 l8 38 87 -1
c196 -3 196 -3 197 26 2 32 5 35 43 36 51 2 68 60 18 62 -36 2 -46 -5 -50 -34
-3 -22 -9 -24 -55 -26 -29 -1 -52 1 -52 4 0 4 7 30 16 57 18 57 22 75 23 93 1
7 5 10 11 7 5 -3 7 0 4 9 -4 12 42 201 63 256 3 8 7 20 8 25 0 6 5 27 9 48 8
37 9 37 58 37 37 0 47 -3 42 -12 -5 -8 -1 -8 10 1 14 12 21 13 38 2 11 -7 17
-8 14 -2 -4 6 6 9 25 8 30 -2 32 0 54 66 13 37 21 67 19 67 -2 0 3 19 11 41 8
23 15 44 15 48 0 5 -23 17 -62 30 -4 1 -35 13 -70 27 -34 13 -62 24 -62 23 -1
0 -48 -20 -106 -44z"/>
<path d="M8511 5570 c-39 -10 -71 -15 -71 -12 0 4 -5 1 -12 -6 -9 -9 -15 -9
-25 0 -11 9 -13 8 -11 -1 2 -8 -4 -15 -12 -16 -8 -2 -28 -6 -45 -9 -16 -3 -45
-10 -63 -15 -18 -5 -35 -10 -37 -10 -3 -1 -6 -1 -7 -2 -8 -2 -45 -10 -58 -13
-8 -1 -35 -8 -59 -15 -23 -7 -50 -10 -58 -7 -8 3 -12 2 -9 -3 3 -5 -7 -11 -22
-14 -15 -3 -42 -8 -61 -12 -25 -5 -31 -3 -26 6 5 8 4 10 -4 5 -6 -4 -9 -11 -6
-16 3 -5 2 -11 -3 -14 -5 -3 -17 -39 -27 -81 -14 -57 -23 -74 -33 -70 -12 4
-12 2 -3 -9 9 -10 9 -24 -1 -59 -6 -25 -15 -44 -19 -41 -4 2 -5 -4 -2 -14 2
-11 -2 -35 -11 -55 -19 -47 -16 -50 137 -156 65 -44 123 -86 130 -91 7 -6 27
-20 46 -31 28 -17 32 -23 20 -31 -11 -8 -10 -9 4 -4 18 6 77 -30 105 -63 6 -8
12 -11 12 -6 0 4 9 0 20 -10 20 -18 22 -18 50 -1 17 9 35 14 42 10 7 -4 8 -3
4 4 -6 10 44 44 60 41 4 0 10 4 13 9 9 14 141 93 141 84 0 -4 4 -2 8 4 7 12
87 64 97 64 4 0 3 -10 0 -21 -4 -12 -8 -27 -9 -33 -7 -44 -41 -154 -46 -151
-4 2 -6 -6 -5 -18 2 -24 -23 -116 -35 -132 -6 -6 11 -9 47 -7 34 1 62 -3 71
-10 11 -9 13 -9 9 -1 -10 15 133 15 152 -1 12 -8 13 -8 7 2 -5 8 -1 12 12 12
15 0 18 -5 15 -23 l-5 -24 -512 -1 -513 -1 5 24 c5 28 12 31 31 13 10 -9 12
-9 7 -1 -5 9 19 12 96 11 l102 -1 17 51 c19 55 17 62 -17 62 -18 0 -22 4 -18
18 5 16 5 16 -5 0 -10 -14 -35 -16 -204 -16 -233 0 -220 0 -212 -12 3 -5 3
-16 -2 -22 -4 -7 -8 -19 -10 -27 -1 -8 -5 -26 -9 -40 -4 -14 -7 -29 -6 -33 1
-5 -2 -8 -7 -8 -16 0 -6 -35 17 -57 12 -12 22 -24 22 -27 0 -3 18 -23 40 -45
22 -22 40 -45 40 -51 0 -6 5 -8 10 -5 6 3 10 3 10 -2 0 -4 20 -30 45 -57 25
-26 42 -52 39 -57 -3 -5 0 -8 8 -7 7 2 12 -2 11 -8 -1 -6 22 -9 63 -8 48 2 63
0 57 -9 -5 -9 -3 -9 8 -1 8 5 29 11 48 13 26 2 31 0 25 -11 -6 -10 -5 -11 7
-2 21 16 402 17 392 1 -4 -7 0 -7 10 1 9 8 22 10 29 6 7 -4 10 -3 5 1 -4 5 39
28 95 53 57 24 117 50 133 57 96 43 128 54 137 48 6 -3 8 -1 5 4 -8 13 50 36
66 26 5 -3 7 -1 4 4 -6 9 39 28 52 23 2 -1 7 2 10 7 11 15 62 34 73 27 6 -4 8
-2 5 3 -4 6 16 19 46 30 l52 20 43 154 c24 85 45 161 47 169 2 8 8 27 13 41 6
15 8 30 4 34 -4 4 2 13 12 21 11 8 15 14 8 14 -8 0 -7 11 2 38 8 22 11 44 8
49 -4 6 -43 10 -87 11 -421 3 -491 6 -497 16 -5 8 -8 7 -8 -1 0 -7 -7 -13 -16
-13 -9 0 -12 5 -8 13 6 9 4 9 -7 2 -22 -17 -105 -13 -101 4 3 12 1 12 -13 1
-20 -17 -45 -22 -45 -9 0 5 -10 5 -24 -1 -15 -5 -27 -5 -35 3 -8 8 -11 8 -11
-2 0 -10 -3 -11 -14 -2 -11 9 -15 9 -18 0 -3 -9 -9 -9 -25 -1 -15 8 -19 18
-16 37 3 13 9 22 14 19 5 -3 7 1 4 8 -3 7 4 45 15 83 12 39 22 76 22 83 1 6 4
12 8 12 3 0 6 8 6 18 1 21 8 50 29 122 9 30 18 65 21 77 2 12 9 35 14 49 l11
27 19 -21 c11 -12 20 -26 20 -32 0 -5 8 -10 17 -10 9 0 14 -3 11 -6 -4 -3 14
-25 38 -50 26 -25 42 -49 38 -56 -4 -6 -3 -8 3 -5 13 8 66 -47 56 -57 -5 -4
-1 -6 7 -4 9 2 15 -4 14 -13 -1 -9 4 -17 10 -18 6 -1 154 -3 328 -4 l318 -3
-23 25 c-12 14 -41 46 -64 71 -23 25 -55 61 -71 80 -17 19 -48 54 -70 76 l-39
42 -311 -1 c-253 -1 -323 -4 -381 -17z"/>
<path d="M1833 5555 c0 -8 4 -12 9 -9 5 3 6 10 3 15 -9 13 -12 11 -12 -6z"/>
<path d="M9915 5561 c-3 -5 -2 -12 3 -15 5 -3 9 1 9 9 0 17 -3 19 -12 6z"/>
<path d="M8190 5519 c0 -5 5 -7 10 -4 6 3 10 8 10 11 0 2 -4 4 -10 4 -5 0 -10
-5 -10 -11z"/>
<path d="M8675 5440 c-3 -5 -1 -10 4 -10 6 0 11 5 11 10 0 6 -2 10 -4 10 -3 0
-8 -4 -11 -10z"/>
<path d="M3385 5400 c-3 -6 1 -7 9 -4 18 7 21 14 7 14 -6 0 -13 -4 -16 -10z"/>
<path d="M3396 5362 c-3 -5 1 -9 9 -9 8 0 12 4 9 9 -3 4 -7 8 -9 8 -2 0 -6 -4
-9 -8z"/>
<path d="M1915 5320 c-3 -5 -1 -10 4 -10 6 0 11 5 11 10 0 6 -2 10 -4 10 -3 0
-8 -4 -11 -10z"/>
<path d="M6747 5319 c7 -7 15 -10 18 -7 3 3 -2 9 -12 12 -14 6 -15 5 -6 -5z"/>
<path d="M9915 5320 c-3 -5 -1 -10 4 -10 6 0 11 5 11 10 0 6 -2 10 -4 10 -3 0
-8 -4 -11 -10z"/>
<path d="M4320 5280 c-9 -6 -10 -10 -3 -10 6 0 15 5 18 10 8 12 4 12 -15 0z"/>
<path d="M3530 5245 c0 -7 -50 -10 -140 -9 -122 1 -140 -1 -140 -15 0 -14 20
-16 157 -15 100 0 161 -4 165 -10 5 -7 8 -7 8 2 0 6 9 12 21 12 13 0 18 -4 13
-12 -5 -7 -3 -8 7 -2 20 12 69 12 69 -1 0 -5 4 -4 9 4 6 9 11 10 15 2 4 -6 13
-8 19 -4 21 13 58 13 50 0 -4 -7 0 -6 10 2 14 11 20 11 34 0 11 -10 14 -10 9
-1 -4 7 -2 12 8 12 8 0 18 -5 21 -10 5 -8 11 -7 21 1 11 9 14 8 14 -2 0 -9 3
-10 8 -4 10 14 153 15 145 1 -4 -6 1 -5 11 3 15 13 19 13 27 0 6 -10 9 -10 9
-2 0 9 12 11 38 8 28 -3 33 -2 22 6 -11 8 -12 12 -2 16 6 2 10 9 6 14 -3 5
-11 6 -17 2 -20 -12 -37 -12 -37 0 0 8 -3 8 -8 2 -9 -13 -42 -16 -42 -4 0 6
-8 6 -18 0 -13 -7 -23 -6 -32 2 -9 8 -11 8 -7 1 7 -13 -61 -12 -82 0 -6 4 -11
3 -11 -1 0 -5 -9 -9 -20 -10 -11 -1 -20 4 -20 10 0 8 -3 8 -8 2 -9 -13 -42
-16 -42 -4 0 6 -8 6 -18 0 -13 -7 -23 -6 -32 2 -9 8 -11 8 -7 1 5 -8 -5 -11
-34 -9 -22 1 -43 5 -46 8 -3 4 -15 1 -26 -4 -15 -8 -22 -8 -28 2 -5 8 -9 9 -9
4 0 -13 -73 -13 -82 0 -5 7 -8 6 -8 0z"/>
<path d="M8570 5243 c0 -6 -9 -10 -20 -8 -11 2 -19 -1 -17 -8 3 -19 20 -27 41
-21 14 5 16 3 10 -7 -6 -11 -4 -12 7 -4 22 16 73 20 64 4 -6 -9 -4 -10 6 -3
19 12 68 13 75 2 3 -4 11 -5 17 -1 20 12 107 12 100 -1 -3 -6 0 -6 8 2 17 15
43 16 33 0 -5 -7 -3 -8 7 -2 20 12 69 12 69 -1 0 -5 4 -4 9 4 6 9 11 10 15 2
4 -6 13 -8 19 -4 21 13 58 13 50 0 -4 -7 0 -6 10 2 14 11 20 11 34 0 11 -10
14 -10 9 -1 -4 7 -1 12 9 12 10 0 13 -5 9 -12 -5 -7 -3 -8 7 -2 19 12 68 13
75 2 3 -4 11 -5 17 -1 19 12 57 11 57 -1 0 -6 4 -5 9 3 6 9 11 10 15 2 4 -6
13 -8 19 -4 21 13 58 13 50 0 -4 -7 0 -6 10 2 9 7 17 10 17 7 0 -4 9 -2 21 4
29 16 7 43 -26 30 -15 -6 -27 -4 -35 3 -10 9 -11 9 -6 0 4 -8 -1 -11 -14 -10
-11 1 -20 6 -20 12 0 5 -4 4 -9 -4 -6 -9 -11 -10 -15 -2 -4 6 -13 8 -19 4 -17
-10 -59 -11 -79 -1 -10 5 -18 5 -18 0 0 -13 -34 -11 -42 2 -5 8 -8 7 -8 -2 0
-9 -5 -10 -17 -4 -10 5 -27 6 -38 2 -11 -4 -26 -3 -34 4 -11 8 -13 8 -8 -1 5
-8 0 -11 -13 -10 -11 1 -20 6 -20 12 0 6 -3 7 -8 0 -10 -14 -32 -17 -32 -5 0
6 -5 10 -11 10 -5 0 -8 -3 -6 -7 3 -5 -6 -9 -19 -9 -13 -1 -24 3 -24 10 0 7
-3 7 -8 1 -9 -13 -42 -16 -42 -4 0 6 -8 6 -18 0 -13 -7 -23 -6 -32 2 -9 8 -11
8 -7 1 7 -13 -61 -12 -82 0 -6 4 -11 3 -11 -1 0 -5 -9 -9 -20 -10 -11 -1 -20
4 -20 10 0 8 -3 8 -8 2 -4 -5 -23 -10 -42 -10 -19 0 -38 5 -42 10 -5 6 -8 6
-8 -2z"/>
<path d="M9866 5198 c3 -5 10 -6 15 -3 13 9 11 12 -6 12 -8 0 -12 -4 -9 -9z"/>
<path d="M1590 5119 c0 -5 5 -7 10 -4 6 3 10 8 10 11 0 2 -4 4 -10 4 -5 0 -10
-5 -10 -11z"/>
<path d="M2276 5118 c3 -5 10 -6 15 -3 13 9 11 12 -6 12 -8 0 -12 -4 -9 -9z"/>
<path d="M1916 5087 c3 -10 9 -15 12 -12 3 3 0 11 -7 18 -10 9 -11 8 -5 -6z"/>
<path d="M9595 5089 c-4 -6 -5 -12 -2 -15 2 -3 7 2 10 11 7 17 1 20 -8 4z"/>
<path d="M4100 5026 c0 -2 8 -10 18 -17 15 -13 16 -12 3 4 -13 16 -21 21 -21
13z"/>
<path d="M10073 4915 c0 -8 4 -12 9 -9 5 3 6 10 3 15 -9 13 -12 11 -12 -6z"/>
<path d="M10506 4882 c-3 -5 1 -9 9 -9 8 0 12 4 9 9 -3 4 -7 8 -9 8 -2 0 -6
-4 -9 -8z"/>
<path d="M6714 4806 c1 -8 5 -18 8 -22 4 -3 5 1 4 10 -1 8 -5 18 -8 22 -4 3
-5 -1 -4 -10z"/>
<path d="M7946 4798 c3 -5 10 -6 15 -3 13 9 11 12 -6 12 -8 0 -12 -4 -9 -9z"/>
<path d="M1916 4713 c-6 -14 -5 -15 5 -6 7 7 10 15 7 18 -3 3 -9 -2 -12 -12z"/>
<path d="M10596 4722 c-3 -5 1 -9 9 -9 8 0 12 4 9 9 -3 4 -7 8 -9 8 -2 0 -6
-4 -9 -8z"/>
<path d="M1590 4680 c0 -5 5 -10 11 -10 5 0 7 5 4 10 -3 6 -8 10 -11 10 -2 0
-4 -4 -4 -10z"/>
<path d="M9915 4681 c-3 -5 -2 -12 3 -15 5 -3 9 1 9 9 0 17 -3 19 -12 6z"/>
<path d="M2195 4640 c3 -5 8 -10 11 -10 2 0 4 5 4 10 0 6 -5 10 -11 10 -5 0
-7 -4 -4 -10z"/>
<path d="M2986 4642 c-3 -5 1 -9 9 -9 8 0 12 4 9 9 -3 4 -7 8 -9 8 -2 0 -6 -4
-9 -8z"/>
<path d="M8185 4600 c-3 -6 1 -7 9 -4 18 7 21 14 7 14 -6 0 -13 -4 -16 -10z"/>
<path d="M1956 4562 c-3 -5 1 -9 9 -9 8 0 12 4 9 9 -3 4 -7 8 -9 8 -2 0 -6 -4
-9 -8z"/>
<path d="M4875 4561 c-3 -5 -2 -12 3 -15 5 -3 9 1 9 9 0 17 -3 19 -12 6z"/>
<path d="M1910 4486 c0 -2 7 -7 16 -10 8 -3 12 -2 9 4 -6 10 -25 14 -25 6z"/>
<path d="M6745 4440 c-3 -6 1 -7 9 -4 18 7 21 14 7 14 -6 0 -13 -4 -16 -10z"/>
<path d="M10553 4365 c0 -8 4 -12 9 -9 5 3 6 10 3 15 -9 13 -12 11 -12 -6z"/>
<path d="M2469 4323 c-13 -16 -12 -17 4 -4 9 7 17 15 17 17 0 8 -8 3 -21 -13z"/>
<path d="M1870 4326 c0 -2 7 -7 16 -10 8 -3 12 -2 9 4 -6 10 -25 14 -25 6z"/>
<path d="M2110 4326 c0 -2 7 -7 16 -10 8 -3 12 -2 9 4 -6 10 -25 14 -25 6z"/>
<path d="M8910 4320 c0 -5 5 -10 11 -10 5 0 7 5 4 10 -3 6 -8 10 -11 10 -2 0
-4 -4 -4 -10z"/>
<path d="M10073 4275 c0 -8 4 -12 9 -9 5 3 6 10 3 15 -9 13 -12 11 -12 -6z"/>
<path d="M4315 4251 c-3 -5 -2 -12 3 -15 5 -3 9 1 9 9 0 17 -3 19 -12 6z"/>
<path d="M10510 4241 c0 -6 4 -13 10 -16 6 -3 7 1 4 9 -7 18 -14 21 -14 7z"/>
<path d="M1515 4211 c-3 -5 -2 -12 3 -15 5 -3 9 1 9 9 0 17 -3 19 -12 6z"/>
<path d="M5033 4205 c0 -8 4 -12 9 -9 5 3 6 10 3 15 -9 13 -12 11 -12 -6z"/>
<path d="M2975 4181 c-3 -5 -2 -12 3 -15 5 -3 9 1 9 9 0 17 -3 19 -12 6z"/>
<path d="M3096 4182 c-2 -4 -1 -14 4 -22 7 -11 9 -9 7 8 -1 24 -3 26 -11 14z"/>
<path d="M8256 4182 c-2 -4 -1 -14 4 -22 7 -11 9 -9 7 8 -1 24 -3 26 -11 14z"/>
<path d="M8375 4181 c-3 -5 -2 -12 3 -15 5 -3 9 1 9 9 0 17 -3 19 -12 6z"/>
<path d="M3355 4169 c-4 -6 -5 -12 -2 -15 2 -3 7 2 10 11 7 17 1 20 -8 4z"/>
<path d="M4080 4160 c-9 -6 -10 -10 -3 -10 6 0 15 5 18 10 8 12 4 12 -15 0z"/>
<path d="M6880 4160 c-9 -6 -10 -10 -3 -10 6 0 15 5 18 10 8 12 4 12 -15 0z"/>
<path d="M8310 4162 c0 -5 7 -9 15 -9 8 0 12 4 9 9 -3 4 -9 8 -15 8 -5 0 -9
-4 -9 -8z"/>
<path d="M7995 4129 c-4 -6 -5 -12 -2 -15 2 -3 7 2 10 11 7 17 1 20 -8 4z"/>
<path d="M1386 4078 c3 -5 10 -6 15 -3 13 9 11 12 -6 12 -8 0 -12 -4 -9 -9z"/>
<path d="M3306 4078 c3 -5 10 -6 15 -3 13 9 11 12 -6 12 -8 0 -12 -4 -9 -9z"/>
<path d="M9915 4041 c-3 -5 -2 -12 3 -15 5 -3 9 1 9 9 0 17 -3 19 -12 6z"/>
<path d="M6226 3998 c3 -5 10 -6 15 -3 13 9 11 12 -6 12 -8 0 -12 -4 -9 -9z"/>
<path d="M8996 4002 c-3 -5 1 -9 9 -9 8 0 12 4 9 9 -3 4 -7 8 -9 8 -2 0 -6 -4
-9 -8z"/>
<path d="M9235 4000 c-3 -5 -1 -10 4 -10 6 0 11 5 11 10 0 6 -2 10 -4 10 -3 0
-8 -4 -11 -10z"/>
<path d="M8393 3955 c0 -8 4 -12 9 -9 5 3 6 10 3 15 -9 13 -12 11 -12 -6z"/>
<path d="M9513 3955 c0 -8 4 -12 9 -9 5 3 6 10 3 15 -9 13 -12 11 -12 -6z"/>
<path d="M8956 3927 c3 -10 9 -15 12 -12 3 3 0 11 -7 18 -10 9 -11 8 -5 -6z"/>
<path d="M4553 3885 c0 -8 4 -12 9 -9 5 3 6 10 3 15 -9 13 -12 11 -12 -6z"/>
<path d="M5355 3801 c-3 -5 -2 -12 3 -15 5 -3 9 1 9 9 0 17 -3 19 -12 6z"/>
<path d="M1275 3769 c-4 -6 -5 -12 -2 -15 2 -3 7 2 10 11 7 17 1 20 -8 4z"/>
<path d="M990 3679 c0 -5 5 -7 10 -4 6 3 10 8 10 11 0 2 -4 4 -10 4 -5 0 -10
-5 -10 -11z"/>
<path d="M5996 3682 c-3 -5 1 -9 9 -9 8 0 12 4 9 9 -3 4 -7 8 -9 8 -2 0 -6 -4
-9 -8z"/>
<path d="M4633 3635 c0 -8 4 -12 9 -9 5 3 6 10 3 15 -9 13 -12 11 -12 -6z"/>
<path d="M2955 3571 c-3 -5 -2 -12 3 -15 5 -3 9 1 9 9 0 17 -3 19 -12 6z"/>
<path d="M1270 3521 c0 -6 4 -13 10 -16 6 -3 7 1 4 9 -7 18 -14 21 -14 7z"/>
<path d="M6666 3518 c3 -5 10 -6 15 -3 13 9 11 12 -6 12 -8 0 -12 -4 -9 -9z"/>
<path d="M7786 3438 c3 -5 10 -6 15 -3 13 9 11 12 -6 12 -8 0 -12 -4 -9 -9z"/>
<path d="M9035 3411 c-3 -5 -2 -12 3 -15 5 -3 9 1 9 9 0 17 -3 19 -12 6z"/>
<path d="M6070 3400 c0 -5 5 -10 11 -10 5 0 7 5 4 10 -3 6 -8 10 -11 10 -2 0
-4 -4 -4 -10z"/>
<path d="M990 3360 c0 -5 5 -10 11 -10 5 0 7 5 4 10 -3 6 -8 10 -11 10 -2 0
-4 -4 -4 -10z"/>
<path d="M3996 3353 c-6 -14 -5 -15 5 -6 7 7 10 15 7 18 -3 3 -9 -2 -12 -12z"/>
<path d="M9315 3360 c3 -5 8 -10 11 -10 2 0 4 5 4 10 0 6 -5 10 -11 10 -5 0
-7 -4 -4 -10z"/>
<path d="M9546 3358 c3 -5 10 -6 15 -3 13 9 11 12 -6 12 -8 0 -12 -4 -9 -9z"/>
<path d="M4073 3315 c0 -8 4 -12 9 -9 5 3 6 10 3 15 -9 13 -12 11 -12 -6z"/>
<path d="M6715 3320 c3 -5 8 -10 11 -10 2 0 4 5 4 10 0 6 -5 10 -11 10 -5 0
-7 -4 -4 -10z"/>
<path d="M1796 3282 c-3 -5 1 -9 9 -9 8 0 12 4 9 9 -3 4 -7 8 -9 8 -2 0 -6 -4
-9 -8z"/>
<path d="M9550 3281 c0 -6 4 -13 10 -16 6 -3 7 1 4 9 -7 18 -14 21 -14 7z"/>
<path d="M1673 3155 c0 -8 4 -12 9 -9 5 3 6 10 3 15 -9 13 -12 11 -12 -6z"/>
<path d="M7675 3129 c-4 -6 -5 -12 -2 -15 2 -3 7 2 10 11 7 17 1 20 -8 4z"/>
<path d="M6633 3085 c0 -8 4 -12 9 -9 5 3 6 10 3 15 -9 13 -12 11 -12 -6z"/>
<path d="M6955 3091 c-3 -5 -2 -12 3 -15 5 -3 9 1 9 9 0 17 -3 19 -12 6z"/>
<path d="M3745 3040 c-3 -6 1 -7 9 -4 18 7 21 14 7 14 -6 0 -13 -4 -16 -10z"/>
<path d="M7150 3039 c0 -5 5 -7 10 -4 6 3 10 8 10 11 0 2 -4 4 -10 4 -5 0 -10
-5 -10 -11z"/>
<path d="M7386 3038 c3 -5 10 -6 15 -3 13 9 11 12 -6 12 -8 0 -12 -4 -9 -9z"/>
</g>
</svg>
