<svg width="80" height="80" viewBox="0 0 80 80" fill="none" xmlns="http://www.w3.org/2000/svg">
<path d="M6.40186 55.2868C6.40186 60.0903 10.295 63.9834 15.0985 63.9834C19.9013 63.9834 23.7951 60.0903 23.7951 55.2868C23.7951 50.484 19.9019 46.5902 15.0985 46.5902C10.295 46.5896 6.40186 50.4834 6.40186 55.2868ZM21.2238 55.2868C21.2238 58.6647 18.4764 61.4122 15.0985 61.4122C11.7205 61.4122 8.97311 58.6647 8.97311 55.2868C8.97311 51.9089 11.7205 49.1615 15.0985 49.1615C18.4751 49.1615 21.2238 51.9089 21.2238 55.2868Z" fill="#3DA806"/>
<path d="M2.57181 78.5008C2.57181 73.6603 6.51019 69.7206 11.3521 69.7206H18.8445C23.6864 69.7206 27.6248 73.659 27.6248 78.5008H30.196C30.196 72.2415 25.1037 67.1486 18.8438 67.1486H11.3513C5.09259 67.1486 0.000244141 72.2409 0.000244141 78.5008H2.57181Z" fill="#3DA806"/>
<path d="M4.71921 44.9948C5.00629 45.1132 5.30576 45.1697 5.60214 45.1697C6.20729 45.1697 6.80005 44.9316 7.24213 44.4845L15.6089 36.1252H29.7748C29.5764 35.2968 29.4617 34.4381 29.445 33.554H15.5084C14.8871 33.554 14.3037 33.7952 13.8659 34.2323L5.85006 42.2413V15.332C5.85006 9.39947 10.6764 4.57188 16.6101 4.57188H34.056C39.4739 4.57188 43.9561 8.60027 44.6971 13.8159H47.295C46.5392 7.17663 40.8944 2 34.056 2L16.6101 2.00062C9.25908 2.00062 3.27881 7.98089 3.27881 15.3319V42.8413C3.27881 43.7911 3.84366 44.6363 4.71915 44.9952L4.71921 44.9948Z" fill="#3DA806"/>
<path d="M67.5777 17.4871C67.2757 17.4666 66.9744 17.4406 66.6668 17.4406L49.2193 17.4412C41.8676 17.4412 35.8861 23.4227 35.8861 30.7744V38.2297C35.8861 40.5797 36.5018 42.7864 37.5739 44.7054C39.855 48.7914 44.2175 51.5642 49.22 51.5642H67.6659L76.0314 59.9297C76.4778 60.3749 77.0693 60.6118 77.6732 60.6118C77.974 60.6118 78.2765 60.5541 78.5655 60.4332C79.4366 60.0717 80.0002 59.2285 80.0002 58.2842V30.7749C80.0002 23.7306 74.5049 17.9594 67.5778 17.4869L67.5777 17.4871ZM77.4287 57.6915L69.411 49.6738C68.972 49.2348 68.3879 48.9917 67.7667 48.9917H49.2192C43.2848 48.9917 38.4572 44.1642 38.4572 38.2291V30.7738C38.4572 24.8394 43.2848 20.0118 49.2192 20.0118L66.6667 20.0124C72.6011 20.0124 77.4287 24.84 77.4287 30.7744V57.6915Z" fill="#3DA806"/>
</svg>
