<svg width="80" height="80" viewBox="0 0 80 80" fill="none" xmlns="http://www.w3.org/2000/svg">
<path d="M39.9018 79.8704H39.6592C38.8106 79.9916 38.4473 79.3863 38.326 79.2651C29.843 74.3014 5 57.1109 5 25.3928V16.3132C5 15.7079 5.36331 15.2237 5.96924 15.1026C17.7245 12.1972 28.7521 9.41237 38.447 0.45398C39.0529 -0.151327 40.0221 -0.151327 40.7493 0.45398C50.8074 8.80707 61.1085 13.5283 73.227 15.2238C73.833 15.345 74.3176 15.8291 74.3176 16.4344L74.3182 25.3928C74.3182 57.1109 49.4752 74.3016 40.9922 79.2651C40.8709 79.3863 40.5077 79.8704 39.9018 79.8704ZM7.42407 17.2817V25.3931C7.42407 55.9006 31.54 72.486 39.6594 77.2074C47.7791 72.4861 71.8948 56.0216 71.8948 25.3931V17.4029C59.8975 15.4657 49.5966 10.7445 39.6594 2.63369C29.8432 11.4709 18.452 14.4974 7.42407 17.2817Z" fill="#3DA806"/>
<path d="M49.8738 57.766H30.5353C27.9755 57.766 25.7954 55.6824 25.7954 53.031V34.091C25.7954 33.5227 26.1745 33.144 26.7434 33.144H53.6657C54.2346 33.144 54.6137 33.5227 54.6137 34.091V53.1257C54.6142 55.6824 52.5284 57.7659 49.8743 57.7659L49.8738 57.766ZM27.6913 35.038V53.1257C27.6913 54.641 28.9235 55.9667 30.5353 55.9667H49.9686C51.4855 55.9667 52.8126 54.7359 52.8126 53.1257V35.038H27.6913Z" fill="#3DA806"/>
<path d="M49.5893 35.0381C49.0204 35.0381 48.6413 34.6594 48.6413 34.0911V26.5151C48.6413 24.6211 47.7883 22.7271 46.1765 21.4015C44.5647 19.981 42.3846 19.2236 40.1096 19.2236C35.4647 19.2236 31.6728 22.5381 31.6728 26.5157V34.0917C31.6728 34.66 31.2937 35.0387 30.7248 35.0387C30.1559 35.0387 29.7769 34.66 29.7769 34.0917V26.5157C29.7769 21.402 34.4218 17.3296 40.1096 17.3296C42.8586 17.3296 45.4184 18.2766 47.4092 19.981C49.4001 21.6853 50.443 24.0528 50.443 26.5151V34.0911C50.5374 34.659 50.1582 35.0381 49.5893 35.0381Z" fill="#3DA806"/>
<path d="M40.2994 49.4325C38.1193 49.4325 36.4126 47.6333 36.4126 45.5497C36.4126 43.3718 38.2136 41.6669 40.2994 41.6669C42.4795 41.6669 44.1862 43.466 44.1862 45.5497C44.2806 47.6333 42.4796 49.4325 40.2994 49.4325ZM40.2994 43.4666C39.1616 43.4666 38.3085 44.4136 38.3085 45.4555C38.3085 46.4973 39.2565 47.4443 40.2994 47.4443C41.4371 47.4443 42.2903 46.4973 42.2903 45.4555C42.2903 44.4137 41.4367 43.4666 40.2994 43.4666Z" fill="#3DA806"/>
<path d="M40.299 53.4098C39.7302 53.4098 39.3511 53.0311 39.3511 52.4628V48.4852C39.3511 47.9169 39.7302 47.5382 40.299 47.5382C40.8679 47.5382 41.247 47.9169 41.247 48.4852V52.4628C41.247 53.0311 40.8679 53.4098 40.299 53.4098Z" fill="#3DA806"/>
</svg>
