<svg width="80" height="80" viewBox="0 0 80 80" fill="none" xmlns="http://www.w3.org/2000/svg">
<path d="M42.0095 56.048C41.6321 56.0485 41.2484 56.0928 40.8656 56.1848C38.2559 56.815 36.65 59.4407 37.279 62.0514C37.8166 64.2793 39.8074 65.7753 42.0022 65.7753C42.3796 65.7753 42.7634 65.7305 43.1461 65.6385C45.7564 65.0083 47.3618 62.3821 46.7322 59.7715C46.1951 57.5441 44.2039 56.048 42.0095 56.048ZM42.6348 63.5177C42.4259 63.5683 42.2131 63.5936 42.0022 63.5936C40.7619 63.5936 39.6911 62.7487 39.3998 61.54C39.0536 60.1035 39.9409 58.6528 41.3769 58.3061C41.5858 58.2554 41.7986 58.2306 42.0095 58.2301C43.2498 58.2301 44.3202 59.075 44.6114 60.2832C44.9581 61.7197 44.0708 63.171 42.6348 63.5177Z" fill="#3DA806"/>
<path d="M56.185 57.4915C56.7227 59.7189 58.7129 61.2149 60.9072 61.2149C61.2846 61.2149 61.6684 61.1701 62.0511 61.078C64.6617 60.4484 66.2673 57.8217 65.6381 55.211C65.1 52.9837 63.1093 51.4877 60.9149 51.4877C60.5375 51.4877 60.1538 51.5325 59.771 51.6245C57.1608 52.2547 55.555 54.8814 56.185 57.4915ZM60.9155 53.6698C62.1553 53.6698 63.2261 54.5147 63.5178 55.7229C63.8641 57.1599 62.9768 58.6111 61.5403 58.9573C61.3314 59.008 61.1186 59.0333 60.9077 59.0333C59.6679 59.0333 58.5975 58.1884 58.3063 56.9797C57.9596 55.5432 58.8464 54.0924 60.2829 53.7457C60.4913 53.6951 60.7046 53.6698 60.9155 53.6698Z" fill="#3DA806"/>
<path d="M56.4108 42.5717C56.7882 42.5717 57.1724 42.5274 57.5552 42.4348C60.1654 41.8056 61.7708 39.1794 61.1418 36.5692C60.6042 34.3418 58.6144 32.8458 56.4196 32.8458C56.0422 32.8458 55.6584 32.8901 55.2747 32.9827C53.6857 33.3654 52.4726 34.4909 51.9059 35.9006V39.5184C52.6461 41.3694 54.4449 42.5717 56.4109 42.5717H56.4108ZM54.1279 36.3106C54.5019 35.6995 55.0907 35.2709 55.7871 35.1029C55.996 35.0523 56.2088 35.0269 56.4201 35.0269C57.66 35.0269 58.7298 35.8714 59.021 37.0801C59.189 37.7764 59.0756 38.4956 58.7021 39.1069C58.3285 39.717 57.7403 40.1461 57.0434 40.3136C56.8345 40.3642 56.6217 40.3896 56.4108 40.3896C55.171 40.3896 54.1011 39.5451 53.8094 38.3369C53.6414 37.6411 53.7544 36.9208 54.1279 36.3106Z" fill="#3DA806"/>
<path d="M74.8799 61.2752L66.54 26.6943C66.0589 24.7016 64.261 23.3541 62.2927 23.3541C61.9567 23.3541 61.6153 23.3936 61.2749 23.4754L51.9051 25.7359V27.9799L61.7868 25.5967C61.9533 25.5563 62.1233 25.5358 62.2927 25.5358C63.2915 25.5358 64.1857 26.2385 64.4189 27.2057L72.7588 61.7866C72.8946 62.3481 72.8006 62.9329 72.4953 63.433C72.1895 63.9332 71.7113 64.2838 71.1498 64.4192L36.5689 72.759C36.4024 72.7994 36.2324 72.8199 36.0629 72.8199C35.0642 72.8199 34.17 72.1172 33.9368 71.15L29.2955 51.9042H27.051L31.8161 71.6599C32.2972 73.6525 34.0951 75 36.0634 75C36.3995 75 36.7408 74.9606 37.0812 74.8788L71.6621 66.5389C73.9947 65.976 75.4435 63.6068 74.8805 61.2738L74.8799 61.2752Z" fill="#3DA806"/>
<path d="M49.7236 45.3604V9.36328C49.7236 6.96348 47.7602 5 45.3604 5H9.36328C6.96348 5 5 6.96348 5 9.36328V45.3604C5 47.7602 6.96348 49.7236 9.36328 49.7236H45.3604C47.7602 49.7236 49.7236 47.7602 49.7236 45.3604ZM7.18164 45.3604V9.36328C7.18164 8.15998 8.15998 7.18164 9.36328 7.18164H45.3604C46.5637 7.18164 47.542 8.15998 47.542 9.36328V45.3604C47.542 46.5637 46.5637 47.542 45.3604 47.542H9.36328C8.15998 47.542 7.18164 46.5637 7.18164 45.3604Z" fill="#3DA806"/>
<path d="M17.5439 12.9084C14.833 12.9084 12.6353 15.1062 12.6353 17.8171C12.6353 20.5281 14.833 22.7258 17.5439 22.7258C20.2549 22.7258 22.4526 20.5281 22.4526 17.8171C22.4526 15.1062 20.2549 12.9084 17.5439 12.9084ZM17.5439 20.5442C16.0402 20.5442 14.8169 19.3209 14.8169 17.8171C14.8169 16.3134 16.0402 15.0901 17.5439 15.0901C19.0477 15.0901 20.271 16.3134 20.271 17.8171C20.271 19.3209 19.0477 20.5442 17.5439 20.5442Z" fill="#3DA806"/>
<path d="M37.1787 12.9084C34.4677 12.9084 32.27 15.1062 32.27 17.8171C32.27 20.5281 34.4677 22.7258 37.1787 22.7258C39.8897 22.7258 42.0874 20.5281 42.0874 17.8171C42.0874 15.1062 39.8897 12.9084 37.1787 12.9084ZM37.1787 20.5442C35.675 20.5442 34.4517 19.3209 34.4517 17.8171C34.4517 16.3134 35.6749 15.0901 37.1787 15.0901C38.6825 15.0901 39.9058 16.3134 39.9058 17.8171C39.9058 19.3209 38.6825 20.5442 37.1787 20.5442Z" fill="#3DA806"/>
<path d="M17.5439 32.2705C14.833 32.2705 12.6353 34.4682 12.6353 37.1792C12.6353 39.8902 14.833 42.0879 17.5439 42.0879C20.2549 42.0879 22.4526 39.8902 22.4526 37.1792C22.4526 34.4682 20.2549 32.2705 17.5439 32.2705ZM17.5439 39.9063C16.0402 39.9063 14.8169 38.683 14.8169 37.1792C14.8169 35.6754 16.0402 34.4521 17.5439 34.4521C19.0477 34.4521 20.271 35.6754 20.271 37.1792C20.271 38.683 19.0477 39.9063 17.5439 39.9063Z" fill="#3DA806"/>
<path d="M37.1787 32.2705C34.4677 32.2705 32.27 34.4682 32.27 37.1792C32.27 39.8902 34.4677 42.0879 37.1787 42.0879C39.8897 42.0879 42.0874 39.8902 42.0874 37.1792C42.0874 34.4682 39.8897 32.2705 37.1787 32.2705ZM37.1787 39.9063C35.675 39.9063 34.4517 38.683 34.4517 37.1792C34.4517 35.6754 35.6749 34.4521 37.1787 34.4521C38.6825 34.4521 39.9058 35.6754 39.9058 37.1792C39.9058 38.683 38.6825 39.9063 37.1787 39.9063Z" fill="#3DA806"/>
</svg>
