<svg width="80" height="80" viewBox="0 0 80 80" fill="none" xmlns="http://www.w3.org/2000/svg">
<path d="M40.0003 24.7122C38.9503 24.7134 37.9444 25.1306 37.2018 25.8731C36.4592 26.6151 36.042 27.6216 36.0409 28.6716V47.8374C36.042 48.8874 36.4592 49.8939 37.2018 50.636C37.9443 51.3785 38.9503 51.7957 40.0003 51.7969C41.0503 51.7957 42.0562 51.3785 42.7988 50.636C43.5414 49.894 43.9586 48.8874 43.9597 47.8374V28.6702C43.958 27.6208 43.5402 26.6147 42.7983 25.8728C42.0557 25.1309 41.0497 24.7137 40.0003 24.7125L40.0003 24.7122ZM41.6991 47.8395C41.7095 48.2972 41.535 48.7392 41.2155 49.0663C40.8953 49.3934 40.4573 49.5777 39.9997 49.5777C39.5426 49.5777 39.104 49.3934 38.7844 49.0663C38.4649 48.7393 38.2904 48.2972 38.3002 47.8395V28.6708C38.2904 28.2137 38.4649 27.7711 38.7844 27.4446C39.104 27.1175 39.5426 26.9332 39.9997 26.9332C40.4573 26.9332 40.8953 27.1175 41.2155 27.4446C41.535 27.7711 41.7095 28.2137 41.6991 28.6708V47.8395ZM40.0297 54.7962H39.9696C38.5655 54.7962 37.2676 55.5457 36.5655 56.7621C35.8634 57.9779 35.8634 59.4763 36.5655 60.6926C37.2676 61.9088 38.5655 62.6578 39.9696 62.6578H40.0297C41.4339 62.6578 42.7318 61.9089 43.4339 60.6926C44.136 59.4762 44.136 57.9778 43.4339 56.7621C42.7318 55.5457 41.4339 54.7962 40.0297 54.7962ZM40.0297 60.3957H39.9696C39.048 60.3957 38.3003 59.6485 38.3003 58.7263C38.3003 57.8046 39.048 57.0569 39.9696 57.0569H40.0297C40.952 57.0569 41.6991 57.8046 41.6991 58.7263C41.6991 59.6485 40.952 60.3957 40.0297 60.3957ZM73.8761 59.2862L47.2635 13.1942C46.2777 11.4861 44.7215 10.1808 42.8689 9.50576C41.0158 8.83141 38.984 8.83141 37.1309 9.50576C35.2784 10.1807 33.7222 11.4861 32.7364 13.1942L6.12379 59.2862C4.6254 61.8813 4.6254 65.0785 6.12379 67.6737C7.62217 70.2688 10.3907 71.8672 13.3874 71.8678H66.6126C69.6093 71.8672 72.3778 70.2688 73.8762 67.6737C75.3746 65.0785 75.3745 61.8813 73.8761 59.2862ZM71.9194 66.5475C71.3924 67.4888 70.6215 68.2701 69.6877 68.8092C68.7533 69.3489 67.6913 69.6257 66.6124 69.6118H13.3873C11.1978 69.6112 9.17528 68.4428 8.0809 66.5474C6.98645 64.6516 6.98588 62.3159 8.08032 60.4193L34.6929 14.3229C35.4135 13.0753 36.5501 12.1213 37.904 11.6284C39.2579 11.1361 40.7419 11.1361 42.0957 11.6284C43.4496 12.1213 44.5863 13.0753 45.3068 14.3229L71.9194 60.4193C72.4713 61.3462 72.7625 62.4048 72.7625 63.4837C72.7625 64.562 72.4712 65.6206 71.9194 66.5475Z" fill="#3DA806"/>
</svg>
