<svg width="112" height="20" viewBox="0 0 112 20" fill="none" xmlns="http://www.w3.org/2000/svg">
<g clip-path="url(#clip0_517_3980)">
<path fill-rule="evenodd" clip-rule="evenodd" d="M10.8771 1.19385L13.23 6.32758C13.2783 6.43936 13.384 6.5158 13.5056 6.52686L19.1285 7.17199V7.17213C19.3767 7.19929 19.6046 7.32113 19.765 7.51209C19.9252 7.70304 20.0052 7.94844 19.9882 8.19686C19.9712 8.44529 19.8587 8.67761 19.674 8.84515L15.5054 12.6628C15.4131 12.7431 15.3723 12.8674 15.3994 12.9865L16.5217 18.519C16.5727 18.7625 16.5272 19.0164 16.3946 19.2273C16.2621 19.4383 16.0528 19.5898 15.8107 19.6502C15.5685 19.7107 15.3123 19.6753 15.0958 19.5515L10.1663 16.7774C10.0607 16.7162 9.93049 16.7162 9.82488 16.7774L4.89432 19.5515H4.89417C4.67763 19.6749 4.42162 19.7101 4.1797 19.6496C3.9378 19.589 3.72862 19.4375 3.59606 19.2269C3.46366 19.0161 3.41784 18.7625 3.46856 18.519L4.59077 12.9865V12.9864C4.61786 12.8673 4.57723 12.743 4.48487 12.6627L0.317054 8.84466C0.132062 8.67727 0.0192502 8.44494 0.00224697 8.19637C-0.014754 7.9478 0.0652069 7.70238 0.225565 7.51129C0.385923 7.32034 0.614131 7.1985 0.86254 7.17163L6.48652 6.52636C6.60812 6.51529 6.71387 6.43885 6.76213 6.32707L9.11418 1.19371C9.21648 0.96655 9.40305 0.787817 9.63457 0.69472C9.86624 0.60176 10.125 0.60176 10.3567 0.69472C10.5882 0.787824 10.7748 0.966565 10.8771 1.19371L10.8771 1.19385Z" fill="#FFCA0D"/>
</g>
<g clip-path="url(#clip1_517_3980)">
<path fill-rule="evenodd" clip-rule="evenodd" d="M33.8771 1.19385L36.23 6.32758C36.2783 6.43936 36.384 6.5158 36.5056 6.52686L42.1285 7.17199V7.17213C42.3767 7.19929 42.6046 7.32113 42.765 7.51209C42.9252 7.70304 43.0052 7.94844 42.9882 8.19686C42.9712 8.44529 42.8587 8.67761 42.674 8.84515L38.5054 12.6628C38.4131 12.7431 38.3723 12.8674 38.3994 12.9865L39.5217 18.519C39.5727 18.7625 39.5272 19.0164 39.3946 19.2273C39.2621 19.4383 39.0528 19.5898 38.8107 19.6502C38.5685 19.7107 38.3123 19.6753 38.0958 19.5515L33.1663 16.7774C33.0607 16.7162 32.9305 16.7162 32.8249 16.7774L27.8943 19.5515H27.8942C27.6776 19.6749 27.4216 19.7101 27.1797 19.6496C26.9378 19.589 26.7286 19.4375 26.5961 19.2269C26.4637 19.0161 26.4178 18.7625 26.4686 18.519L27.5908 12.9865V12.9864C27.6179 12.8673 27.5772 12.743 27.4849 12.6627L23.3171 8.84466C23.1321 8.67727 23.0193 8.44494 23.0022 8.19637C22.9852 7.9478 23.0652 7.70238 23.2256 7.51129C23.3859 7.32034 23.6141 7.1985 23.8625 7.17163L29.4865 6.52636C29.6081 6.51529 29.7139 6.43885 29.7621 6.32707L32.1142 1.19371C32.2165 0.96655 32.4031 0.787817 32.6346 0.69472C32.8662 0.60176 33.125 0.60176 33.3567 0.69472C33.5882 0.787824 33.7748 0.966565 33.8771 1.19371L33.8771 1.19385Z" fill="#FFCA0D"/>
</g>
<g clip-path="url(#clip2_517_3980)">
<path fill-rule="evenodd" clip-rule="evenodd" d="M56.8771 1.19385L59.23 6.32758C59.2783 6.43936 59.384 6.5158 59.5056 6.52686L65.1285 7.17199V7.17213C65.3767 7.19929 65.6046 7.32113 65.765 7.51209C65.9252 7.70304 66.0052 7.94844 65.9882 8.19686C65.9712 8.44529 65.8587 8.67761 65.674 8.84515L61.5054 12.6628C61.4131 12.7431 61.3723 12.8674 61.3994 12.9865L62.5217 18.519C62.5727 18.7625 62.5272 19.0164 62.3946 19.2273C62.2621 19.4383 62.0528 19.5898 61.8107 19.6502C61.5685 19.7107 61.3123 19.6753 61.0958 19.5515L56.1663 16.7774C56.0607 16.7162 55.9305 16.7162 55.8249 16.7774L50.8943 19.5515H50.8942C50.6776 19.6749 50.4216 19.7101 50.1797 19.6496C49.9378 19.589 49.7286 19.4375 49.5961 19.2269C49.4637 19.0161 49.4178 18.7625 49.4686 18.519L50.5908 12.9865V12.9864C50.6179 12.8673 50.5772 12.743 50.4849 12.6627L46.3171 8.84466C46.1321 8.67727 46.0193 8.44494 46.0022 8.19637C45.9852 7.9478 46.0652 7.70238 46.2256 7.51129C46.3859 7.32034 46.6141 7.1985 46.8625 7.17163L52.4865 6.52636C52.6081 6.51529 52.7139 6.43885 52.7621 6.32707L55.1142 1.19371C55.2165 0.96655 55.4031 0.787817 55.6346 0.69472C55.8662 0.60176 56.125 0.60176 56.3567 0.69472C56.5882 0.787824 56.7748 0.966565 56.8771 1.19371L56.8771 1.19385Z" fill="white" fill-opacity="0.2"/>
</g>
<g clip-path="url(#clip3_517_3980)">
<path fill-rule="evenodd" clip-rule="evenodd" d="M79.8771 1.19385L82.23 6.32758C82.2783 6.43936 82.384 6.5158 82.5056 6.52686L88.1285 7.17199V7.17213C88.3767 7.19929 88.6046 7.32113 88.765 7.51209C88.9252 7.70304 89.0052 7.94844 88.9882 8.19686C88.9712 8.44529 88.8587 8.67761 88.674 8.84515L84.5054 12.6628C84.4131 12.7431 84.3723 12.8674 84.3994 12.9865L85.5217 18.519C85.5727 18.7625 85.5272 19.0164 85.3946 19.2273C85.2621 19.4383 85.0528 19.5898 84.8107 19.6502C84.5685 19.7107 84.3123 19.6753 84.0958 19.5515L79.1663 16.7774C79.0607 16.7162 78.9305 16.7162 78.8249 16.7774L73.8943 19.5515H73.8942C73.6776 19.6749 73.4216 19.7101 73.1797 19.6496C72.9378 19.589 72.7286 19.4375 72.5961 19.2269C72.4637 19.0161 72.4178 18.7625 72.4686 18.519L73.5908 12.9865V12.9864C73.6179 12.8673 73.5772 12.743 73.4849 12.6627L69.3171 8.84466C69.1321 8.67727 69.0193 8.44494 69.0022 8.19637C68.9852 7.9478 69.0652 7.70238 69.2256 7.51129C69.3859 7.32034 69.6141 7.1985 69.8625 7.17163L75.4865 6.52636C75.6081 6.51529 75.7139 6.43885 75.7621 6.32707L78.1142 1.19371C78.2165 0.96655 78.4031 0.787817 78.6346 0.69472C78.8662 0.60176 79.125 0.60176 79.3567 0.69472C79.5882 0.787824 79.7748 0.966565 79.8771 1.19371L79.8771 1.19385Z" fill="white" fill-opacity="0.2"/>
</g>
<g clip-path="url(#clip4_517_3980)">
<path fill-rule="evenodd" clip-rule="evenodd" d="M102.877 1.19385L105.23 6.32758C105.278 6.43936 105.384 6.5158 105.506 6.52686L111.128 7.17199V7.17213C111.377 7.19929 111.605 7.32113 111.765 7.51209C111.925 7.70304 112.005 7.94844 111.988 8.19686C111.971 8.44529 111.859 8.67761 111.674 8.84515L107.505 12.6628C107.413 12.7431 107.372 12.8674 107.399 12.9865L108.522 18.519C108.573 18.7625 108.527 19.0164 108.395 19.2273C108.262 19.4383 108.053 19.5898 107.811 19.6502C107.569 19.7107 107.312 19.6753 107.096 19.5515L102.166 16.7774C102.061 16.7162 101.93 16.7162 101.825 16.7774L96.8943 19.5515H96.8942C96.6776 19.6749 96.4216 19.7101 96.1797 19.6496C95.9378 19.589 95.7286 19.4375 95.5961 19.2269C95.4637 19.0161 95.4178 18.7625 95.4686 18.519L96.5908 12.9865V12.9864C96.6179 12.8673 96.5772 12.743 96.4849 12.6627L92.3171 8.84466C92.1321 8.67727 92.0193 8.44494 92.0022 8.19637C91.9852 7.9478 92.0652 7.70238 92.2256 7.51129C92.3859 7.32034 92.6141 7.1985 92.8625 7.17163L98.4865 6.52636C98.6081 6.51529 98.7139 6.43885 98.7621 6.32707L101.114 1.19371C101.216 0.96655 101.403 0.787817 101.635 0.69472C101.866 0.60176 102.125 0.60176 102.357 0.69472C102.588 0.787824 102.775 0.966565 102.877 1.19371L102.877 1.19385Z" fill="white" fill-opacity="0.2"/>
</g>
<defs>
<clipPath id="clip0_517_3980">
<rect width="20" height="20" fill="white"/>
</clipPath>
<clipPath id="clip1_517_3980">
<rect width="20" height="20" fill="white" transform="translate(23)"/>
</clipPath>
<clipPath id="clip2_517_3980">
<rect width="20" height="20" fill="white" transform="translate(46)"/>
</clipPath>
<clipPath id="clip3_517_3980">
<rect width="20" height="20" fill="white" transform="translate(69)"/>
</clipPath>
<clipPath id="clip4_517_3980">
<rect width="20" height="20" fill="white" transform="translate(92)"/>
</clipPath>
</defs>
</svg>
