<svg width="113" height="20" viewBox="0 0 113 20" fill="none" xmlns="http://www.w3.org/2000/svg">
<g clip-path="url(#clip0_517_3867)">
<path fill-rule="evenodd" clip-rule="evenodd" d="M11.3771 1.19385L13.73 6.32758C13.7783 6.43936 13.884 6.5158 14.0056 6.52686L19.6285 7.17199V7.17213C19.8767 7.19929 20.1046 7.32113 20.265 7.51209C20.4252 7.70304 20.5052 7.94844 20.4882 8.19686C20.4712 8.44529 20.3587 8.67761 20.174 8.84515L16.0054 12.6628C15.9131 12.7431 15.8723 12.8674 15.8994 12.9865L17.0217 18.519C17.0727 18.7625 17.0272 19.0164 16.8946 19.2273C16.7621 19.4383 16.5528 19.5898 16.3107 19.6502C16.0685 19.7107 15.8123 19.6753 15.5958 19.5515L10.6663 16.7774C10.5607 16.7162 10.4305 16.7162 10.3249 16.7774L5.39432 19.5515H5.39417C5.17763 19.6749 4.92162 19.7101 4.6797 19.6496C4.4378 19.589 4.22862 19.4375 4.09606 19.2269C3.96366 19.0161 3.91784 18.7625 3.96856 18.519L5.09077 12.9865V12.9864C5.11786 12.8673 5.07723 12.743 4.98487 12.6627L0.817054 8.84466C0.632062 8.67727 0.51925 8.44494 0.502247 8.19637C0.485246 7.9478 0.565207 7.70238 0.725565 7.51129C0.885923 7.32034 1.11413 7.1985 1.36254 7.17163L6.98652 6.52636C7.10812 6.51529 7.21387 6.43885 7.26213 6.32707L9.61418 1.19371C9.71648 0.96655 9.90306 0.787817 10.1346 0.69472C10.3662 0.60176 10.625 0.60176 10.8567 0.69472C11.0882 0.787824 11.2748 0.966565 11.3771 1.19371L11.3771 1.19385Z" fill="#FFCA0D"/>
</g>
<g clip-path="url(#clip1_517_3867)">
<path fill-rule="evenodd" clip-rule="evenodd" d="M34.3771 1.19385L36.73 6.32758C36.7783 6.43936 36.884 6.5158 37.0056 6.52686L42.6285 7.17199V7.17213C42.8767 7.19929 43.1046 7.32113 43.265 7.51209C43.4252 7.70304 43.5052 7.94844 43.4882 8.19686C43.4712 8.44529 43.3587 8.67761 43.174 8.84515L39.0054 12.6628C38.9131 12.7431 38.8723 12.8674 38.8994 12.9865L40.0217 18.519C40.0727 18.7625 40.0272 19.0164 39.8946 19.2273C39.7621 19.4383 39.5528 19.5898 39.3107 19.6502C39.0685 19.7107 38.8123 19.6753 38.5958 19.5515L33.6663 16.7774C33.5607 16.7162 33.4305 16.7162 33.3249 16.7774L28.3943 19.5515H28.3942C28.1776 19.6749 27.9216 19.7101 27.6797 19.6496C27.4378 19.589 27.2286 19.4375 27.0961 19.2269C26.9637 19.0161 26.9178 18.7625 26.9686 18.519L28.0908 12.9865V12.9864C28.1179 12.8673 28.0772 12.743 27.9849 12.6627L23.8171 8.84466C23.6321 8.67727 23.5193 8.44494 23.5022 8.19637C23.4852 7.9478 23.5652 7.70238 23.7256 7.51129C23.8859 7.32034 24.1141 7.1985 24.3625 7.17163L29.9865 6.52636C30.1081 6.51529 30.2139 6.43885 30.2621 6.32707L32.6142 1.19371C32.7165 0.96655 32.9031 0.787817 33.1346 0.69472C33.3662 0.60176 33.625 0.60176 33.8567 0.69472C34.0882 0.787824 34.2748 0.966565 34.3771 1.19371L34.3771 1.19385Z" fill="#FFCA0D"/>
</g>
<g clip-path="url(#clip2_517_3867)">
<path fill-rule="evenodd" clip-rule="evenodd" d="M57.3771 1.19385L59.73 6.32758C59.7783 6.43936 59.884 6.5158 60.0056 6.52686L65.6285 7.17199V7.17213C65.8767 7.19929 66.1046 7.32113 66.265 7.51209C66.4252 7.70304 66.5052 7.94844 66.4882 8.19686C66.4712 8.44529 66.3587 8.67761 66.174 8.84515L62.0054 12.6628C61.9131 12.7431 61.8723 12.8674 61.8994 12.9865L63.0217 18.519C63.0727 18.7625 63.0272 19.0164 62.8946 19.2273C62.7621 19.4383 62.5528 19.5898 62.3107 19.6502C62.0685 19.7107 61.8123 19.6753 61.5958 19.5515L56.6663 16.7774C56.5607 16.7162 56.4305 16.7162 56.3249 16.7774L51.3943 19.5515H51.3942C51.1776 19.6749 50.9216 19.7101 50.6797 19.6496C50.4378 19.589 50.2286 19.4375 50.0961 19.2269C49.9637 19.0161 49.9178 18.7625 49.9686 18.519L51.0908 12.9865V12.9864C51.1179 12.8673 51.0772 12.743 50.9849 12.6627L46.8171 8.84466C46.6321 8.67727 46.5193 8.44494 46.5022 8.19637C46.4852 7.9478 46.5652 7.70238 46.7256 7.51129C46.8859 7.32034 47.1141 7.1985 47.3625 7.17163L52.9865 6.52636C53.1081 6.51529 53.2139 6.43885 53.2621 6.32707L55.6142 1.19371C55.7165 0.96655 55.9031 0.787817 56.1346 0.69472C56.3662 0.60176 56.625 0.60176 56.8567 0.69472C57.0882 0.787824 57.2748 0.966565 57.3771 1.19371L57.3771 1.19385Z" fill="#FFCA0D"/>
</g>
<g clip-path="url(#clip3_517_3867)">
<path fill-rule="evenodd" clip-rule="evenodd" d="M80.3771 1.19385L82.73 6.32758C82.7783 6.43936 82.884 6.5158 83.0056 6.52686L88.6285 7.17199V7.17213C88.8767 7.19929 89.1046 7.32113 89.265 7.51209C89.4252 7.70304 89.5052 7.94844 89.4882 8.19686C89.4712 8.44529 89.3587 8.67761 89.174 8.84515L85.0054 12.6628C84.9131 12.7431 84.8723 12.8674 84.8994 12.9865L86.0217 18.519C86.0727 18.7625 86.0272 19.0164 85.8946 19.2273C85.7621 19.4383 85.5528 19.5898 85.3107 19.6502C85.0685 19.7107 84.8123 19.6753 84.5958 19.5515L79.6663 16.7774C79.5607 16.7162 79.4305 16.7162 79.3249 16.7774L74.3943 19.5515H74.3942C74.1776 19.6749 73.9216 19.7101 73.6797 19.6496C73.4378 19.589 73.2286 19.4375 73.0961 19.2269C72.9637 19.0161 72.9178 18.7625 72.9686 18.519L74.0908 12.9865V12.9864C74.1179 12.8673 74.0772 12.743 73.9849 12.6627L69.8171 8.84466C69.6321 8.67727 69.5193 8.44494 69.5022 8.19637C69.4852 7.9478 69.5652 7.70238 69.7256 7.51129C69.8859 7.32034 70.1141 7.1985 70.3625 7.17163L75.9865 6.52636C76.1081 6.51529 76.2139 6.43885 76.2621 6.32707L78.6142 1.19371C78.7165 0.96655 78.9031 0.787817 79.1346 0.69472C79.3662 0.60176 79.625 0.60176 79.8567 0.69472C80.0882 0.787824 80.2748 0.966565 80.3771 1.19371L80.3771 1.19385Z" fill="#FFCA0D"/>
</g>
<g clip-path="url(#clip4_517_3867)">
<path fill-rule="evenodd" clip-rule="evenodd" d="M103.377 1.19385L105.73 6.32758C105.778 6.43936 105.884 6.5158 106.006 6.52686L111.628 7.17199V7.17213C111.877 7.19929 112.105 7.32113 112.265 7.51209C112.425 7.70304 112.505 7.94844 112.488 8.19686C112.471 8.44529 112.359 8.67761 112.174 8.84515L108.005 12.6628C107.913 12.7431 107.872 12.8674 107.899 12.9865L109.022 18.519C109.073 18.7625 109.027 19.0164 108.895 19.2273C108.762 19.4383 108.553 19.5898 108.311 19.6502C108.069 19.7107 107.812 19.6753 107.596 19.5515L102.666 16.7774C102.561 16.7162 102.43 16.7162 102.325 16.7774L97.3943 19.5515H97.3942C97.1776 19.6749 96.9216 19.7101 96.6797 19.6496C96.4378 19.589 96.2286 19.4375 96.0961 19.2269C95.9637 19.0161 95.9178 18.7625 95.9686 18.519L97.0908 12.9865V12.9864C97.1179 12.8673 97.0772 12.743 96.9849 12.6627L92.8171 8.84466C92.6321 8.67727 92.5193 8.44494 92.5022 8.19637C92.4852 7.9478 92.5652 7.70238 92.7256 7.51129C92.8859 7.32034 93.1141 7.1985 93.3625 7.17163L98.9865 6.52636C99.1081 6.51529 99.2139 6.43885 99.2621 6.32707L101.614 1.19371C101.716 0.96655 101.903 0.787817 102.135 0.69472C102.366 0.60176 102.625 0.60176 102.857 0.69472C103.088 0.787824 103.275 0.966565 103.377 1.19371L103.377 1.19385Z" fill="#FFCA0D"/>
</g>
<defs>
<clipPath id="clip0_517_3867">
<rect width="20" height="20" fill="white" transform="translate(0.5)"/>
</clipPath>
<clipPath id="clip1_517_3867">
<rect width="20" height="20" fill="white" transform="translate(23.5)"/>
</clipPath>
<clipPath id="clip2_517_3867">
<rect width="20" height="20" fill="white" transform="translate(46.5)"/>
</clipPath>
<clipPath id="clip3_517_3867">
<rect width="20" height="20" fill="white" transform="translate(69.5)"/>
</clipPath>
<clipPath id="clip4_517_3867">
<rect width="20" height="20" fill="white" transform="translate(92.5)"/>
</clipPath>
</defs>
</svg>
