<svg width="621" height="203" viewBox="0 0 621 203" fill="none" xmlns="http://www.w3.org/2000/svg">
<g clip-path="url(#clip0_392_4087)" filter="url(#filter0_d_392_4087)">
<path d="M206.68 22.5796H150.608L146.275 29.5439H206.68V22.5796Z" fill="#60D61A"/>
<path d="M217.51 179.4H173.521V192.261H217.51V179.4Z" fill="#60D61A"/>
<path d="M208.227 175.144H164.238V179.4H208.227V175.144Z" fill="#60D61A"/>
<path d="M110.998 102.406H76.2465L73.1211 107.436H107.934L110.998 102.406Z" fill="#60D61A"/>
<path d="M214.415 29.5439H154.01L146.119 42.2344H214.415V29.5439Z" fill="#60D61A"/>
<path d="M232.982 42.2344H164.687L160.23 49.3999H232.982V42.2344Z" fill="#60D61A"/>
<path d="M123.638 78.418L108.738 102.406H143.49L158.08 78.418H123.638Z" fill="#60D61A"/>
<path d="M41.7733 73.7749H7.37789L4.5 78.4178H38.9418L41.7733 73.7749Z" fill="#60D61A"/>
<path d="M214.415 49.3999H141.663L126.516 73.7749H160.911L166.265 64.9844L169.638 59.6142L170.427 59.8773V73.7749H214.415V49.3999Z" fill="#60D61A"/>
<path d="M95.2774 73.7749H51.2891V78.4178H95.2774V73.7749Z" fill="#60D61A"/>
<path d="M214.415 78.418H170.427V118.455H133.726L140.426 107.436H105.612L94.4258 125.435L95.4779 136.252H233.539V118.455H214.415V78.418Z" fill="#60D61A"/>
<path d="M190.218 136.252H52.1562L52.9608 144.579H190.218V136.252Z" fill="#60D61A"/>
<path d="M214.416 152.301H233.54V144.579H96.2832L97.0259 152.301H170.428V162.763H214.416V152.301Z" fill="#60D61A"/>
<path d="M214.416 166.632H170.428V175.144H214.416V166.632Z" fill="#60D61A"/>
<path d="M121.58 162.763H77.5918V166.632H121.58V162.763Z" fill="#60D61A"/>
<path d="M124.676 8.89893H77.0977L74.5293 13.0311H124.676V8.89893Z" fill="#60D61A"/>
<path d="M164.27 13.0308L158.344 22.5796H214.416V13.0308H164.27Z" fill="#60D61A"/>
<path d="M214.416 2.73926H170.428V3.12616L166.838 8.89878H214.416V2.73926Z" fill="#60D61A"/>
<path d="M304.544 62.2915H260.958C260.725 64.4736 260.54 66.7177 260.416 68.9927H304.126C304.219 66.6403 304.358 64.3963 304.559 62.2915H304.544Z" fill="#60D61A"/>
<path d="M327.551 0C313.874 0 302.13 2.97143 292.32 8.89881H362.705C352.864 2.97143 341.152 0 327.551 0Z" fill="#60D61A"/>
<path d="M272.963 8.89893H202.579C200.521 10.137 198.571 11.5299 196.684 13.0311H278.889C276.986 11.5299 275.021 10.1525 272.963 8.89893Z" fill="#60D61A"/>
<path d="M286.424 13.0308C284.212 14.795 282.107 16.7141 280.127 18.8343H374.989C372.993 16.7141 370.858 14.795 368.645 13.0308H286.44H286.424Z" fill="#60D61A"/>
<path d="M336.911 44.3702H381.534C378.563 34.5428 374.076 26.294 368.042 19.6547C367.779 19.3761 367.516 19.113 367.253 18.8345H272.391C272.159 19.0821 271.911 19.3297 271.664 19.5928C262.349 29.9154 256.717 44.1535 254.768 62.2916H298.354C299.143 54.0273 300.814 47.713 303.351 43.3488C307.034 37.019 312.526 33.8464 319.814 33.8464C327.102 33.8464 332.517 37.019 336.339 43.3488C336.54 43.6738 336.726 44.0297 336.911 44.3702Z" fill="#60D61A"/>
<path d="M346.195 44.3701C347.046 45.9487 347.789 47.7594 348.423 49.7868H392.288C391.855 47.9296 391.344 46.1344 390.818 44.3701H346.195Z" fill="#60D61A"/>
<path d="M381.456 49.7871H337.592C338.443 52.5109 339.108 55.6681 339.588 59.1966H383.189C382.741 55.9312 382.168 52.7895 381.456 49.7871Z" fill="#60D61A"/>
<path d="M440.422 59.1963H396.82C397.006 60.5891 397.161 62.0594 397.3 63.5761H440.948C440.793 62.0903 440.623 60.6201 440.422 59.1963Z" fill="#60D61A"/>
<path d="M340.068 63.5918C340.362 66.9501 340.517 70.6025 340.517 74.5954V78.5573H384.366V77.5977C384.366 72.7073 384.134 68.0335 383.701 63.6073H340.053L340.068 63.5918Z" fill="#60D61A"/>
<path d="M362.705 78.5415H318.855V85.5058H362.705V78.5415Z" fill="#60D61A"/>
<path d="M384.367 85.5059H340.518V116.071H384.367V85.5059Z" fill="#60D61A"/>
<path d="M334.328 116.071V120.142C334.328 121.178 334.328 122.169 334.297 123.159H378.069C378.131 121.271 378.192 119.368 378.192 117.402V116.071H334.343H334.328Z" fill="#60D61A"/>
<path d="M307.143 149.995H262.768C263.325 151.914 263.928 153.802 264.609 155.598H310.995C309.928 154.468 308.938 153.183 308.056 151.713C307.731 151.171 307.437 150.599 307.143 149.995Z" fill="#60D61A"/>
<path d="M296.374 69.0083H252.664C252.571 70.5714 252.509 72.1654 252.463 73.775H296.266C296.266 72.1345 296.312 70.5404 296.358 69.0083H296.374Z" fill="#60D61A"/>
<path d="M296.265 78.418H252.416V99.5739H296.265V78.418Z" fill="#60D61A"/>
<path d="M177.126 74.5951C177.126 74.3166 177.126 74.0535 177.126 73.7749H133.324C133.293 75.0285 133.262 76.2975 133.262 77.582V78.4178H177.111V74.5951H177.126Z" fill="#60D61A"/>
<path d="M286.982 99.5737H243.133V108.596H286.982V99.5737Z" fill="#60D61A"/>
<path d="M296.265 108.596H252.416V117.418C252.416 129.737 253.824 140.585 256.578 149.995H300.953C297.828 143.588 296.265 133.637 296.265 120.141V108.596Z" fill="#60D61A"/>
<path d="M384.258 123.175H340.486C340.238 136.345 338.382 145.863 334.916 151.713C331.187 158.012 325.725 161.153 318.515 161.153C312.868 161.153 308.303 159.296 304.791 155.613H258.404C259.348 158.12 260.416 160.503 261.576 162.763H375.206C380.653 152.131 383.654 138.93 384.242 123.175H384.258Z" fill="#60D61A"/>
<path d="M282.386 162.763H168.756C169.437 164.094 170.164 165.379 170.922 166.632H280.22C280.978 165.379 281.705 164.094 282.386 162.763Z" fill="#60D61A"/>
<path d="M263.758 166.632C265.676 169.82 267.827 172.745 270.241 175.407C272.066 177.419 274 179.245 276.027 180.948H360.755C362.782 179.245 364.716 177.419 366.542 175.407C368.955 172.745 371.121 169.82 373.04 166.632H263.742H263.758Z" fill="#60D61A"/>
<path d="M349.925 180.948H265.197C276.353 190.295 290.51 195 307.685 195C324.859 195 338.785 190.311 349.925 180.948Z" fill="#60D61A"/>
<path d="M529.297 171.848H485.309V178.224H529.297V171.848Z" fill="#60D61A"/>
<path d="M523.107 178.239H479.119V192.261H523.107V178.239Z" fill="#60D61A"/>
<path d="M540.127 95.0547H496.139V101.632H540.127V95.0547Z" fill="#60D61A"/>
<path d="M523.107 2.73926H479.119V3.12616L475.529 8.89878H523.107V2.73926Z" fill="#60D61A"/>
<path d="M433.367 8.89893H385.789L383.221 13.0311H433.367V8.89893Z" fill="#60D61A"/>
<path d="M472.961 13.0308L468.025 20.9546H523.108V13.0308H472.961Z" fill="#60D61A"/>
<path d="M495.877 20.9546L492.875 25.7986H550.959V20.9546H495.877Z" fill="#60D61A"/>
<path d="M444.694 86.7285H410.144L404.496 95.8285H439.17L444.694 86.7285Z" fill="#60D61A"/>
<path d="M542.233 118.455H523.108V101.632H479.12V118.455H442.419L456.19 95.8286H421.516L403.119 125.435L404.171 136.252H542.233V118.455Z" fill="#60D61A"/>
<path d="M523.107 152.301H542.231V140.709H404.588L405.717 152.301H479.119V162.763H523.107V152.301Z" fill="#60D61A"/>
<path d="M430.274 162.763H386.285V166.632H430.274V162.763Z" fill="#60D61A"/>
<path d="M523.107 166.632H479.119V171.863H523.107V166.632Z" fill="#60D61A"/>
<path d="M607.216 136.252H469.154L469.572 140.71H607.216V136.252Z" fill="#60D61A"/>
<path d="M523.108 25.7988H465.024L444.275 59.1964H523.108V25.7988Z" fill="#60D61A"/>
<path d="M580.356 59.1963H501.524L498.801 63.5915H533.072L535.579 59.6141L536.368 59.8772V63.5915H580.356V59.1963Z" fill="#60D61A"/>
<path d="M427.162 86.7287H461.712L474.957 64.9847L475.823 63.5918H441.552L427.162 86.7287Z" fill="#60D61A"/>
<path d="M523.107 63.5918H479.119V95.0549H523.107V63.5918Z" fill="#60D61A"/>
<path d="M226.793 179.4H182.805V192.261H226.793V179.4Z" fill="white"/>
<path d="M217.51 175.144H173.521V179.4H217.51V175.144Z" fill="white"/>
<path d="M223.7 29.5439H163.295L155.404 42.2344H223.7V29.5439Z" fill="white"/>
<path d="M242.265 42.2344H173.97L169.514 49.3999H242.265V42.2344Z" fill="white"/>
<path d="M51.0565 73.7749H16.6611L13.7832 78.4178H48.225L51.0565 73.7749Z" fill="white"/>
<path d="M132.922 78.418L118.021 102.406H152.773L167.363 78.418H132.922Z" fill="white"/>
<path d="M223.698 49.3999H150.946L135.799 73.7749H170.194L175.548 64.9844L178.921 59.6142L179.71 59.8773V73.7749H223.698V49.3999Z" fill="white"/>
<path d="M104.561 73.7749H60.5723V78.4178H104.561V73.7749Z" fill="white"/>
<path d="M223.698 78.418H179.71V118.455H143.009L149.709 107.436H114.896L103.709 125.435L104.761 136.252H242.822V118.455H223.698V78.418Z" fill="white"/>
<path d="M223.699 152.301H242.823V144.579H105.566L106.309 152.301H179.711V162.763H223.699V152.301Z" fill="white"/>
<path d="M130.863 162.763H86.875V166.632H130.863V162.763Z" fill="white"/>
<path d="M223.699 166.632H179.711V175.144H223.699V166.632Z" fill="white"/>
<path d="M199.501 136.252H61.4395L62.244 144.579H199.501V136.252Z" fill="white"/>
<path d="M120.281 102.406H85.5297L82.4043 107.436H117.217L120.281 102.406Z" fill="white"/>
<path d="M215.963 22.5796H159.891L155.559 29.5439H215.963V22.5796Z" fill="white"/>
<path d="M223.699 2.73926H179.711V3.12616L176.121 8.89878H223.699V2.73926Z" fill="white"/>
<path d="M133.959 8.89893H86.3809L83.8125 13.0311H133.959V8.89893Z" fill="white"/>
<path d="M173.553 13.0308L167.627 22.5796H223.699V13.0308H173.553Z" fill="white"/>
<path d="M282.246 8.89893H211.862C209.804 10.137 207.854 11.5299 205.967 13.0311H288.172C286.269 11.5299 284.304 10.1525 282.246 8.89893Z" fill="white"/>
<path d="M295.707 13.0308C293.495 14.795 291.391 16.7141 289.41 18.8343H384.272C382.276 16.7141 380.141 14.795 377.928 13.0308H295.723H295.707Z" fill="white"/>
<path d="M336.834 0C323.157 0 311.413 2.97143 301.604 8.89881H371.988C362.147 2.97143 350.435 0 336.834 0Z" fill="white"/>
<path d="M345.622 43.3488C345.823 43.6738 346.009 44.0297 346.194 44.3702H390.817C387.846 34.5428 383.359 26.294 377.325 19.6547C377.062 19.3761 376.799 19.113 376.536 18.8345H281.674C281.442 19.0821 281.194 19.3297 280.947 19.5928C271.632 29.9154 266 44.1535 264.051 62.2916H307.637C308.426 54.0273 310.097 47.713 312.634 43.3488C316.317 37.019 321.81 33.8464 329.097 33.8464C336.385 33.8464 341.8 37.019 345.622 43.3488Z" fill="white"/>
<path d="M355.479 44.3701C356.33 45.9487 357.072 47.7594 357.707 49.7868H401.571C401.138 47.9296 400.627 46.1344 400.101 44.3701H355.479Z" fill="white"/>
<path d="M390.74 49.7871H346.875C347.726 52.5109 348.391 55.6681 348.871 59.1966H392.473C392.024 55.9312 391.451 52.7895 390.74 49.7871Z" fill="white"/>
<path d="M449.707 59.1963H406.105C406.291 60.5891 406.446 62.0594 406.585 63.5761H450.233C450.078 62.0903 449.908 60.6201 449.707 59.1963Z" fill="white"/>
<path d="M349.351 63.5918C349.645 66.9501 349.8 70.6025 349.8 74.5954V78.5573H393.649V77.5977C393.649 72.7073 393.417 68.0335 392.984 63.6073H349.336L349.351 63.5918Z" fill="white"/>
<path d="M371.988 78.5415H328.139V85.5058H371.988V78.5415Z" fill="white"/>
<path d="M393.65 85.5059H349.801V116.071H393.65V85.5059Z" fill="white"/>
<path d="M343.611 116.071V120.142C343.611 121.178 343.611 122.169 343.58 123.159H387.352C387.414 121.271 387.476 119.368 387.476 117.402V116.071H343.626H343.611Z" fill="white"/>
<path d="M305.657 69.0083H261.947C261.854 70.5714 261.793 72.1654 261.746 73.775H305.549C305.549 72.1345 305.595 70.5404 305.642 69.0083H305.657Z" fill="white"/>
<path d="M186.41 74.5951C186.41 74.3166 186.41 74.0535 186.41 73.7749H142.607C142.576 75.0285 142.545 76.2975 142.545 77.582V78.4178H186.394V74.5951H186.41Z" fill="white"/>
<path d="M305.548 78.418H261.699V99.5739H305.548V78.418Z" fill="white"/>
<path d="M296.265 99.5737H252.416V108.596H296.265V99.5737Z" fill="white"/>
<path d="M305.548 108.596H261.699V117.418C261.699 129.737 263.107 140.585 265.861 149.995H310.237C307.111 143.588 305.548 133.637 305.548 120.141V108.596Z" fill="white"/>
<path d="M316.426 149.995H272.051C272.608 151.914 273.211 153.802 273.892 155.598H320.279C319.211 154.468 318.221 153.183 317.339 151.713C317.014 151.171 316.72 150.599 316.426 149.995Z" fill="white"/>
<path d="M393.541 123.175H349.769C349.522 136.345 347.665 145.863 344.199 151.713C340.47 158.012 335.008 161.153 327.798 161.153C322.151 161.153 317.586 159.296 314.074 155.613H267.688C268.631 158.12 269.699 160.503 270.859 162.763H384.49C389.936 152.131 392.938 138.93 393.525 123.175H393.541Z" fill="white"/>
<path d="M273.041 166.632C274.959 169.82 277.11 172.745 279.524 175.407C281.35 177.419 283.284 179.245 285.311 180.948H370.038C372.065 179.245 373.999 177.419 375.825 175.407C378.239 172.745 380.405 169.82 382.323 166.632H273.025H273.041Z" fill="white"/>
<path d="M291.669 162.763H178.039C178.72 164.094 179.447 165.379 180.205 166.632H289.503C290.261 165.379 290.988 164.094 291.669 162.763Z" fill="white"/>
<path d="M359.208 180.948H274.48C285.636 190.295 299.793 195 316.968 195C334.142 195 348.068 190.311 359.208 180.948Z" fill="white"/>
<path d="M313.827 62.2915H270.241C270.009 64.4736 269.823 66.7177 269.699 68.9927H313.409C313.502 66.6403 313.641 64.3963 313.842 62.2915H313.827Z" fill="white"/>
<path d="M549.41 95.0547H505.422V101.632H549.41V95.0547Z" fill="white"/>
<path d="M532.39 2.73926H488.402V3.12616L484.812 8.89878H532.39V2.73926Z" fill="white"/>
<path d="M442.65 8.89893H395.072L392.504 13.0311H442.65V8.89893Z" fill="white"/>
<path d="M482.244 13.0308L477.309 20.9546H532.391V13.0308H482.244Z" fill="white"/>
<path d="M505.16 20.9546L502.158 25.7986H560.242V20.9546H505.16Z" fill="white"/>
<path d="M436.447 86.7287H470.997L484.242 64.9847L485.108 63.5918H450.837L436.447 86.7287Z" fill="white"/>
<path d="M589.64 59.1963H510.807L508.084 63.5915H542.356L544.862 59.6141L545.651 59.8772V63.5915H589.64V59.1963Z" fill="white"/>
<path d="M532.391 63.5918H488.402V95.0549H532.391V63.5918Z" fill="white"/>
<path d="M532.391 25.7988H474.307L453.559 59.1964H532.391V25.7988Z" fill="white"/>
<path d="M453.977 86.7285H419.427L413.779 95.8285H448.453L453.977 86.7285Z" fill="white"/>
<path d="M551.516 118.455H532.392V101.632H488.403V118.455H451.703L465.473 95.8286H430.799L412.402 125.435L413.454 136.252H551.516V118.455Z" fill="white"/>
<path d="M616.501 136.252H478.439L478.857 140.71H616.501V136.252Z" fill="white"/>
<path d="M532.391 152.301H551.515V140.709H413.871L415.001 152.301H488.402V162.763H532.391V152.301Z" fill="white"/>
<path d="M439.557 162.763H395.568V166.632H439.557V162.763Z" fill="white"/>
<path d="M532.391 166.632H488.402V171.863H532.391V166.632Z" fill="white"/>
<path d="M538.58 171.848H494.592V178.224H538.58V171.848Z" fill="white"/>
<path d="M532.391 178.239H488.402V192.261H532.391V178.239Z" fill="white"/>
</g>
<defs>
<filter id="filter0_d_392_4087" x="0.5" y="0" width="620" height="203" filterUnits="userSpaceOnUse" color-interpolation-filters="sRGB">
<feFlood flood-opacity="0" result="BackgroundImageFix"/>
<feColorMatrix in="SourceAlpha" type="matrix" values="0 0 0 0 0 0 0 0 0 0 0 0 0 0 0 0 0 0 127 0" result="hardAlpha"/>
<feOffset dy="4"/>
<feGaussianBlur stdDeviation="2"/>
<feComposite in2="hardAlpha" operator="out"/>
<feColorMatrix type="matrix" values="0 0 0 0 0 0 0 0 0 0 0 0 0 0 0 0 0 0 0.25 0"/>
<feBlend mode="normal" in2="BackgroundImageFix" result="effect1_dropShadow_392_4087"/>
<feBlend mode="normal" in="SourceGraphic" in2="effect1_dropShadow_392_4087" result="shape"/>
</filter>
<clipPath id="clip0_392_4087">
<rect width="612" height="195" fill="white" transform="translate(4.5)"/>
</clipPath>
</defs>
</svg>
