<svg width="190" height="21" viewBox="0 0 190 21" fill="none" xmlns="http://www.w3.org/2000/svg">
<path d="M118.654 11.3989L117.431 15.7897H121.201L121.026 16.3481C116.931 16.3481 112.862 16.3481 108.892 16.3481L109.042 15.7897H111.788L112.138 14.4699H106.671L106.096 16.5004L109.217 19.9268H116.382L124.671 16.3481L126.368 10.1552L115.234 10.0029L117.006 3.60699L120.027 6.93186H127.417L124.296 3.50547H117.031L109.117 5.4344L107.869 10.0029L113.886 14.2415L118.654 11.3989ZM116.407 7.99785H127.042L127.142 7.6679H116.482L116.407 7.99785Z" fill="white"/>
<path d="M139.271 0.00292969H131.882C130.059 6.65267 128.237 13.3278 126.414 20.0029H133.754L133.829 19.673H127.188L132.331 17.4902L132.93 15.3836H134.128L133.729 16.9065L134.753 16.4496C136.251 10.9674 137.748 5.48516 139.271 0.00292969Z" fill="white"/>
<path d="M147.17 19.9522L155.458 16.6527L158.08 7.08415L151.389 4.59684C150.315 8.55623 149.217 12.4902 148.118 16.4496L144.923 16.3989L145.247 15.2567H143.275L143.6 14.0892H146.82L146.995 13.3786H147.844L148.019 12.6679H147.195L146.995 13.3786H145.747L147.494 7.008L149.991 7.05877L150.74 4.34303L148.468 3.50547L140.179 6.83034L137.558 16.3989L147.17 19.9522Z" fill="white"/>
<path d="M162.62 19.9522L168.237 16.4242L165.116 16.4496L167.114 9.13998H166.939L167.962 5.35826H170.634L171.158 3.45471H168.487L169.435 0.00292969H162.046L161.371 2.51562H159L158.75 3.45471C160.273 3.45471 161.796 3.45471 163.319 3.45471L162.794 5.35826H160.598L159.549 9.13998H159.749L157.726 16.5512L162.62 19.9522Z" fill="white"/>
<path d="M181.237 11.3989L180.014 15.7897H183.783L183.609 16.3481C179.514 16.3481 175.445 16.3481 171.475 16.3481L171.625 15.7897H174.371L174.721 14.4699H169.253L168.679 16.5004L171.8 19.9268H178.965L187.254 16.3481L188.951 10.1552L177.817 10.0029L179.589 3.60699L182.61 6.93186H190L186.879 3.50547H179.614L171.7 5.4344L170.452 10.0029L176.468 14.2415L181.237 11.3989ZM178.99 7.99785H189.625L189.725 7.6679H179.065L178.99 7.99785Z" fill="white"/>
<path d="M9.61177 19.9522L17.9004 16.6527L20.5218 7.08415L13.831 4.59684C12.7574 8.55623 11.659 12.4902 10.5605 16.4496L7.36487 16.3989L7.68942 15.2567H5.71713L6.04169 14.0892H9.26226L9.43701 13.3786H10.2858L10.4606 12.6679H9.63674L9.43701 13.3786H8.18873L9.93633 7.008L12.4329 7.05877L13.1819 4.34303L10.91 3.50547L2.62139 6.83034L0 16.3989L9.61177 19.9522Z" fill="#3DA806"/>
<path d="M28.3822 16.4496C29.256 13.2517 30.1548 10.0283 31.0286 6.83034H32.7263L32.177 8.88618L33.2755 10.3075L30.704 19.9522L32.2769 19.2923L35.6972 6.80496H36.4711L33.1756 18.9116L38.9926 16.3989L41.614 6.83034L39.2173 3.42933L31.2283 6.0943L31.9274 3.50547H31.1534L30.3795 6.34811L29.2311 6.67806L30.1298 3.40394L24.0632 5.25673L20.0437 20.0029L28.3822 16.4496Z" fill="#3DA806"/>
<path d="M53.6059 0.00292969H46.2161C44.3936 6.65267 42.5711 13.3278 40.7486 20.0029H48.0885L48.1634 19.673H41.5226L46.6655 17.4902L47.2647 15.3836H48.463L48.0636 16.9065L49.0871 16.4496C50.5851 10.9674 52.083 5.48516 53.6059 0.00292969Z" fill="#3DA806"/>
<path d="M59.532 15.942L62.9522 3.45471H55.5374L55.0132 5.35826H59.8565L59.7566 5.73897L54.9383 5.71359L52.0173 16.3989L55.6373 19.9522L61.6291 16.475C59.8565 16.4496 58.059 16.4496 56.2864 16.4496L56.0617 17.2364H55.113L55.3377 16.3989H56.2614L56.3863 15.942H59.532ZM55.5874 2.05877H63.3018L63.8011 0.180594H56.1117L55.5874 2.05877Z" fill="#3DA806"/>
<path d="M69.6692 16.4496C70.543 13.2517 71.4417 10.0283 72.3155 6.83034H74.0132L73.464 8.88618L74.5624 10.3075L71.991 19.9522L73.5638 19.2923L76.9841 6.80496H77.758L74.4626 18.9116L80.2796 16.3989L82.901 6.83034L80.5043 3.42933L72.5153 6.0943L73.2143 3.50547H72.4404L71.6664 6.34811L70.518 6.67806L71.4168 3.40394L65.3501 5.25673L61.3306 20.0029L69.6692 16.4496Z" fill="#3DA806"/>
<path d="M90.0246 16.3989L90.6986 13.9877L90.7236 13.8608L91.2479 11.9572L91.2728 11.8303L92.5461 7.21105V7.18567L94.3436 9.54608L93.6945 11.9572H91.2728L90.7486 13.8608H99.162L99.6613 11.9826H101.059L102.482 6.83034H101.659L99.0122 3.50547H88.0273L87.528 5.40902H91.0232L90.5738 7.03339H85.2062L82.6597 16.3989L91.4975 19.9522L98.2383 16.475L90.0246 16.3989Z" fill="#3DA806"/>
</svg>
