<svg width="100" height="40" viewBox="0 0 100 40" fill="none" xmlns="http://www.w3.org/2000/svg">
<path d="M10 22.1816C10.0455 21.8269 10.0966 21.4722 10.1364 21.1175C10.3127 19.5523 10.7088 18.0452 11.3152 16.5888C11.9595 15.0424 12.818 13.6179 13.8868 12.3248C14.7263 11.3095 15.6739 10.3936 16.7294 9.59597C18.905 7.95004 21.3363 6.86526 24.0311 6.36979C25.352 6.12769 26.6842 6.03948 28.0316 6.10892C30.4005 6.23091 32.6499 6.8052 34.7629 7.85995C35.5892 8.27284 36.3548 8.80397 37.1469 9.28255C37.1773 9.30132 37.2057 9.32008 37.2777 9.367V8.49805H39.584V9.8362H40.9769V8.49618H42.3072C42.3072 8.81898 42.3148 9.1249 42.3034 9.42894C42.2978 9.58283 42.3413 9.64852 42.5062 9.63538C42.6408 9.62412 42.7791 9.63351 42.9155 9.63351C53.6057 9.63351 64.2958 9.63163 74.984 9.63351C77.5253 9.63351 79.9491 10.1721 82.2459 11.2494C83.6483 11.9082 84.9237 12.7508 86.0759 13.7868C87.7985 15.3389 89.0777 17.1781 89.8376 19.3627C90.3398 20.8097 90.5899 22.2999 90.4838 23.8238C90.3853 25.2239 90.0745 26.5921 89.5874 27.9152C89.0947 29.2533 88.4314 30.4995 87.5502 31.6275C86.0285 33.5793 84.0841 34.9587 81.7513 35.8183C80.3679 36.3269 78.9447 36.6628 77.476 36.7867C76.5285 36.8674 75.5734 36.9256 74.622 36.9256C62.1524 36.935 49.681 36.9331 37.2114 36.9237C36.8722 36.9237 36.6637 37.1264 36.4268 37.2784C34.6038 38.4477 32.6253 39.2359 30.499 39.6638C28.9166 39.981 27.3172 40.0786 25.7102 39.9359C22.9604 39.6938 20.4059 38.8568 18.0635 37.3985C16.123 36.1899 14.4894 34.6622 13.1667 32.8155C11.8629 30.9931 10.9286 28.9962 10.4624 26.806C10.2691 25.8939 10.18 24.9593 10.0417 24.034C10.0341 23.9833 10.0133 23.9345 10 23.8857C10 23.3152 10 22.7465 10 22.176L10 22.1816ZM37.4748 15.5041V14.1809H36.0667V15.5003H37.4786C37.4691 15.6035 37.452 15.7049 37.4502 15.8081C37.4464 16.2172 37.4502 16.6283 37.4502 17.0599H36.0592V18.6514H34.9032V20.0158H33.8211C33.8211 20.2204 33.8059 20.4081 33.823 20.592C33.8836 21.202 33.7093 21.7068 33.3568 22.2342C31.492 25.0137 30.048 28.009 28.8636 31.1301C28.6892 31.588 28.3727 31.8902 27.9141 32.0572C27.4859 32.213 27.0462 32.2487 26.599 32.1698C25.7727 32.0235 25.1094 31.6594 24.7797 30.8373C24.4973 30.1373 24.2036 29.4429 23.9098 28.7485C22.6648 25.8057 20.9839 23.1332 18.8273 20.7553C18.5013 20.3949 18.2019 20.0065 17.9271 19.6067C17.7262 19.3158 17.6694 18.9648 17.7546 18.6158C17.893 18.0509 18.5051 17.7524 19.1248 17.9401C19.8165 18.1484 20.4494 18.4806 21.0521 18.8729C22.8164 20.0196 24.2017 21.551 25.4998 23.1707C25.8333 23.5855 26.1479 24.0134 26.4796 24.4469C26.5099 24.4 26.5326 24.37 26.5478 24.3381C27.3248 22.786 28.0676 21.217 28.8863 19.6874C29.6026 18.3474 30.4043 17.0505 31.1604 15.7312C31.2552 15.566 31.3689 15.5059 31.5584 15.5191C31.8047 15.536 32.053 15.5228 32.3259 15.5228V14.1472H33.245V12.8053H34.5943C34.5943 12.2704 34.5905 11.7543 34.5981 11.24C34.6 11.0936 34.545 11.0092 34.4199 10.936C31.2021 9.08736 27.7625 8.49993 24.1297 9.29193C20.2959 10.129 17.2941 12.216 15.1736 15.4853C13.1231 18.6458 12.4579 22.1103 13.2103 25.7794C14.0896 30.0735 16.5266 33.3015 20.3983 35.4242C23.2617 36.9932 26.3431 37.468 29.5629 36.9256C32.6461 36.4076 35.2803 35.0094 37.4388 32.7667C39.8285 30.2837 41.1493 27.3165 41.3635 23.8951C41.5549 20.8153 40.7817 17.9664 39.0856 15.3708C39.0193 15.2695 38.9416 15.1756 38.8411 15.0386C38.8317 15.2376 38.826 15.3764 38.8203 15.5022C38.3579 15.5022 37.9201 15.5022 37.4843 15.5022L37.4748 15.5041ZM40.596 12.505C43.4367 16.206 44.6761 20.3124 44.1758 24.8917C43.6755 29.4692 41.5302 33.1946 38.013 36.1786C38.0244 36.1955 38.0357 36.2105 38.049 36.2274H38.5645C50.6607 36.2274 62.7589 36.2331 74.8551 36.2181C75.941 36.2181 77.0326 36.1242 78.109 35.9891C79.9131 35.762 81.6338 35.2346 83.2352 34.36C84.8535 33.4761 86.2009 32.2956 87.2584 30.7942C88.3992 29.1783 89.0985 27.3822 89.5022 25.4604C89.866 23.7262 89.8338 22.0071 89.3562 20.3011C88.6001 17.6079 87.0499 15.4309 84.8517 13.7117C81.992 11.4765 78.6964 10.3805 75.075 10.3692C64.2503 10.3373 53.4256 10.3579 42.601 10.3579C42.5119 10.3579 42.4247 10.3673 42.3091 10.373V11.3508H41.1304V12.505H40.5941H40.596ZM37.4426 10.6695C37.0048 10.6695 36.5917 10.6657 36.1767 10.6751C36.1331 10.6751 36.0611 10.7614 36.0573 10.8121C36.044 11.0054 36.0478 11.2006 36.0516 11.3958C36.0554 11.5966 35.989 11.8819 36.0952 11.9738C36.2184 12.0808 36.4931 12.0264 36.7016 12.0301C36.9461 12.0358 37.1924 12.0301 37.4426 12.0301V10.6657V10.6695Z" fill="white" fill-opacity="0.5"/>
<path d="M47.9109 0V1.41884H46.4554V0H47.9109Z" fill="white" fill-opacity="0.5"/>
<path d="M43.6868 5.75398H42.3015V7.09963H40.9939V4.33889H42.3091V2.8994C42.4228 2.8994 42.5119 2.8994 42.6009 2.8994C43.4025 2.89377 44.206 2.88814 45.0077 2.88251L45.0001 2.875V4.32012H43.6773V5.75961L43.6849 5.7521L43.6868 5.75398Z" fill="white" fill-opacity="0.5"/>
<path d="M43.6774 5.76141H45.1953V7.09768H43.6868C43.6868 6.64913 43.6868 6.20058 43.6868 5.75391L43.6793 5.76141H43.6774Z" fill="white" fill-opacity="0.5"/>
<path d="M45.0059 2.88463V1.47705H46.4006V2.87713C45.9326 2.87713 45.4645 2.87713 44.9983 2.87713L45.0059 2.88463Z" fill="white" fill-opacity="0.5"/>
<path d="M47.8789 4.30502H46.4594C46.4594 3.87336 46.4575 3.45109 46.4651 3.02694C46.4651 2.99128 46.5371 2.92747 46.575 2.92559C47.0052 2.91808 47.4335 2.92184 47.8789 2.92184V4.30502Z" fill="white" fill-opacity="0.5"/>
<path d="M40.9523 8.45483H39.6049V7.15234H40.9523V8.45483Z" fill="white" fill-opacity="0.5"/>
<path d="M42.3243 8.45295V7.15234H43.6679V8.45295H42.3243Z" fill="white" fill-opacity="0.5"/>
<path d="M38.2404 5.82365C38.6478 5.82365 39.0401 5.82365 39.4324 5.82365C39.4759 5.82365 39.5195 5.83304 39.5764 5.83867V7.10174H38.2404V5.82178V5.82365Z" fill="white" fill-opacity="0.5"/>
<path d="M88.7289 11.5124C88.727 12.3044 88.1073 12.9068 87.3 12.9049C86.5382 12.903 85.9166 12.2743 85.9185 11.5067C85.9185 10.7485 86.5874 10.0654 87.3322 10.0973C88.2551 10.1367 88.7611 10.8555 88.7289 11.5105V11.5124ZM87.3038 12.7904C88.0561 12.7923 88.6379 12.2593 88.6303 11.5236C88.6208 10.7128 88.058 10.2305 87.3379 10.2099C86.6121 10.1892 86.0284 10.786 86.0284 11.5274C86.0284 12.2424 86.5798 12.7886 87.3038 12.7904Z" fill="white" fill-opacity="0.5"/>
<path d="M74.7718 18.3732C74.7793 18.1949 74.785 18.0729 74.7926 17.9322H75.7951C75.8008 17.9735 75.8122 18.0166 75.8122 18.0579C75.8122 19.062 75.8273 20.0661 75.8046 21.0683C75.7913 21.6595 75.5506 22.1606 74.9897 22.4477C74.641 22.626 74.2601 22.6654 73.8716 22.6748C73.3296 22.686 72.8028 22.6241 72.3025 22.4045C72.2362 22.3745 72.1698 22.3426 72.0902 22.3032C72.2134 22.0442 72.3271 21.804 72.4465 21.5525C72.8862 21.7833 73.3296 21.894 73.8091 21.8809C74.4913 21.8621 74.8684 21.4249 74.7585 20.7042C74.3662 21.1246 73.9057 21.3348 73.3372 21.2541C72.8994 21.1921 72.5375 21.0045 72.2551 20.6629C71.7643 20.0661 71.7794 18.9944 72.2968 18.392C72.6133 18.0223 73.0302 17.8515 73.5096 17.8308C73.9967 17.8083 74.3984 18.0072 74.7718 18.3751V18.3732ZM74.7926 19.5593C74.7888 19.0188 74.4155 18.6641 73.8527 18.666C73.3163 18.6679 72.9335 19.0338 72.9373 19.5387C72.943 20.0792 73.3182 20.4395 73.8773 20.4358C74.4155 20.432 74.7964 20.0698 74.7926 19.5612V19.5593Z" fill="white" fill-opacity="0.5"/>
<path d="M79.7785 26.0273V24.2612H80.7962V29.2253H79.7993C79.7899 29.0883 79.7785 28.9457 79.7652 28.7599C79.6591 28.8556 79.5871 28.9269 79.5094 28.9907C78.7931 29.5688 77.6844 29.3642 77.2088 28.5234C76.7805 27.7633 76.7938 26.9788 77.2562 26.2225C77.7413 25.4305 79.0072 25.2559 79.6174 25.9109C79.6458 25.9428 79.6875 25.9635 79.7766 26.0254L79.7785 26.0273ZM79.7956 27.3729C79.7937 27.3391 79.7937 27.2566 79.7823 27.174C79.7027 26.5753 79.1076 26.2206 78.541 26.4327C77.9687 26.6466 77.747 27.4912 78.1203 28.0411C78.2738 28.2681 78.4785 28.4239 78.7646 28.4483C79.3805 28.5027 79.7937 28.0899 79.7956 27.3729Z" fill="white" fill-opacity="0.5"/>
<path d="M67.7921 17.3133C67.6121 17.5685 67.4397 17.8125 67.2577 18.0715C67.1175 17.9946 66.983 17.9195 66.8465 17.8463C66.5281 17.6736 66.1889 17.5929 65.8232 17.6248C65.5484 17.6492 65.3551 17.8013 65.3229 18.0284C65.2963 18.2179 65.4195 18.4 65.6791 18.4882C66.0354 18.6083 66.3993 18.7059 66.7593 18.8128C66.8389 18.8372 66.9166 18.8635 66.9943 18.8935C67.7258 19.1788 68.0082 19.6086 67.9438 20.3368C67.8888 20.9467 67.4131 21.4591 66.7499 21.5773C65.8194 21.7444 64.9666 21.5492 64.2086 20.9768C64.1726 20.9505 64.1384 20.9223 64.0873 20.8811C64.3033 20.6277 64.5042 20.3931 64.7108 20.1491C65.122 20.4682 65.5484 20.7065 66.0619 20.7159C66.2609 20.7197 66.4789 20.699 66.6532 20.6164C66.7707 20.562 66.8939 20.3818 66.8977 20.2561C66.9015 20.1322 66.784 19.9445 66.6684 19.892C66.3633 19.7512 66.0297 19.6724 65.7114 19.5598C65.4347 19.4622 65.1542 19.374 64.8908 19.2483C64.0304 18.8429 64.11 17.4559 64.8908 16.9961C65.7227 16.5063 66.9962 16.6339 67.7921 17.3095V17.3133Z" fill="white" fill-opacity="0.5"/>
<path d="M48.4321 28.5512C48.6406 28.3035 48.8339 28.0745 48.9874 27.8906C49.4005 28.0614 49.7682 28.2547 50.1585 28.3635C50.3841 28.4255 50.6513 28.3767 50.8938 28.3373C51.089 28.3054 51.2027 28.1477 51.216 27.9488C51.2274 27.7705 51.1478 27.6222 50.9715 27.5565C50.6759 27.4496 50.3746 27.3557 50.0752 27.2562C49.861 27.1849 49.645 27.123 49.4327 27.0423C48.8832 26.834 48.6084 26.4211 48.6084 25.8487C48.6084 25.3194 48.832 24.8896 49.3077 24.6231C49.8459 24.3228 50.4239 24.3397 51.0037 24.4598C51.4055 24.5443 51.775 24.7057 52.0953 24.9929C51.9153 25.2462 51.7428 25.4902 51.5723 25.7304C51.3202 25.6103 51.0909 25.4846 50.8465 25.3907C50.5774 25.2875 50.295 25.2274 50.0069 25.3232C49.825 25.3832 49.6791 25.4771 49.6582 25.6891C49.6374 25.905 49.7322 26.0589 49.9311 26.1283C50.2362 26.2353 50.5527 26.3085 50.854 26.423C51.1762 26.5449 51.5173 26.6519 51.794 26.8452C52.5009 27.3407 52.3511 28.5174 51.703 28.9679C51.3468 29.2156 50.9469 29.3132 50.53 29.3169C49.8421 29.3245 49.2034 29.133 48.6406 28.7258C48.5743 28.6788 48.5155 28.6207 48.4321 28.5493V28.5512Z" fill="white" fill-opacity="0.5"/>
<path d="M52.624 16.7706C52.4099 17.2998 52.2166 17.7765 52.0214 18.2513C51.5874 19.3098 51.1515 20.3684 50.7232 21.4287C50.6721 21.5545 50.6076 21.6014 50.475 21.592C50.331 21.5826 50.185 21.5732 50.0448 21.592C49.789 21.6258 49.6658 21.532 49.5691 21.288C49.0044 19.8729 48.4169 18.4653 47.8389 17.054C47.8067 16.9733 47.7878 16.8869 47.7537 16.7743C48.1194 16.7743 48.4586 16.7668 48.796 16.7818C48.8509 16.7837 48.9267 16.8719 48.9513 16.9357C49.3304 17.9192 49.7037 18.9063 50.0789 19.8917C50.1073 19.9648 50.1396 20.038 50.1945 20.1713C50.3897 19.6664 50.5603 19.2254 50.7289 18.7825C50.962 18.1688 51.1951 17.5532 51.4206 16.9357C51.4661 16.8081 51.5324 16.7631 51.667 16.7668C51.9683 16.7743 52.2696 16.7687 52.6221 16.7687L52.624 16.7706Z" fill="white" fill-opacity="0.5"/>
<path d="M56.7384 20.1038H54.1232C54.2046 20.8752 55.0461 21.046 55.9519 20.4792C56.1414 20.6425 56.3328 20.8076 56.5318 20.9784C55.9481 21.6409 55.2109 21.7742 54.4188 21.5696C53.6797 21.38 53.2268 20.8752 53.0903 20.1113C52.9179 19.1411 53.4125 18.2308 54.2956 17.9324C55.3398 17.5796 56.4768 18.0957 56.6739 19.3381C56.7118 19.5783 56.7156 19.8242 56.7365 20.1038H56.7384ZM55.7036 19.447C55.6847 18.959 55.3208 18.6005 54.8869 18.6249C54.3979 18.6512 54.0644 19.0772 54.108 19.447H55.7036Z" fill="white" fill-opacity="0.5"/>
<path d="M75.8747 27.7576H73.2671C73.286 28.0804 73.4566 28.2944 73.7067 28.4088C74.207 28.6378 74.6618 28.5083 75.0769 28.1423C75.2683 28.3112 75.4578 28.4764 75.6568 28.6509C75.3422 29.0469 74.9404 29.2571 74.4723 29.3134C73.8754 29.3848 73.3088 29.2778 72.8445 28.8649C72.2305 28.3206 72.1111 27.6168 72.2987 26.8736C72.4806 26.1492 72.9657 25.6612 73.7295 25.5411C74.8324 25.3685 75.6037 25.9559 75.8065 26.9881C75.8538 27.2265 75.8519 27.4742 75.8747 27.7576ZM74.8305 27.127C74.8134 26.6465 74.4913 26.3162 74.0554 26.3144C73.6214 26.3125 73.2746 26.6616 73.2633 27.127H74.8305Z" fill="white" fill-opacity="0.5"/>
<path d="M54.6746 27.7539C54.7277 28.5441 55.5899 28.7205 56.4882 28.1556C56.672 28.317 56.8577 28.4784 57.051 28.6492C56.7478 29.0489 56.3385 29.246 55.8723 29.3098C54.9494 29.4337 54.0379 29.032 53.7271 28.0899C53.3727 27.0126 53.9071 25.804 55.0517 25.5525C56.1281 25.316 57.0965 25.9917 57.2235 27.0877C57.274 27.5319 57.0725 27.7539 56.6189 27.7539C55.9765 27.7539 55.336 27.7539 54.6765 27.7539H54.6746ZM56.221 27.1215C56.2513 26.7086 55.9367 26.3539 55.5103 26.3145C55.0688 26.2732 54.6954 26.6185 54.65 27.1215H56.221Z" fill="white" fill-opacity="0.5"/>
<path d="M66.9319 29.2248H65.9332C65.9256 29.0784 65.9162 28.9339 65.9086 28.7912C65.8783 28.7687 65.8479 28.7462 65.8195 28.7237C65.7854 28.7894 65.7665 28.8701 65.7172 28.9189C65.3135 29.3186 64.836 29.4181 64.3034 29.2267C63.8543 29.0653 63.5663 28.6317 63.5606 28.0968C63.553 27.2654 63.5587 26.434 63.5587 25.582H64.5839C64.5839 25.657 64.5839 25.7359 64.5839 25.8147C64.5839 26.4359 64.5782 27.059 64.5858 27.6802C64.5915 28.2282 65.0331 28.536 65.5201 28.3371C65.8328 28.2094 65.9124 27.9354 65.9162 27.6408C65.9256 27.0496 65.9199 26.4565 65.9199 25.8653C65.9199 25.7753 65.9199 25.6871 65.9199 25.5801H66.9319V29.2229V29.2248Z" fill="white" fill-opacity="0.5"/>
<path d="M77.3851 21.5604V17.9289H78.3895C78.399 18.0659 78.4066 18.1973 78.4198 18.3774C78.4975 18.3192 78.5525 18.2892 78.5942 18.2461C78.9997 17.8313 79.4811 17.7243 80.025 17.912C80.5651 18.0978 80.7754 18.537 80.7963 19.0456C80.8285 19.8751 80.8057 20.7065 80.8057 21.5586C80.4912 21.5586 80.1898 21.5679 79.8904 21.5492C79.8449 21.5454 79.771 21.4141 79.771 21.339C79.7616 20.7759 79.7672 20.2148 79.7635 19.6518C79.7635 19.5316 79.7559 19.4115 79.7388 19.2933C79.6839 18.9498 79.4432 18.749 79.0983 18.7509C78.7515 18.7509 78.4824 18.9461 78.454 19.2858C78.4142 19.7775 78.4198 20.273 78.4085 20.7666C78.4047 20.9768 78.4161 21.187 78.4009 21.3953C78.3971 21.4535 78.3232 21.5511 78.2777 21.5529C77.9859 21.5679 77.6921 21.5604 77.3889 21.5604H77.3851Z" fill="white" fill-opacity="0.5"/>
<path d="M61.4134 28.0876C61.6181 28.279 61.8095 28.4573 61.9971 28.6337C61.6977 29.1705 60.8354 29.4482 60.0489 29.2775C59.2928 29.1142 58.6655 28.4216 58.6011 27.7066C58.4969 26.5299 59.1412 25.888 59.8291 25.629C60.5928 25.3419 61.5593 25.5633 61.9895 26.1282C61.7905 26.3384 61.5896 26.5505 61.3717 26.7795C61.095 26.4942 60.7691 26.3178 60.3787 26.4116C60.193 26.4567 59.9959 26.5636 59.8651 26.7006C59.4937 27.0929 59.5164 27.7986 59.8898 28.1777C60.1911 28.4855 60.7691 28.645 61.4153 28.0876H61.4134Z" fill="white" fill-opacity="0.5"/>
<path d="M60.2062 17.835V18.8672C60.1228 18.8823 60.0432 18.8954 59.9637 18.9104C59.3894 19.0249 59.0749 19.3777 59.0389 19.9595C59.0218 20.2204 59.0142 20.4813 59.0085 20.7421C59.0028 21.003 59.0085 21.2639 59.0085 21.5529C58.6807 21.5529 58.3661 21.5585 58.0534 21.5435C58.0212 21.5435 57.9719 21.4178 57.97 21.3502C57.9644 20.5639 57.9662 19.7775 57.9662 18.993C57.9662 18.642 57.9662 18.2929 57.9662 17.927H58.9915C59.0028 18.1278 59.0123 18.3211 59.0237 18.5163C59.0408 18.5257 59.0559 18.5351 59.0711 18.5426C59.3136 18.0903 59.6566 17.805 60.2062 17.8313V17.835Z" fill="white" fill-opacity="0.5"/>
<path d="M69.7686 25.5805C69.7781 25.7907 69.7876 25.9877 69.797 26.1867C70.0946 25.7888 70.4129 25.4603 70.9777 25.5279V26.5658C70.8905 26.5733 70.809 26.5751 70.7294 26.5864C70.2064 26.6634 69.8425 27.0425 69.816 27.5736C69.7914 28.0597 69.7876 28.5458 69.7876 29.0337C69.7876 29.1876 69.7421 29.2477 69.5791 29.2402C69.3612 29.2289 69.1395 29.2458 68.9215 29.2308C68.8685 29.227 68.7775 29.1426 68.7756 29.0957C68.7699 27.9414 68.7756 26.7891 68.7756 25.6349C68.7756 25.6217 68.787 25.6086 68.7983 25.5805H69.7667H69.7686Z" fill="white" fill-opacity="0.5"/>
<path d="M70.4376 21.5622C70.1344 21.5622 69.8407 21.5678 69.547 21.5565C69.5034 21.5565 69.4276 21.4833 69.4276 21.442C69.4219 20.2766 69.4219 19.1092 69.4219 17.9287H70.4376V21.5622Z" fill="white" fill-opacity="0.5"/>
<path d="M62.7 21.5621C62.4006 21.5621 62.1125 21.5715 61.8283 21.5546C61.7733 21.5508 61.688 21.4551 61.6785 21.3932C61.6558 21.2468 61.671 21.0948 61.671 20.9446C61.671 20.025 61.671 19.1035 61.671 18.1839V17.9268H62.6981V21.5602L62.7 21.5621Z" fill="white" fill-opacity="0.5"/>
<path d="M69.403 16.5776H70.4737V17.4578C70.1553 17.4578 69.8332 17.4616 69.5129 17.4522C69.475 17.4522 69.4106 17.3678 69.4068 17.319C69.3954 17.0806 69.4011 16.8404 69.4011 16.5776H69.403Z" fill="white" fill-opacity="0.5"/>
<path d="M61.6615 16.5757H62.7322C62.7322 16.8403 62.736 17.0974 62.7265 17.3545C62.7265 17.3921 62.6564 17.4559 62.6166 17.4578C62.302 17.4672 61.9875 17.4634 61.6615 17.4634V16.5776V16.5757Z" fill="white" fill-opacity="0.5"/>
<path d="M87.6603 11.6976C87.7683 11.8553 87.8725 12.0054 87.9824 12.1649C87.7853 12.2325 87.6659 12.1856 87.5636 12.026C87.4537 11.8515 87.357 11.6188 87.05 11.752C87.0444 11.8834 87.0387 12.0223 87.0311 12.1762H86.743C86.743 11.844 86.743 11.5118 86.743 11.1777C86.7468 10.7254 86.7468 10.7217 87.2073 10.7217C87.3419 10.7217 87.4783 10.7367 87.611 10.7592C87.8081 10.793 87.9388 10.9131 87.9786 11.1083C88.0203 11.3091 87.9502 11.4743 87.7815 11.5981C87.7474 11.6244 87.7133 11.6526 87.6603 11.6939V11.6976ZM87.2756 11.478C87.5674 11.478 87.6944 11.3917 87.6925 11.2134C87.6906 11.0557 87.5485 10.9863 87.2737 10.9694C87.0633 10.9563 87.0425 11.0595 87.0406 11.2265C87.0368 11.4161 87.0898 11.5193 87.2756 11.478Z" fill="white" fill-opacity="0.5"/>
</svg>
