<svg width="100" height="40" viewBox="0 0 100 40" fill="none" xmlns="http://www.w3.org/2000/svg">
<path d="M0 23.3145C1.54462 22.9558 3.03642 22.6092 4.58252 22.2505C3.78379 21.0772 3.0105 19.9414 2.23721 18.805C2.24699 18.7933 2.25629 18.7822 2.26607 18.7705C2.69355 18.9933 3.12153 19.2152 3.54853 19.4385C4.84273 20.1161 6.13448 20.7986 7.43406 21.4661C7.54949 21.5253 7.72214 21.5238 7.85518 21.4937C9.31421 21.1632 10.7703 20.8214 12.2274 20.4826C12.8133 20.3462 13.3959 20.1928 13.9862 20.0797C14.2597 20.0273 14.4582 19.8986 14.6465 19.7113C16.7008 17.6667 18.758 15.6255 20.8153 13.5843C22.5154 11.8975 24.2166 10.2116 25.9177 8.52621C27.0916 7.36315 28.2659 6.20057 29.4408 5.03798C29.4633 5.01614 29.4877 4.99624 29.5455 5.00061C29.3166 5.33215 29.0886 5.66466 28.8587 5.99572C27.5034 7.94662 26.1491 9.8985 24.7918 11.8484C23.5132 13.6853 22.2303 15.5192 20.9512 17.3555C19.7871 19.0263 18.6274 20.7001 17.4585 22.367C17.3318 22.5481 17.3636 22.6476 17.5206 22.7845C19.1963 24.2412 20.8671 25.7033 22.5379 27.1659C23.4037 27.9236 24.2655 28.6857 25.1307 29.4449C25.1855 29.493 25.2501 29.5294 25.3102 29.5711C25.3019 29.5944 25.2936 29.6177 25.2853 29.6415C24.9957 29.7279 24.7062 29.8158 24.4161 29.9007C21.928 30.6264 19.4394 31.3516 16.9508 32.0773C14.7189 32.7288 12.4871 33.3792 10.2572 34.036C10.0743 34.0899 9.96131 34.0768 9.82045 33.9239C8.17849 32.1356 6.52528 30.3575 4.87599 28.5755C3.37098 26.9494 1.86744 25.3217 0.362923 23.6956C0.255318 23.5791 0.1438 23.4665 0 23.316L0 23.3145ZM2.4578 24.0533C2.53215 24.1456 2.56834 24.1965 2.60992 24.2417C3.68157 25.3999 4.75468 26.5576 5.82633 27.7158C7.3108 29.3197 8.79526 30.923 10.2768 32.5293C10.3722 32.6327 10.4553 32.6642 10.5937 32.6162C10.8544 32.5263 11.123 32.4584 11.3876 32.3807C13.1484 31.8657 14.9087 31.3502 16.67 30.8361C18.3692 30.3405 20.0689 29.8473 21.7681 29.3512C22.0752 29.2614 22.3794 29.1629 22.7365 29.0522C20.6587 27.2338 18.6221 25.4518 16.5732 23.6587C15.6399 24.9999 14.7175 26.3246 13.796 27.6508C12.8711 28.9818 11.9476 30.3138 10.9997 31.6793C10.8001 31.3842 10.6309 31.1313 10.4592 30.8798C9.48393 29.4517 8.50668 28.0246 7.53335 26.595C6.84663 25.5868 6.16285 24.5761 5.48249 23.564C5.4008 23.4427 5.32744 23.3849 5.16554 23.4291C4.85251 23.5145 4.53116 23.567 4.2147 23.6398C3.64586 23.7708 3.07849 23.9063 2.4578 24.0524V24.0533ZM12.5492 21.8005L12.5189 21.7228C11.4825 21.9622 10.446 22.2015 9.40959 22.4408C9.40959 22.4631 9.4091 22.485 9.40861 22.5073C9.90946 22.767 10.4084 23.0301 10.9141 23.2796C10.9581 23.3014 11.0648 23.2505 11.1132 23.2039C11.5954 22.7398 12.0714 22.2689 12.5487 21.8005H12.5492Z" fill="white" fill-opacity="0.5"/>
<path d="M75.8763 27.76C75.958 27.3551 76.0314 26.9755 76.1111 26.5979C76.4398 25.0353 76.7709 23.4737 77.1001 21.9111C77.3975 20.4986 77.6944 19.086 77.9898 17.6734C78.206 16.6395 78.4246 15.606 78.6301 14.5701C78.6623 14.407 78.7254 14.3633 78.8839 14.3638C80.7739 14.3682 82.6643 14.3551 84.5542 14.373C85.3021 14.3803 86.046 14.4527 86.7591 14.7264C87.845 15.1434 88.5082 15.8992 88.698 17.0409C88.8457 17.9283 88.7684 18.7957 88.3762 19.6185C87.9878 20.4335 87.3182 20.9282 86.4794 21.2179C86.2348 21.3024 85.9815 21.3607 85.6806 21.4451C85.8068 21.5077 85.8954 21.5509 85.9834 21.5956C86.6872 21.9529 87.0003 22.5563 87.0991 23.3057C87.2033 24.0941 87.0262 24.8659 86.9885 25.6455C86.9611 26.2144 86.9871 26.7862 87.0017 27.3566C87.0042 27.459 87.0697 27.56 87.1274 27.7211C87.3515 27.3595 87.5437 27.0546 87.7305 26.7459C88.7924 24.9901 89.8543 23.2339 90.9142 21.4767C92.2539 19.2559 93.5989 17.0385 94.9225 14.8085C95.1186 14.4784 95.3187 14.3264 95.7202 14.3556C96.2954 14.3973 96.8765 14.3711 97.4546 14.3628C97.6234 14.3604 97.6953 14.408 97.7246 14.5832C97.9907 16.1584 98.2646 17.7321 98.5405 19.3054C98.8202 20.9029 99.1054 22.4995 99.3866 24.0965C99.5911 25.2566 99.7941 26.4168 99.9956 27.5774C100.005 27.6303 99.9965 27.6862 99.9965 27.7609C99.9114 27.7667 99.8322 27.776 99.753 27.7765C99.1337 27.7779 98.5145 27.7716 97.8953 27.7803C97.7153 27.7828 97.6405 27.7318 97.6131 27.5454C97.4615 26.5163 97.2913 25.4896 97.1396 24.4606C97.1132 24.28 97.0531 24.2169 96.8643 24.2178C95.2106 24.2246 93.5564 24.2246 91.9027 24.2178C91.7349 24.2174 91.6567 24.2897 91.5818 24.4178C90.9675 25.4717 90.3448 26.5207 89.7369 27.5784C89.6454 27.7376 89.5456 27.7813 89.372 27.7803C87.9139 27.774 86.4559 27.7677 84.9978 27.7842C84.7313 27.7871 84.6383 27.6711 84.6271 27.4585C84.6031 27.0008 84.5718 26.5401 84.5968 26.0833C84.6344 25.3911 84.7391 24.7018 84.7709 24.0096C84.7851 23.6955 84.7504 23.3533 84.6354 23.064C84.4109 22.4999 83.8812 22.3393 83.3275 22.2898C82.8824 22.2495 82.4334 22.2461 81.9859 22.2422C81.2121 22.2354 80.4378 22.2456 79.664 22.2368C79.4782 22.2349 79.3965 22.2815 79.3569 22.4766C79.013 24.1601 78.6526 25.8401 78.3087 27.5236C78.2676 27.726 78.1869 27.7852 77.9864 27.7818C77.3677 27.7706 76.7479 27.7779 76.1287 27.7765C76.0505 27.7765 75.9722 27.7663 75.8754 27.7595L75.8763 27.76ZM79.7888 20.4699C79.893 20.4796 79.9629 20.4918 80.0328 20.4918C81.1153 20.4927 82.1982 20.5092 83.2801 20.484C83.7315 20.4733 84.1928 20.4199 84.6281 20.3049C85.8543 19.9806 86.4808 19.1049 86.4119 17.854C86.3771 17.2229 86.0861 16.72 85.4645 16.5176C85.0316 16.3769 84.5635 16.2938 84.1081 16.2798C83.0433 16.2458 81.9761 16.2754 80.9103 16.2633C80.701 16.2608 80.6335 16.3317 80.5958 16.523C80.4153 17.4399 80.2202 18.354 80.0314 19.2695C79.9507 19.6612 79.8724 20.0539 79.7883 20.4704L79.7888 20.4699ZM92.7083 22.4334H96.8496C96.5723 20.5257 96.2979 18.6404 96.0235 16.755C96.0005 16.7511 95.9775 16.7472 95.954 16.7429C94.8785 18.6287 93.8024 20.5146 92.7083 22.4334Z" fill="white" fill-opacity="0.5"/>
<path d="M73.1697 22.4852H69.4891C69.5815 22.0565 69.6656 21.6643 69.7503 21.2726C69.7552 21.2488 69.7649 21.2265 69.7708 21.2027C69.8478 20.8904 70.0525 20.7343 70.3851 20.7343C72.031 20.7343 73.6769 20.7343 75.3223 20.7343C75.4181 20.7343 75.5135 20.7343 75.647 20.7343C75.5287 21.2959 75.4191 21.8231 75.3066 22.3492C74.9349 24.0851 74.5602 25.82 74.1939 27.5564C74.1587 27.7243 74.0892 27.784 73.918 27.7796C73.5042 27.7699 73.0899 27.7767 72.6483 27.7767V26.4088C72.6287 26.3986 72.6091 26.3879 72.5896 26.3778C72.4551 26.5209 72.3303 26.6743 72.1846 26.8049C71.02 27.8505 69.6524 28.2291 68.1019 28.0398C67.134 27.9214 66.2247 27.6525 65.4094 27.1136C64.3363 26.4049 63.6471 25.4181 63.2886 24.1968C62.865 22.7541 62.9579 21.3085 63.2641 19.8624C63.5683 18.4246 64.1964 17.1485 65.247 16.1014C66.4512 14.9015 67.9112 14.234 69.6187 14.0976C70.5607 14.0224 71.492 14.0758 72.4037 14.316C74.3181 14.8199 75.691 16.082 75.8573 18.1999C75.8681 18.3339 75.8789 18.4678 75.8926 18.6363C75.6769 18.6363 75.492 18.6363 75.3076 18.6363C74.7779 18.6363 74.2486 18.6338 73.7189 18.6382C73.5932 18.6392 73.5301 18.613 73.5174 18.4693C73.3976 17.0727 72.5177 16.2868 71.2279 16.0446C69.6153 15.7417 68.189 16.098 67.044 17.3208C66.3944 18.0144 65.9772 18.8401 65.7067 19.7391C65.3649 20.8755 65.2387 22.0376 65.4426 23.2099C65.6671 24.4997 66.3128 25.5079 67.6158 25.9579C69.0318 26.4472 70.8953 26.2549 72.0295 24.9346C72.6067 24.2623 72.9408 23.4735 73.1677 22.6322C73.1775 22.5958 73.1692 22.5546 73.1692 22.4852H73.1697Z" fill="white" fill-opacity="0.5"/>
<path d="M62.7319 20.0497C62.704 21.5627 62.4487 23.0229 61.7468 24.3801C60.8395 26.1354 59.4372 27.3048 57.5062 27.8271C56.0531 28.2198 54.6048 28.1902 53.1824 27.7038C51.786 27.2261 50.7677 26.3058 50.145 24.9752C49.6941 24.0122 49.5542 22.9865 49.5855 21.9331C49.6158 20.9123 49.7562 19.9099 50.0878 18.9376C50.5324 17.6342 51.2499 16.511 52.328 15.6343C53.6574 14.5533 55.1971 14.045 56.9085 14.0635C58.5676 14.0814 60.0462 14.5751 61.2083 15.8032C62.03 16.6716 62.482 17.7211 62.6444 18.8924C62.6977 19.2749 62.704 19.6638 62.7319 20.0497ZM51.9098 22.2763C51.9347 22.4865 51.9626 22.8816 52.0301 23.2699C52.2854 24.7354 53.2436 25.8616 54.7877 26.1179C56.4683 26.3965 57.8525 25.8975 58.9183 24.5704C59.5536 23.7796 59.9401 22.8704 60.1567 21.8909C60.437 20.6215 60.5162 19.3478 60.0716 18.0959C59.7596 17.2172 59.1809 16.5576 58.2898 16.2241C56.3411 15.495 54.2399 16.2163 53.1086 17.9599C52.2903 19.222 51.9636 20.6152 51.9098 22.2763Z" fill="white" fill-opacity="0.5"/>
<path d="M47.158 18.8124C47.0362 18.3241 46.978 17.8692 46.8088 17.459C46.4375 16.5576 45.6672 16.1343 44.7427 15.9979C43.4662 15.8096 42.2933 16.0882 41.2964 16.9295C40.4615 17.6343 39.9396 18.5488 39.6056 19.5726C39.2192 20.758 39.0856 21.973 39.2876 23.2045C39.473 24.334 39.9939 25.286 41.0783 25.7903C42.2933 26.3558 43.5366 26.4073 44.7217 25.6869C45.4329 25.2544 45.8658 24.5797 46.1827 23.8287C46.2076 23.7695 46.2267 23.7074 46.2522 23.6482C46.327 23.4734 46.3588 23.2297 46.4923 23.1438C46.6312 23.0545 46.8704 23.1156 47.0655 23.1152C47.6182 23.1137 48.1709 23.1152 48.7809 23.1152C48.6909 23.4297 48.6234 23.7147 48.528 23.9904C48.0457 25.3835 47.2402 26.5364 45.944 27.3019C45.2001 27.7412 44.3832 27.98 43.52 28.0548C42.3167 28.1596 41.1453 28.0271 40.034 27.5407C39.0891 27.1272 38.3285 26.4879 37.7743 25.6175C37.0093 24.4166 36.8034 23.0904 36.867 21.6987C36.9277 20.3696 37.1908 19.0901 37.7958 17.8964C38.3578 16.7877 39.1478 15.8669 40.2072 15.1941C42.0565 14.0194 44.0614 13.7825 46.1543 14.3359C47.4886 14.6888 48.5148 15.4703 49.0704 16.7688C49.3248 17.3634 49.4309 17.9906 49.4206 18.6347C49.4197 18.6949 49.3326 18.8041 49.2842 18.8051C48.5603 18.8163 47.8369 18.8129 47.159 18.8129L47.158 18.8124Z" fill="white" fill-opacity="0.5"/>
<path d="M35.0549 24.609C34.8617 25.2861 34.5942 25.8584 34.2019 26.371C33.4398 27.3662 32.4225 27.8894 31.1728 28.0103C30.2909 28.0953 29.4301 28.0472 28.6147 27.6826C27.3254 27.106 26.714 26.0444 26.5443 24.7065C26.3917 23.5027 26.5287 22.3236 26.9767 21.1877C27.5979 19.6125 28.6103 18.3878 30.2694 17.8451C31.6013 17.4092 32.9361 17.434 34.1613 18.2281C34.8441 18.6703 35.2471 19.3242 35.4741 20.0902C35.6717 20.7586 35.6736 21.444 35.6418 22.1314C35.6296 22.3891 35.5949 22.6464 35.589 22.9042C35.5846 23.0891 35.4985 23.1289 35.3298 23.1275C34.5477 23.1212 33.7656 23.1246 32.9835 23.1246C31.3298 23.1246 29.6761 23.1294 28.0224 23.1192C27.7769 23.1178 27.6913 23.194 27.6883 23.4318C27.68 24.0299 27.6595 24.625 27.8556 25.2056C28.2352 26.3312 29.1381 27.0113 30.333 27.0594C31.9495 27.1239 33.2041 26.3225 33.7979 24.8284C33.8678 24.6527 33.9549 24.5973 34.1354 24.6061C34.4259 24.6196 34.7179 24.6099 35.0554 24.6099L35.0549 24.609ZM27.8903 22.1115C27.9544 22.128 27.9857 22.1425 28.0165 22.1425C30.1011 22.1445 32.1853 22.1445 34.2699 22.1469C34.4073 22.1469 34.4596 22.0882 34.4582 21.9581C34.4552 21.6435 34.4846 21.3256 34.4508 21.0144C34.3501 20.08 33.9588 19.3077 33.0745 18.8713C32.3447 18.5106 31.5734 18.4767 30.7942 18.698C29.7485 18.9951 29.0256 19.6868 28.4876 20.5921C28.2107 21.0586 28.0087 21.5562 27.8903 22.111V22.1115Z" fill="white" fill-opacity="0.5"/>
</svg>
