<svg width="100" height="40" viewBox="0 0 100 40" fill="none" xmlns="http://www.w3.org/2000/svg">
<path d="M68.5044 28.2541C70.414 24.0395 70.8032 19.2931 69.6056 14.8236L66.3704 15.6905C67.3674 19.4115 67.0434 23.363 65.4536 26.8718C63.8638 30.3807 61.1065 33.2297 57.6515 34.9335C54.1966 36.6373 50.2577 37.0904 46.5061 36.2157C42.7546 35.3409 39.4223 33.1924 37.0773 30.1363C34.7322 27.0801 33.5193 23.3054 33.6454 19.4552C33.7714 15.6051 35.2285 11.9177 37.7685 9.02148C40.3084 6.12523 43.774 4.19927 47.5748 3.57176C51.3756 2.94426 55.2763 3.65402 58.6124 5.58013L60.2871 2.67952C56.2799 0.365975 51.5945 -0.486563 47.0292 0.267171C42.4639 1.0209 38.3012 3.33428 35.2503 6.81311C32.1995 10.2919 30.4492 14.721 30.2978 19.3456C30.1464 23.9702 31.6032 28.5043 34.42 32.1752C37.2369 35.8461 41.2394 38.4268 45.7456 39.4775C50.2518 40.5282 54.983 39.9839 59.1329 37.9374C63.2828 35.8909 66.5947 32.4688 68.5044 28.2541Z" fill="white" fill-opacity="0.5"/>
<path d="M66.0701 3.51031V7.18288H69.3716V9.24174H66.0701V12.9329H63.8215V9.24174H60.5379V7.18288H63.8215V3.51031H66.0701Z" fill="white" fill-opacity="0.5"/>
<path fill-rule="evenodd" clip-rule="evenodd" d="M55.7373 27.0667C54.9358 27.0667 54.2033 26.9645 53.54 26.7602C52.8767 26.5558 52.3066 26.2691 51.8299 25.8999C51.36 25.5242 50.9938 25.0727 50.7312 24.5453C50.4756 24.018 50.3477 23.4313 50.3477 22.7853C50.3477 22.3964 50.3927 22.0306 50.4825 21.6878C50.5792 21.3384 50.7278 21.022 50.9282 20.7386C51.1355 20.4485 51.398 20.1915 51.7159 19.9673C52.0406 19.7432 52.431 19.5554 52.8871 19.4037C52.1961 19.1071 51.6813 18.6951 51.3427 18.1678C51.0111 17.6404 50.8452 17.0076 50.8452 16.2694C50.8452 15.7091 50.9662 15.1916 51.208 14.717C51.4498 14.2358 51.7884 13.8205 52.2237 13.4711C52.659 13.1218 53.1738 12.8482 53.768 12.6505C54.3692 12.4461 55.0256 12.344 55.7373 12.344C56.449 12.344 57.102 12.4461 57.6962 12.6505C58.2973 12.8482 58.8156 13.1218 59.2509 13.4711C59.6862 13.8205 60.0247 14.2358 60.2666 14.717C60.5084 15.1916 60.6293 15.7091 60.6293 16.2694C60.6293 17.0076 60.4601 17.6404 60.1215 18.1678C59.7829 18.6951 59.2716 19.1071 58.5875 19.4037C59.0367 19.5554 59.4201 19.7432 59.738 19.9673C60.0627 20.1915 60.3253 20.4485 60.5257 20.7386C60.733 21.022 60.885 21.3384 60.9817 21.6878C61.0785 22.0306 61.1268 22.3964 61.1268 22.7853C61.1268 23.4313 60.9956 24.018 60.733 24.5453C60.4773 25.0727 60.1111 25.5242 59.6343 25.8999C59.1645 26.2691 58.5979 26.5558 57.9346 26.7602C57.2712 26.9645 56.5388 27.0667 55.7373 27.0667ZM55.7373 24.753C56.0966 24.753 56.4075 24.7002 56.6701 24.5948C56.9327 24.4893 57.1469 24.3476 57.3127 24.1696C57.4854 23.985 57.6098 23.7708 57.6858 23.5269C57.7687 23.2764 57.8102 23.0095 57.8102 22.726C57.8102 22.4162 57.7756 22.1327 57.7066 21.8757C57.6375 21.6186 57.5234 21.4011 57.3645 21.2231C57.2056 21.0385 56.9914 20.8968 56.7219 20.7979C56.4594 20.6924 56.1311 20.6397 55.7373 20.6397C55.3434 20.6397 55.0118 20.6924 54.7423 20.7979C54.4797 20.8968 54.269 21.0385 54.1101 21.2231C53.9511 21.4011 53.8371 21.6186 53.768 21.8757C53.6989 22.1327 53.6644 22.4162 53.6644 22.726C53.6644 23.0095 53.7024 23.2764 53.7784 23.5269C53.8613 23.7708 53.9857 23.985 54.1515 24.1696C54.3243 24.3476 54.5385 24.4893 54.7941 24.5948C55.0567 24.7002 55.3711 24.753 55.7373 24.753ZM55.7373 18.3062C56.0966 18.3062 56.3903 18.2502 56.6183 18.1381C56.8463 18.0261 57.0259 17.8778 57.1572 17.6932C57.2885 17.5086 57.3783 17.2977 57.4267 17.0604C57.4751 16.8231 57.4993 16.5792 57.4993 16.3287C57.4993 16.1046 57.4682 15.887 57.406 15.6761C57.3438 15.4652 57.2401 15.2806 57.095 15.1224C56.9569 14.9576 56.7737 14.8258 56.5457 14.7269C56.3246 14.628 56.0551 14.5786 55.7373 14.5786C55.4125 14.5786 55.1396 14.628 54.9185 14.7269C54.6974 14.8258 54.5143 14.9576 54.3692 15.1224C54.231 15.2806 54.1308 15.4652 54.0686 15.6761C54.0064 15.887 53.9753 16.1046 53.9753 16.3287C53.9753 16.5792 53.9995 16.8231 54.0479 17.0604C54.0962 17.2977 54.1861 17.5086 54.3174 17.6932C54.4486 17.8778 54.6283 18.0261 54.8563 18.1381C55.0843 18.2502 55.378 18.3062 55.7373 18.3062Z" fill="white" fill-opacity="0.5"/>
<path d="M39.992 24.6937H42.8941V17.4262C42.8941 17.0703 42.9044 16.6978 42.9251 16.3089L41.215 17.6635C41.063 17.7756 40.911 17.8448 40.759 17.8712C40.6139 17.8909 40.4757 17.8909 40.3444 17.8712C40.2131 17.8448 40.0956 17.8019 39.992 17.7426C39.8883 17.6767 39.8123 17.6108 39.764 17.5449L38.7482 16.2595L43.4537 12.4923H46.107V24.6937H48.5945V26.9085H39.992V24.6937Z" fill="white" fill-opacity="0.5"/>
</svg>
