<svg width="20" height="20" viewBox="0 0 20 20" fill="none" xmlns="http://www.w3.org/2000/svg">
<path d="M0 10C0 15.5228 4.47715 20 10 20C15.5228 20 20 15.5228 20 10C20 8.46773 19.6554 7.01595 19.0394 5.71795L10.3134 15.3923C10.0405 15.6958 9.66716 15.8667 9.27824 15.8667C8.88867 15.8667 8.51597 15.6958 8.24309 15.3923L3.11006 9.74273C2.82875 9.4449 2.66864 9.03574 2.6667 8.60814C2.66411 8.17982 2.81967 7.76854 3.09775 7.46716C3.37582 7.16578 3.75305 6.99984 4.14456 7.00622C4.53607 7.01332 4.90813 7.19202 5.17778 7.50261L9.27238 12.0168L17.2817 3.14596C15.458 1.2092 12.8702 0 10 0C4.47715 0 0 4.47715 0 10Z" fill="#3DA806"/>
</svg>
