<svg width="20" height="20" viewBox="0 0 20 20" fill="none" xmlns="http://www.w3.org/2000/svg">
<path d="M1.35796 16.9136C0.880678 17.3909 0.880678 18.1647 1.35796 18.642C1.83525 19.1193 2.60909 19.1193 3.08637 18.642L10 11.7284L16.9136 18.642C17.3909 19.1193 18.1647 19.1193 18.642 18.642C19.1193 18.1647 19.1193 17.3909 18.642 16.9136L11.7284 10L18.642 3.08637C19.1193 2.60909 19.1193 1.83525 18.642 1.35796C18.1647 0.880678 17.3909 0.880679 16.9136 1.35796L10 8.27159L3.08637 1.35796C2.60909 0.880678 1.83525 0.880678 1.35796 1.35796C0.880678 1.83525 0.880678 2.60909 1.35796 3.08637L8.27159 10L1.35796 16.9136Z" fill="white" fill-opacity="0.5"/>
</svg>
