<svg width="300" height="201" viewBox="0 0 300 201" fill="none" xmlns="http://www.w3.org/2000/svg">
<path d="M241.767 189.678H145.695V185.933H240.219L281.269 144.883V4.22862H138.905V0.483398H285.014V146.431L241.767 189.678Z" fill="#3DA806"/>
<path d="M49.11 13.8857L23.7029 39.2929V176.222H232.581L271.703 137.099V13.8857H49.11Z" fill="#3DA806" fill-opacity="0.2"/>
<path d="M11.529 137.329V189.678H53.9984L43.1032 200.483H1V147.851L11.529 137.329Z" fill="#3DA806"/>
<path d="M53.9984 189.678H137.029H146.505V185.933H140.775H15.2742V36.85L47.8956 4.22862H76.155V0.483398H46.341L11.529 35.3018V137.329V189.678H53.9984Z" fill="#3DA806"/>
<path d="M298.382 68.1007C296.359 68.1007 294.721 66.4625 294.721 64.439H291.059V75.4241H294.721C294.721 73.4005 296.359 71.7624 298.382 71.7624V68.1007Z" fill="#3DA806"/>
<path d="M298.382 82.7467C296.359 82.7467 294.721 81.1085 294.721 79.085H291.059V90.0701H294.721C294.721 88.0465 296.359 86.4084 298.382 86.4084V82.7467Z" fill="#3DA806"/>
<path d="M298.382 97.3941C296.359 97.3941 294.721 95.756 294.721 93.7324H291.059V104.718H294.721C294.721 102.694 296.359 101.056 298.382 101.056V97.3941Z" fill="#3DA806"/>
<path d="M298.382 24.1656C296.359 24.1656 294.72 22.5275 294.72 20.5039H291.059V31.489H294.72C294.72 29.4655 296.359 27.8273 298.382 27.8273V24.1656Z" fill="#3DA806"/>
<path d="M298.382 38.8126C296.359 38.8126 294.721 37.1745 294.721 35.1509H291.059V46.136H294.721C294.721 44.1124 296.359 42.4743 298.382 42.4743V38.8126Z" fill="#3DA806"/>
<path d="M298.382 53.46C296.359 53.46 294.721 51.8219 294.721 49.7983H291.059V60.7835H294.721C294.721 58.7599 296.359 57.1218 298.382 57.1218V53.46Z" fill="#3DA806"/>
<path d="M85.9361 127.268L83.3515 136.545H91.3163L90.9471 137.724C82.2965 137.724 73.6987 137.724 65.3119 137.724L65.6284 136.545H71.4306L72.169 133.756H60.6174L59.4042 138.046L65.9976 145.286H81.1361L98.6482 137.724L102.235 124.64L78.7097 124.318L82.4548 110.805L88.8372 117.83H104.45L97.857 110.59H82.5075L65.7866 114.666L63.1492 124.318L75.8614 133.274L85.9361 127.268ZM81.1888 120.082H103.659L103.87 119.385H81.3471L81.1888 120.082Z" fill="white"/>
<path d="M129.496 103.19H113.883C110.033 117.24 106.182 131.343 102.331 145.446H117.839L117.997 144.749H103.967L114.833 140.138L116.099 135.687H118.63L117.786 138.904L119.949 137.939C123.114 126.356 126.279 114.773 129.496 103.19Z" fill="white"/>
<path d="M146.184 145.339L163.696 138.368L169.235 118.151L155.098 112.896C152.83 121.262 150.509 129.573 148.188 137.939L141.437 137.832L142.122 135.419H137.955L138.641 132.952H145.445L145.815 131.45H147.608L147.977 129.949H146.237L145.815 131.45H143.177L146.87 117.99L152.144 118.098L153.727 112.36L148.927 110.59L131.415 117.615L125.876 137.832L146.184 145.339Z" fill="white"/>
<path d="M178.827 145.339L190.695 137.885L184.101 137.939L188.321 122.495H187.952L190.115 114.505H195.759L196.866 110.483H191.222L193.227 103.19H177.614L176.189 108.499H171.178L170.651 110.483C173.868 110.483 177.086 110.483 180.304 110.483L179.196 114.505H174.554L172.339 122.495H172.761L168.488 138.153L178.827 145.339Z" fill="white"/>
<path d="M218.161 127.268L215.576 136.545H223.541L223.172 137.724C214.521 137.724 205.924 137.724 197.537 137.724L197.853 136.545H203.655L204.394 133.756H192.842L191.629 138.046L198.223 145.286H213.361L230.873 137.724L234.46 124.64L210.935 124.318L214.68 110.805L221.062 117.83H236.675L230.082 110.59H214.732L198.012 114.666L195.374 124.318L208.086 133.274L218.161 127.268ZM213.414 120.082H235.884L236.095 119.385H213.572L213.414 120.082Z" fill="white"/>
<path d="M59.848 86.8182L77.3529 79.8469L82.8891 59.6303L68.7586 54.3751C66.4914 62.7406 64.1715 71.0524 61.8516 79.4179L55.1027 79.3107L55.7881 76.8976H51.6228L52.3082 74.4308H59.1098L59.4789 72.9293H61.2716L61.6407 71.4278H59.9007L59.4789 72.9293H56.8426L60.5334 59.4694L65.806 59.5767L67.3878 53.8388L62.5897 52.0692L45.0848 59.0941L39.5486 79.3107L59.848 86.8182Z" fill="white"/>
<path d="M99.4899 79.4179C101.335 72.6612 103.233 65.8508 105.079 59.0941H108.664L107.504 63.4377L109.824 66.4407L104.393 86.8182L107.715 85.4239L114.939 59.0404H116.573L109.613 84.6196L121.898 79.3107L127.435 59.0941L122.373 51.9083L105.501 57.5389L106.977 52.0692H105.342L103.708 58.0752L101.283 58.7723L103.181 51.8547L90.3683 55.7693L81.8795 86.9254L99.4899 79.4179Z" fill="white"/>
<path d="M152.761 44.6689H137.154C133.305 58.7187 129.456 72.8221 125.607 86.9254H141.108L141.266 86.2283H127.241L138.103 81.6166L139.368 77.1657H141.899L141.055 80.3832L143.217 79.4179C146.381 67.8349 149.544 56.2519 152.761 44.6689Z" fill="white"/>
<path d="M165.276 78.3454L172.499 51.9619H156.84L155.733 55.9838H165.961L165.75 56.7882L155.574 56.7346L149.405 79.3107L157.051 86.8182L169.705 79.4716C165.961 79.4179 162.165 79.4179 158.422 79.4179L157.947 81.0803H155.943L156.418 79.3107H158.369L158.632 78.3454H165.276ZM156.945 49.0126H173.238L174.292 45.0443H158.052L156.945 49.0126Z" fill="white"/>
<path d="M186.685 79.4179C188.53 72.6612 190.429 65.8508 192.274 59.0941H195.859L194.699 63.4377L197.019 66.4407L191.589 86.8182L194.91 85.4239L202.134 59.0404H203.768L196.808 84.6196L209.093 79.3107L214.63 59.0941L209.568 51.9083L192.696 57.5389L194.172 52.0692H192.538L190.903 58.0752L188.478 58.7723L190.376 51.8547L177.563 55.7693L169.075 86.9254L186.685 79.4179Z" fill="white"/>
<path d="M229.674 79.3107L231.098 74.2163L231.151 73.9482L232.258 69.9263L232.31 69.6582L234.999 59.8984V59.8448L238.796 64.8319L237.425 69.9263H232.31L231.203 73.9482H248.972L250.026 69.9799H252.979L255.984 59.0941H254.244L248.655 52.0692H225.456L224.402 56.0911H231.783L230.834 59.5231H219.498L214.12 79.3107L232.785 86.8182L247.021 79.4716L229.674 79.3107Z" fill="white"/>
</svg>
